G04*
G04 #@! TF.GenerationSoftware,Altium Limited,Altium Designer,25.7.1 (20)*
G04*
G04 Layer_Color=128*
%FSLAX26Y26*%
%MOIN*%
G70*
G04*
G04 #@! TF.SameCoordinates,09F228F7-CC91-46C6-8843-2C2E3D21F80A*
G04*
G04*
G04 #@! TF.FilePolarity,Positive*
G04*
G01*
G75*
%ADD24C,0.020000*%
%ADD41R,0.025591X0.025591*%
G36*
X3593465Y3018898D02*
X3593472Y3018630D01*
X3593493Y3018363D01*
X3593528Y3018097D01*
X3593576Y3017833D01*
X3593639Y3017573D01*
X3593715Y3017316D01*
X3593805Y3017063D01*
X3593907Y3016816D01*
X3594022Y3016574D01*
X3594150Y3016338D01*
X3594290Y3016110D01*
X3594442Y3015889D01*
X3594605Y3015677D01*
X3594779Y3015473D01*
X3594964Y3015278D01*
X3595158Y3015094D01*
X3595362Y3014920D01*
X3595574Y3014757D01*
X3595795Y3014605D01*
X3596024Y3014465D01*
X3596259Y3014337D01*
X3596501Y3014222D01*
X3596749Y3014119D01*
X3597001Y3014030D01*
X3597258Y3013954D01*
X3597519Y3013891D01*
X3597782Y3013843D01*
X3598048Y3013807D01*
X3598315Y3013787D01*
X3598583Y3013779D01*
X3637559D01*
Y2993701D01*
X3598583D01*
X3598315Y2993694D01*
X3598048Y2993673D01*
X3597782Y2993638D01*
X3597519Y2993589D01*
X3597258Y2993526D01*
X3597001Y2993450D01*
X3596749Y2993361D01*
X3596501Y2993258D01*
X3596259Y2993143D01*
X3596024Y2993015D01*
X3595795Y2992875D01*
X3595574Y2992723D01*
X3595362Y2992560D01*
X3595158Y2992386D01*
X3594964Y2992202D01*
X3594779Y2992007D01*
X3594605Y2991803D01*
X3594442Y2991591D01*
X3594290Y2991370D01*
X3594150Y2991142D01*
X3594022Y2990906D01*
X3593907Y2990664D01*
X3593805Y2990417D01*
X3593715Y2990164D01*
X3593639Y2989907D01*
X3593576Y2989647D01*
X3593528Y2989383D01*
X3593493Y2989118D01*
X3593472Y2988851D01*
X3593465Y2988583D01*
Y2970276D01*
X3526535D01*
Y3037205D01*
X3593465D01*
Y3018898D01*
D02*
G37*
G36*
X3514724Y2970276D02*
X3447795D01*
Y2988583D01*
X3447788Y2988851D01*
X3447767Y2989118D01*
X3447732Y2989383D01*
X3447683Y2989647D01*
X3447621Y2989907D01*
X3447545Y2990164D01*
X3447455Y2990417D01*
X3447353Y2990664D01*
X3447237Y2990906D01*
X3447110Y2991142D01*
X3446970Y2991370D01*
X3446818Y2991591D01*
X3446655Y2991803D01*
X3446481Y2992007D01*
X3446296Y2992202D01*
X3446102Y2992386D01*
X3445898Y2992560D01*
X3445686Y2992723D01*
X3445465Y2992875D01*
X3445236Y2993015D01*
X3445001Y2993143D01*
X3444759Y2993258D01*
X3444511Y2993361D01*
X3444259Y2993450D01*
X3444002Y2993526D01*
X3443741Y2993589D01*
X3443478Y2993638D01*
X3443212Y2993673D01*
X3442945Y2993694D01*
X3442677Y2993701D01*
X3403701D01*
Y3013779D01*
X3442677D01*
X3442945Y3013787D01*
X3443212Y3013807D01*
X3443478Y3013843D01*
X3443741Y3013891D01*
X3444002Y3013954D01*
X3444259Y3014030D01*
X3444511Y3014119D01*
X3444759Y3014222D01*
X3445001Y3014337D01*
X3445236Y3014465D01*
X3445465Y3014605D01*
X3445686Y3014757D01*
X3445898Y3014920D01*
X3446102Y3015094D01*
X3446296Y3015278D01*
X3446481Y3015473D01*
X3446655Y3015677D01*
X3446818Y3015889D01*
X3446970Y3016110D01*
X3447110Y3016338D01*
X3447237Y3016574D01*
X3447353Y3016816D01*
X3447455Y3017063D01*
X3447545Y3017316D01*
X3447621Y3017573D01*
X3447683Y3017833D01*
X3447732Y3018097D01*
X3447767Y3018363D01*
X3447788Y3018630D01*
X3447795Y3018898D01*
Y3037205D01*
X3514724D01*
Y2970276D01*
D02*
G37*
G36*
X3593465Y2940157D02*
X3593472Y2939890D01*
X3593493Y2939622D01*
X3593528Y2939357D01*
X3593576Y2939093D01*
X3593639Y2938833D01*
X3593715Y2938576D01*
X3593805Y2938323D01*
X3593907Y2938076D01*
X3594022Y2937834D01*
X3594150Y2937598D01*
X3594290Y2937370D01*
X3594442Y2937149D01*
X3594605Y2936936D01*
X3594779Y2936733D01*
X3594964Y2936538D01*
X3595158Y2936354D01*
X3595362Y2936180D01*
X3595574Y2936017D01*
X3595795Y2935865D01*
X3596024Y2935725D01*
X3596259Y2935597D01*
X3596501Y2935482D01*
X3596749Y2935379D01*
X3597001Y2935290D01*
X3597258Y2935214D01*
X3597519Y2935151D01*
X3597782Y2935102D01*
X3598048Y2935067D01*
X3598315Y2935046D01*
X3598583Y2935039D01*
X3637559D01*
Y2914961D01*
X3598583D01*
X3598315Y2914954D01*
X3598048Y2914932D01*
X3597782Y2914898D01*
X3597519Y2914849D01*
X3597258Y2914786D01*
X3597001Y2914710D01*
X3596749Y2914621D01*
X3596501Y2914518D01*
X3596259Y2914403D01*
X3596024Y2914275D01*
X3595795Y2914135D01*
X3595574Y2913983D01*
X3595362Y2913820D01*
X3595158Y2913646D01*
X3594964Y2913461D01*
X3594779Y2913267D01*
X3594605Y2913063D01*
X3594442Y2912851D01*
X3594290Y2912630D01*
X3594150Y2912401D01*
X3594022Y2912166D01*
X3593907Y2911924D01*
X3593805Y2911677D01*
X3593715Y2911424D01*
X3593639Y2911167D01*
X3593576Y2910907D01*
X3593528Y2910643D01*
X3593493Y2910377D01*
X3593472Y2910110D01*
X3593465Y2909842D01*
Y2891535D01*
X3526535D01*
Y2958465D01*
X3593465D01*
Y2940157D01*
D02*
G37*
G36*
X3514724Y2891535D02*
X3447795D01*
Y2909842D01*
X3447788Y2910110D01*
X3447767Y2910377D01*
X3447732Y2910643D01*
X3447683Y2910907D01*
X3447621Y2911167D01*
X3447545Y2911424D01*
X3447455Y2911677D01*
X3447353Y2911924D01*
X3447237Y2912166D01*
X3447110Y2912401D01*
X3446970Y2912630D01*
X3446818Y2912851D01*
X3446655Y2913063D01*
X3446481Y2913267D01*
X3446296Y2913461D01*
X3446102Y2913646D01*
X3445898Y2913820D01*
X3445686Y2913983D01*
X3445465Y2914135D01*
X3445236Y2914275D01*
X3445001Y2914403D01*
X3444759Y2914518D01*
X3444511Y2914621D01*
X3444259Y2914710D01*
X3444002Y2914786D01*
X3443741Y2914849D01*
X3443478Y2914898D01*
X3443212Y2914932D01*
X3442945Y2914954D01*
X3442677Y2914961D01*
X3403701D01*
Y2935039D01*
X3442677D01*
X3442945Y2935046D01*
X3443212Y2935067D01*
X3443478Y2935102D01*
X3443741Y2935151D01*
X3444002Y2935214D01*
X3444259Y2935290D01*
X3444511Y2935379D01*
X3444759Y2935482D01*
X3445001Y2935597D01*
X3445236Y2935725D01*
X3445465Y2935865D01*
X3445686Y2936017D01*
X3445898Y2936180D01*
X3446102Y2936354D01*
X3446296Y2936538D01*
X3446481Y2936733D01*
X3446655Y2936936D01*
X3446818Y2937149D01*
X3446970Y2937370D01*
X3447110Y2937598D01*
X3447237Y2937834D01*
X3447353Y2938076D01*
X3447455Y2938323D01*
X3447545Y2938576D01*
X3447621Y2938833D01*
X3447683Y2939093D01*
X3447732Y2939357D01*
X3447767Y2939622D01*
X3447788Y2939890D01*
X3447795Y2940157D01*
Y2958465D01*
X3514724D01*
Y2891535D01*
D02*
G37*
G36*
X3593465Y2861417D02*
X3593472Y2861149D01*
X3593493Y2860882D01*
X3593528Y2860617D01*
X3593576Y2860353D01*
X3593639Y2860093D01*
X3593715Y2859836D01*
X3593805Y2859583D01*
X3593907Y2859336D01*
X3594022Y2859094D01*
X3594150Y2858858D01*
X3594290Y2858630D01*
X3594442Y2858409D01*
X3594605Y2858196D01*
X3594779Y2857993D01*
X3594964Y2857798D01*
X3595158Y2857614D01*
X3595362Y2857440D01*
X3595574Y2857277D01*
X3595795Y2857125D01*
X3596024Y2856985D01*
X3596259Y2856857D01*
X3596501Y2856742D01*
X3596749Y2856639D01*
X3597001Y2856550D01*
X3597258Y2856474D01*
X3597519Y2856411D01*
X3597782Y2856362D01*
X3598048Y2856327D01*
X3598315Y2856306D01*
X3598583Y2856299D01*
X3637559D01*
Y2836220D01*
X3598583D01*
X3598315Y2836213D01*
X3598048Y2836192D01*
X3597782Y2836157D01*
X3597519Y2836108D01*
X3597258Y2836046D01*
X3597001Y2835970D01*
X3596749Y2835880D01*
X3596501Y2835778D01*
X3596259Y2835662D01*
X3596024Y2835535D01*
X3595795Y2835395D01*
X3595574Y2835243D01*
X3595362Y2835080D01*
X3595158Y2834906D01*
X3594964Y2834721D01*
X3594779Y2834527D01*
X3594605Y2834323D01*
X3594442Y2834111D01*
X3594290Y2833890D01*
X3594150Y2833661D01*
X3594022Y2833426D01*
X3593907Y2833184D01*
X3593805Y2832936D01*
X3593715Y2832684D01*
X3593639Y2832427D01*
X3593576Y2832166D01*
X3593528Y2831903D01*
X3593493Y2831637D01*
X3593472Y2831370D01*
X3593465Y2831102D01*
Y2812795D01*
X3526535D01*
Y2879724D01*
X3593465D01*
Y2861417D01*
D02*
G37*
G36*
X3514724Y2812795D02*
X3447795D01*
Y2831102D01*
X3447788Y2831370D01*
X3447767Y2831637D01*
X3447732Y2831903D01*
X3447683Y2832166D01*
X3447621Y2832427D01*
X3447545Y2832684D01*
X3447455Y2832936D01*
X3447353Y2833184D01*
X3447237Y2833426D01*
X3447110Y2833661D01*
X3446970Y2833890D01*
X3446818Y2834111D01*
X3446655Y2834323D01*
X3446481Y2834527D01*
X3446296Y2834721D01*
X3446102Y2834906D01*
X3445898Y2835080D01*
X3445686Y2835243D01*
X3445465Y2835395D01*
X3445236Y2835535D01*
X3445001Y2835662D01*
X3444759Y2835778D01*
X3444511Y2835880D01*
X3444259Y2835970D01*
X3444002Y2836046D01*
X3443741Y2836108D01*
X3443478Y2836157D01*
X3443212Y2836192D01*
X3442945Y2836213D01*
X3442677Y2836220D01*
X3403701D01*
Y2856299D01*
X3442677D01*
X3442945Y2856306D01*
X3443212Y2856327D01*
X3443478Y2856362D01*
X3443741Y2856411D01*
X3444002Y2856474D01*
X3444259Y2856550D01*
X3444511Y2856639D01*
X3444759Y2856742D01*
X3445001Y2856857D01*
X3445236Y2856985D01*
X3445465Y2857125D01*
X3445686Y2857277D01*
X3445898Y2857440D01*
X3446102Y2857614D01*
X3446296Y2857798D01*
X3446481Y2857993D01*
X3446655Y2858196D01*
X3446818Y2858409D01*
X3446970Y2858630D01*
X3447110Y2858858D01*
X3447237Y2859094D01*
X3447353Y2859336D01*
X3447455Y2859583D01*
X3447545Y2859836D01*
X3447621Y2860093D01*
X3447683Y2860353D01*
X3447732Y2860617D01*
X3447767Y2860882D01*
X3447788Y2861149D01*
X3447795Y2861417D01*
Y2879724D01*
X3514724D01*
Y2812795D01*
D02*
G37*
G36*
X3593465Y2782677D02*
X3593472Y2782409D01*
X3593493Y2782142D01*
X3593528Y2781876D01*
X3593576Y2781613D01*
X3593639Y2781352D01*
X3593715Y2781095D01*
X3593805Y2780843D01*
X3593907Y2780595D01*
X3594022Y2780354D01*
X3594150Y2780118D01*
X3594290Y2779890D01*
X3594442Y2779669D01*
X3594605Y2779456D01*
X3594779Y2779252D01*
X3594964Y2779058D01*
X3595158Y2778874D01*
X3595362Y2778700D01*
X3595574Y2778536D01*
X3595795Y2778385D01*
X3596024Y2778245D01*
X3596259Y2778117D01*
X3596501Y2778001D01*
X3596749Y2777899D01*
X3597001Y2777809D01*
X3597258Y2777733D01*
X3597519Y2777671D01*
X3597782Y2777622D01*
X3598048Y2777587D01*
X3598315Y2777566D01*
X3598583Y2777559D01*
X3637559D01*
Y2757480D01*
X3598583D01*
X3598315Y2757473D01*
X3598048Y2757452D01*
X3597782Y2757417D01*
X3597519Y2757368D01*
X3597258Y2757306D01*
X3597001Y2757230D01*
X3596749Y2757140D01*
X3596501Y2757038D01*
X3596259Y2756922D01*
X3596024Y2756794D01*
X3595795Y2756655D01*
X3595574Y2756503D01*
X3595362Y2756340D01*
X3595158Y2756166D01*
X3594964Y2755981D01*
X3594779Y2755787D01*
X3594605Y2755583D01*
X3594442Y2755370D01*
X3594290Y2755150D01*
X3594150Y2754921D01*
X3594022Y2754686D01*
X3593907Y2754444D01*
X3593805Y2754196D01*
X3593715Y2753944D01*
X3593639Y2753687D01*
X3593576Y2753426D01*
X3593528Y2753163D01*
X3593493Y2752897D01*
X3593472Y2752630D01*
X3593465Y2752362D01*
Y2734055D01*
X3526535D01*
Y2800984D01*
X3593465D01*
Y2782677D01*
D02*
G37*
G36*
X3514724Y2734055D02*
X3447795D01*
Y2752362D01*
X3447788Y2752630D01*
X3447767Y2752897D01*
X3447732Y2753163D01*
X3447683Y2753426D01*
X3447621Y2753687D01*
X3447545Y2753944D01*
X3447455Y2754196D01*
X3447353Y2754444D01*
X3447237Y2754686D01*
X3447110Y2754921D01*
X3446970Y2755150D01*
X3446818Y2755370D01*
X3446655Y2755583D01*
X3446481Y2755787D01*
X3446296Y2755981D01*
X3446102Y2756166D01*
X3445898Y2756340D01*
X3445686Y2756503D01*
X3445465Y2756655D01*
X3445236Y2756794D01*
X3445001Y2756922D01*
X3444759Y2757038D01*
X3444511Y2757140D01*
X3444259Y2757230D01*
X3444002Y2757306D01*
X3443741Y2757368D01*
X3443478Y2757417D01*
X3443212Y2757452D01*
X3442945Y2757473D01*
X3442677Y2757480D01*
X3403701D01*
Y2777559D01*
X3442677D01*
X3442945Y2777566D01*
X3443212Y2777587D01*
X3443478Y2777622D01*
X3443741Y2777671D01*
X3444002Y2777733D01*
X3444259Y2777809D01*
X3444511Y2777899D01*
X3444759Y2778001D01*
X3445001Y2778117D01*
X3445236Y2778245D01*
X3445465Y2778385D01*
X3445686Y2778536D01*
X3445898Y2778700D01*
X3446102Y2778874D01*
X3446296Y2779058D01*
X3446481Y2779252D01*
X3446655Y2779456D01*
X3446818Y2779669D01*
X3446970Y2779890D01*
X3447110Y2780118D01*
X3447237Y2780354D01*
X3447353Y2780595D01*
X3447455Y2780843D01*
X3447545Y2781095D01*
X3447621Y2781352D01*
X3447683Y2781613D01*
X3447732Y2781876D01*
X3447767Y2782142D01*
X3447788Y2782409D01*
X3447795Y2782677D01*
Y2800984D01*
X3514724D01*
Y2734055D01*
D02*
G37*
G36*
X3593465Y2703937D02*
X3593472Y2703669D01*
X3593493Y2703402D01*
X3593528Y2703136D01*
X3593576Y2702873D01*
X3593639Y2702612D01*
X3593715Y2702355D01*
X3593805Y2702103D01*
X3593907Y2701855D01*
X3594022Y2701613D01*
X3594150Y2701378D01*
X3594290Y2701149D01*
X3594442Y2700929D01*
X3594605Y2700716D01*
X3594779Y2700512D01*
X3594964Y2700318D01*
X3595158Y2700133D01*
X3595362Y2699959D01*
X3595574Y2699796D01*
X3595795Y2699644D01*
X3596024Y2699505D01*
X3596259Y2699377D01*
X3596501Y2699261D01*
X3596749Y2699159D01*
X3597001Y2699069D01*
X3597258Y2698993D01*
X3597519Y2698931D01*
X3597782Y2698882D01*
X3598048Y2698847D01*
X3598315Y2698826D01*
X3598583Y2698819D01*
X3637559D01*
Y2678740D01*
X3598583D01*
X3598315Y2678733D01*
X3598048Y2678712D01*
X3597782Y2678677D01*
X3597519Y2678628D01*
X3597258Y2678566D01*
X3597001Y2678490D01*
X3596749Y2678400D01*
X3596501Y2678298D01*
X3596259Y2678182D01*
X3596024Y2678054D01*
X3595795Y2677914D01*
X3595574Y2677763D01*
X3595362Y2677599D01*
X3595158Y2677425D01*
X3594964Y2677241D01*
X3594779Y2677047D01*
X3594605Y2676843D01*
X3594442Y2676630D01*
X3594290Y2676410D01*
X3594150Y2676181D01*
X3594022Y2675945D01*
X3593907Y2675704D01*
X3593805Y2675456D01*
X3593715Y2675204D01*
X3593639Y2674947D01*
X3593576Y2674686D01*
X3593528Y2674423D01*
X3593493Y2674157D01*
X3593472Y2673890D01*
X3593465Y2673622D01*
Y2655315D01*
X3526535D01*
Y2722244D01*
X3593465D01*
Y2703937D01*
D02*
G37*
G36*
X3514724Y2655315D02*
X3447795D01*
Y2673622D01*
X3447788Y2673890D01*
X3447767Y2674157D01*
X3447732Y2674423D01*
X3447683Y2674686D01*
X3447621Y2674947D01*
X3447545Y2675204D01*
X3447455Y2675456D01*
X3447353Y2675704D01*
X3447237Y2675945D01*
X3447110Y2676181D01*
X3446970Y2676410D01*
X3446818Y2676630D01*
X3446655Y2676843D01*
X3446481Y2677047D01*
X3446296Y2677241D01*
X3446102Y2677425D01*
X3445898Y2677599D01*
X3445686Y2677763D01*
X3445465Y2677914D01*
X3445236Y2678054D01*
X3445001Y2678182D01*
X3444759Y2678298D01*
X3444511Y2678400D01*
X3444259Y2678490D01*
X3444002Y2678566D01*
X3443741Y2678628D01*
X3443478Y2678677D01*
X3443212Y2678712D01*
X3442945Y2678733D01*
X3442677Y2678740D01*
X3403701D01*
Y2698819D01*
X3442677D01*
X3442945Y2698826D01*
X3443212Y2698847D01*
X3443478Y2698882D01*
X3443741Y2698931D01*
X3444002Y2698993D01*
X3444259Y2699069D01*
X3444511Y2699159D01*
X3444759Y2699261D01*
X3445001Y2699377D01*
X3445236Y2699505D01*
X3445465Y2699644D01*
X3445686Y2699796D01*
X3445898Y2699959D01*
X3446102Y2700133D01*
X3446296Y2700318D01*
X3446481Y2700512D01*
X3446655Y2700716D01*
X3446818Y2700929D01*
X3446970Y2701149D01*
X3447110Y2701378D01*
X3447237Y2701613D01*
X3447353Y2701855D01*
X3447455Y2702103D01*
X3447545Y2702355D01*
X3447621Y2702612D01*
X3447683Y2702873D01*
X3447732Y2703136D01*
X3447767Y2703402D01*
X3447788Y2703669D01*
X3447795Y2703937D01*
Y2722244D01*
X3514724D01*
Y2655315D01*
D02*
G37*
G36*
X3593465Y2625197D02*
X3593472Y2624929D01*
X3593493Y2624662D01*
X3593528Y2624396D01*
X3593576Y2624133D01*
X3593639Y2623872D01*
X3593715Y2623615D01*
X3593805Y2623363D01*
X3593907Y2623115D01*
X3594022Y2622873D01*
X3594150Y2622638D01*
X3594290Y2622409D01*
X3594442Y2622188D01*
X3594605Y2621976D01*
X3594779Y2621772D01*
X3594964Y2621578D01*
X3595158Y2621393D01*
X3595362Y2621219D01*
X3595574Y2621056D01*
X3595795Y2620904D01*
X3596024Y2620764D01*
X3596259Y2620637D01*
X3596501Y2620521D01*
X3596749Y2620419D01*
X3597001Y2620329D01*
X3597258Y2620253D01*
X3597519Y2620191D01*
X3597782Y2620142D01*
X3598048Y2620107D01*
X3598315Y2620086D01*
X3598583Y2620079D01*
X3637559D01*
Y2600000D01*
X3598583D01*
X3598315Y2599993D01*
X3598048Y2599972D01*
X3597782Y2599937D01*
X3597519Y2599888D01*
X3597258Y2599825D01*
X3597001Y2599749D01*
X3596749Y2599660D01*
X3596501Y2599557D01*
X3596259Y2599442D01*
X3596024Y2599314D01*
X3595795Y2599174D01*
X3595574Y2599022D01*
X3595362Y2598859D01*
X3595158Y2598685D01*
X3594964Y2598501D01*
X3594779Y2598307D01*
X3594605Y2598103D01*
X3594442Y2597890D01*
X3594290Y2597669D01*
X3594150Y2597441D01*
X3594022Y2597205D01*
X3593907Y2596963D01*
X3593805Y2596716D01*
X3593715Y2596463D01*
X3593639Y2596206D01*
X3593576Y2595946D01*
X3593528Y2595682D01*
X3593493Y2595417D01*
X3593472Y2595150D01*
X3593465Y2594882D01*
Y2576575D01*
X3526535D01*
Y2643504D01*
X3593465D01*
Y2625197D01*
D02*
G37*
G36*
X3514724Y2576575D02*
X3447795D01*
Y2594882D01*
X3447788Y2595150D01*
X3447767Y2595417D01*
X3447732Y2595682D01*
X3447683Y2595946D01*
X3447621Y2596206D01*
X3447545Y2596463D01*
X3447455Y2596716D01*
X3447353Y2596963D01*
X3447237Y2597205D01*
X3447110Y2597441D01*
X3446970Y2597669D01*
X3446818Y2597890D01*
X3446655Y2598103D01*
X3446481Y2598307D01*
X3446296Y2598501D01*
X3446102Y2598685D01*
X3445898Y2598859D01*
X3445686Y2599022D01*
X3445465Y2599174D01*
X3445236Y2599314D01*
X3445001Y2599442D01*
X3444759Y2599557D01*
X3444511Y2599660D01*
X3444259Y2599749D01*
X3444002Y2599825D01*
X3443741Y2599888D01*
X3443478Y2599937D01*
X3443212Y2599972D01*
X3442945Y2599993D01*
X3442677Y2600000D01*
X3403701D01*
Y2620079D01*
X3442677D01*
X3442945Y2620086D01*
X3443212Y2620107D01*
X3443478Y2620142D01*
X3443741Y2620191D01*
X3444002Y2620253D01*
X3444259Y2620329D01*
X3444511Y2620419D01*
X3444759Y2620521D01*
X3445001Y2620637D01*
X3445236Y2620764D01*
X3445465Y2620904D01*
X3445686Y2621056D01*
X3445898Y2621219D01*
X3446102Y2621393D01*
X3446296Y2621578D01*
X3446481Y2621772D01*
X3446655Y2621976D01*
X3446818Y2622188D01*
X3446970Y2622409D01*
X3447110Y2622638D01*
X3447237Y2622873D01*
X3447353Y2623115D01*
X3447455Y2623363D01*
X3447545Y2623615D01*
X3447621Y2623872D01*
X3447683Y2624133D01*
X3447732Y2624396D01*
X3447767Y2624662D01*
X3447788Y2624929D01*
X3447795Y2625197D01*
Y2643504D01*
X3514724D01*
Y2576575D01*
D02*
G37*
G36*
X3593465Y2546457D02*
X3593472Y2546189D01*
X3593493Y2545922D01*
X3593528Y2545656D01*
X3593576Y2545392D01*
X3593639Y2545132D01*
X3593715Y2544875D01*
X3593805Y2544622D01*
X3593907Y2544375D01*
X3594022Y2544133D01*
X3594150Y2543898D01*
X3594290Y2543669D01*
X3594442Y2543448D01*
X3594605Y2543236D01*
X3594779Y2543032D01*
X3594964Y2542838D01*
X3595158Y2542653D01*
X3595362Y2542479D01*
X3595574Y2542316D01*
X3595795Y2542164D01*
X3596024Y2542024D01*
X3596259Y2541896D01*
X3596501Y2541781D01*
X3596749Y2541678D01*
X3597001Y2541589D01*
X3597258Y2541513D01*
X3597519Y2541450D01*
X3597782Y2541401D01*
X3598048Y2541367D01*
X3598315Y2541345D01*
X3598583Y2541338D01*
X3637559D01*
Y2521260D01*
X3598583D01*
X3598315Y2521253D01*
X3598048Y2521232D01*
X3597782Y2521197D01*
X3597519Y2521148D01*
X3597258Y2521085D01*
X3597001Y2521009D01*
X3596749Y2520920D01*
X3596501Y2520817D01*
X3596259Y2520702D01*
X3596024Y2520574D01*
X3595795Y2520434D01*
X3595574Y2520282D01*
X3595362Y2520119D01*
X3595158Y2519945D01*
X3594964Y2519761D01*
X3594779Y2519566D01*
X3594605Y2519363D01*
X3594442Y2519150D01*
X3594290Y2518929D01*
X3594150Y2518701D01*
X3594022Y2518465D01*
X3593907Y2518223D01*
X3593805Y2517976D01*
X3593715Y2517723D01*
X3593639Y2517466D01*
X3593576Y2517206D01*
X3593528Y2516942D01*
X3593493Y2516677D01*
X3593472Y2516410D01*
X3593465Y2516142D01*
Y2497835D01*
X3526535D01*
Y2564764D01*
X3593465D01*
Y2546457D01*
D02*
G37*
G36*
X3514724Y2497835D02*
X3447795D01*
Y2516142D01*
X3447788Y2516410D01*
X3447767Y2516677D01*
X3447732Y2516942D01*
X3447683Y2517206D01*
X3447621Y2517466D01*
X3447545Y2517723D01*
X3447455Y2517976D01*
X3447353Y2518223D01*
X3447237Y2518465D01*
X3447110Y2518701D01*
X3446970Y2518929D01*
X3446818Y2519150D01*
X3446655Y2519363D01*
X3446481Y2519566D01*
X3446296Y2519761D01*
X3446102Y2519945D01*
X3445898Y2520119D01*
X3445686Y2520282D01*
X3445465Y2520434D01*
X3445236Y2520574D01*
X3445001Y2520702D01*
X3444759Y2520817D01*
X3444511Y2520920D01*
X3444259Y2521009D01*
X3444002Y2521085D01*
X3443741Y2521148D01*
X3443478Y2521197D01*
X3443212Y2521232D01*
X3442945Y2521253D01*
X3442677Y2521260D01*
X3403701D01*
Y2541338D01*
X3442677D01*
X3442945Y2541345D01*
X3443212Y2541367D01*
X3443478Y2541401D01*
X3443741Y2541450D01*
X3444002Y2541513D01*
X3444259Y2541589D01*
X3444511Y2541678D01*
X3444759Y2541781D01*
X3445001Y2541896D01*
X3445236Y2542024D01*
X3445465Y2542164D01*
X3445686Y2542316D01*
X3445898Y2542479D01*
X3446102Y2542653D01*
X3446296Y2542838D01*
X3446481Y2543032D01*
X3446655Y2543236D01*
X3446818Y2543448D01*
X3446970Y2543669D01*
X3447110Y2543898D01*
X3447237Y2544133D01*
X3447353Y2544375D01*
X3447455Y2544622D01*
X3447545Y2544875D01*
X3447621Y2545132D01*
X3447683Y2545392D01*
X3447732Y2545656D01*
X3447767Y2545922D01*
X3447788Y2546189D01*
X3447795Y2546457D01*
Y2564764D01*
X3514724D01*
Y2497835D01*
D02*
G37*
D24*
X2087500Y2355000D02*
D03*
X2087815Y2455000D02*
D03*
Y2555000D02*
D03*
Y2655000D02*
D03*
Y2755000D02*
D03*
Y2855000D02*
D03*
Y2955000D02*
D03*
Y3055000D02*
D03*
Y3155000D02*
D03*
D41*
X2019685Y2355000D02*
D03*
X1980315D02*
D03*
X2019685Y2455000D02*
D03*
X1980315D02*
D03*
X2019685Y2555000D02*
D03*
X1980315D02*
D03*
X2019685Y2755000D02*
D03*
X1980315D02*
D03*
X2019685Y2855000D02*
D03*
X1980315D02*
D03*
X2019685Y2955000D02*
D03*
X1980315D02*
D03*
X2019685Y3055000D02*
D03*
X1980315D02*
D03*
X2019685Y3155000D02*
D03*
X1980315D02*
D03*
M02*
