G04*
G04 #@! TF.GenerationSoftware,Altium Limited,Altium Designer,25.7.1 (20)*
G04*
G04 Layer_Physical_Order=4*
G04 Layer_Color=16711680*
%FSLAX26Y26*%
%MOIN*%
G70*
G04*
G04 #@! TF.SameCoordinates,09F228F7-CC91-46C6-8843-2C2E3D21F80A*
G04*
G04*
G04 #@! TF.FilePolarity,Positive*
G04*
G01*
G75*
%ADD12C,0.020000*%
%ADD18C,0.010000*%
%ADD24C,0.020000*%
%ADD41R,0.025591X0.025591*%
%ADD66C,0.061811*%
%ADD69R,0.061811X0.061811*%
%ADD76R,0.061811X0.061811*%
%ADD81C,0.019685*%
%ADD82C,0.005110*%
%ADD83C,0.050000*%
%ADD87C,0.005000*%
%ADD89C,0.030000*%
%ADD93C,0.014000*%
%ADD94C,0.016000*%
%ADD110R,0.060000X0.060000*%
%ADD111C,0.060000*%
%ADD112C,0.393701*%
%ADD113C,0.088583*%
%ADD114C,0.047638*%
%ADD115C,0.055118*%
%ADD116R,0.055118X0.055118*%
%ADD117C,0.062992*%
G04:AMPARAMS|DCode=118|XSize=62.992mil|YSize=62.992mil|CornerRadius=15.748mil|HoleSize=0mil|Usage=FLASHONLY|Rotation=180.000|XOffset=0mil|YOffset=0mil|HoleType=Round|Shape=RoundedRectangle|*
%AMROUNDEDRECTD118*
21,1,0.062992,0.031496,0,0,180.0*
21,1,0.031496,0.062992,0,0,180.0*
1,1,0.031496,-0.015748,0.015748*
1,1,0.031496,0.015748,0.015748*
1,1,0.031496,0.015748,-0.015748*
1,1,0.031496,-0.015748,-0.015748*
%
%ADD118ROUNDEDRECTD118*%
%ADD119R,0.047638X0.047638*%
%ADD120C,0.255905*%
%ADD121C,0.040157*%
%ADD122C,0.050000*%
%ADD134C,0.070000*%
%ADD135C,0.025000*%
G36*
X5710000Y4930000D02*
X5790000D01*
X5840000Y4880000D01*
X5855000D01*
X5920000Y4815000D01*
Y4770000D01*
X5950000Y4740000D01*
Y4640000D01*
X5980000Y4595000D01*
X5990000Y4535000D01*
X6055000Y4470000D01*
X6359626D01*
X6389626Y4440000D01*
X6425000D01*
X6475000Y4390000D01*
Y3307500D01*
X6450000Y3307500D01*
Y3287500D01*
X6447500Y3285000D01*
X6445000D01*
Y1850980D01*
X6449999Y1845980D01*
X6445000Y1840981D01*
Y1765000D01*
X6405000Y1725000D01*
Y1685000D01*
X6320000Y1600000D01*
X6315000D01*
X6290000Y1575000D01*
X6220000D01*
X6195000Y1550000D01*
X6110000D01*
X6095000Y1535000D01*
X6065000D01*
X6050000Y1520000D01*
X6025000D01*
X5980000Y1475000D01*
Y1460000D01*
X5960000Y1440000D01*
Y1395000D01*
X5945000Y1380000D01*
Y1280000D01*
X5935000Y1270000D01*
Y1240000D01*
X5910000Y1215000D01*
Y1205000D01*
X5890000Y1185000D01*
Y1175000D01*
X5855000Y1140000D01*
Y1135000D01*
X5840000D01*
X5755000Y1050000D01*
X4282500D01*
Y1045000D01*
X2350000D01*
X2345000Y1050000D01*
Y1050000D01*
X2345000D01*
X2345000Y1050000D01*
Y1049891D01*
X2345000Y1050000D01*
X1750000D01*
X1687500Y1112500D01*
X1657500D01*
X1602500Y1167500D01*
Y1197500D01*
X1552500Y1247500D01*
Y1342500D01*
X1527500Y1367500D01*
Y1437500D01*
X1497500Y1467500D01*
Y1470000D01*
X1490000D01*
X1415000Y1545000D01*
X1250000D01*
X1170000Y1625000D01*
X1145000D01*
Y1645000D01*
X1050000Y1740000D01*
Y2075000D01*
X1055000Y2080000D01*
Y3230000D01*
X1065000D01*
Y3815000D01*
Y4285000D01*
X1190000Y4410000D01*
X1215000D01*
Y4430000D01*
X1235000D01*
X1259626Y4454626D01*
X1404626D01*
X1435000Y4485000D01*
X1455000D01*
X1545000Y4575000D01*
Y4735000D01*
X1590000Y4780000D01*
Y4820000D01*
X1700000Y4930000D01*
X1785000D01*
X1800000Y4945000D01*
X2170000D01*
Y4955000D01*
X4225000D01*
Y4940000D01*
X4240000Y4955000D01*
X5685000D01*
X5710000Y4930000D01*
D02*
G37*
%LPC*%
G36*
X5687500Y4414239D02*
Y4382500D01*
X5719239D01*
X5717481Y4389061D01*
X5711833Y4398845D01*
X5703845Y4406833D01*
X5694061Y4412481D01*
X5687500Y4414239D01*
D02*
G37*
G36*
X5667500D02*
X5660939Y4412481D01*
X5651155Y4406833D01*
X5643167Y4398845D01*
X5637519Y4389061D01*
X5635761Y4382500D01*
X5667500D01*
Y4414239D01*
D02*
G37*
G36*
X5719239Y4362500D02*
X5687500D01*
Y4330761D01*
X5694061Y4332519D01*
X5703845Y4338167D01*
X5711833Y4346155D01*
X5717481Y4355939D01*
X5719239Y4362500D01*
D02*
G37*
G36*
X5667500D02*
X5635761D01*
X5637519Y4355939D01*
X5643167Y4346155D01*
X5651155Y4338167D01*
X5660939Y4332519D01*
X5667500Y4330761D01*
Y4362500D01*
D02*
G37*
G36*
X2590000Y4595000D02*
X2515000Y4520000D01*
Y4347500D01*
X2595000Y4267500D01*
X2770000D01*
X2812500Y4310000D01*
X2847500Y4345000D01*
Y4517500D01*
X2770000Y4595000D01*
X2590000Y4595000D01*
D02*
G37*
G36*
X4517500Y4637500D02*
X4495000Y4615000D01*
X4290000D01*
X4225000Y4550000D01*
Y4315000D01*
X4315000Y4225000D01*
X4920000D01*
X4965000Y4270000D01*
Y4465000D01*
X4792500Y4637500D01*
X4517500Y4637500D01*
D02*
G37*
G36*
X1810000Y4061740D02*
Y4030000D01*
X1841739D01*
X1839982Y4036561D01*
X1834333Y4046345D01*
X1826345Y4054333D01*
X1816561Y4059981D01*
X1810000Y4061740D01*
D02*
G37*
G36*
X1790000D02*
X1783439Y4059981D01*
X1773655Y4054333D01*
X1765667Y4046345D01*
X1760018Y4036561D01*
X1758261Y4030000D01*
X1790000D01*
Y4061740D01*
D02*
G37*
G36*
X1841739Y4010000D02*
X1810000D01*
Y3978260D01*
X1816561Y3980019D01*
X1826345Y3985667D01*
X1834333Y3993655D01*
X1839982Y4003439D01*
X1841739Y4010000D01*
D02*
G37*
G36*
X1790000D02*
X1758261D01*
X1760018Y4003439D01*
X1765667Y3993655D01*
X1773655Y3985667D01*
X1783439Y3980019D01*
X1790000Y3978260D01*
Y4010000D01*
D02*
G37*
G36*
X5177500Y3895000D02*
X4922500D01*
X4910000Y3882500D01*
Y3800000D01*
X4880000Y3770000D01*
X4820000D01*
X4795000Y3745000D01*
Y3680000D01*
X4832500Y3642500D01*
X5097500D01*
X5187500Y3732500D01*
Y3885000D01*
X5177500Y3895000D01*
Y3895000D01*
D02*
G37*
G36*
X2215000Y4290780D02*
Y4290000D01*
X2202500D01*
X2202500Y3725000D01*
Y3724364D01*
X2216940Y3710012D01*
X2217485Y3710015D01*
X2442500Y3485000D01*
X2442500Y3102500D01*
X2482500Y3062500D01*
X2542500Y3062500D01*
X2577500Y3097500D01*
Y3185000D01*
X2622500Y3230000D01*
X3105000D01*
X3125000Y3210000D01*
Y3080000D01*
Y2815000D01*
X3000000Y2690000D01*
X2847500D01*
Y2282500D01*
X2835000Y2270000D01*
Y2240718D01*
X2834657Y2238994D01*
Y2187391D01*
X2795109Y2147843D01*
X2142500D01*
X2135672Y2146485D01*
X2129883Y2142617D01*
X2092383Y2105117D01*
X2088515Y2099328D01*
X2087157Y2092500D01*
Y1960000D01*
X2059095D01*
Y1908544D01*
Y1896456D01*
Y1848406D01*
Y1756594D01*
Y1744811D01*
X2150905D01*
Y1756594D01*
Y1848406D01*
Y1960000D01*
X2122843D01*
Y2085109D01*
X2149891Y2112157D01*
X2251924D01*
X2232383Y2092617D01*
X2228515Y2086828D01*
X2227157Y2080000D01*
Y1957500D01*
X2199095D01*
Y1906044D01*
Y1893956D01*
Y1845906D01*
Y1754094D01*
Y1742311D01*
X2227101D01*
Y1232899D01*
X2199095D01*
Y1087500D01*
X2290905D01*
Y1225000D01*
Y1232899D01*
X2262899D01*
Y1742311D01*
X2290905D01*
Y1754094D01*
Y1845906D01*
Y1957500D01*
X2262843D01*
Y2072609D01*
X2277391Y2087157D01*
X2832500D01*
X2839328Y2088515D01*
X2845117Y2092383D01*
X2900000Y2147266D01*
X2902617Y2149883D01*
X2906485Y2155672D01*
X2907843Y2162500D01*
X2907843Y2162501D01*
Y2165343D01*
Y2214104D01*
X2945896Y2252157D01*
X3557500D01*
X3564328Y2253515D01*
X3570117Y2257383D01*
X3617734Y2305000D01*
X3650000D01*
X3905000Y2560000D01*
Y3024999D01*
X4274451Y3025000D01*
Y2478049D01*
Y2372500D01*
X4375000D01*
Y2715000D01*
X4410000Y2750000D01*
X4777500D01*
Y2935000D01*
Y2957500D01*
Y3207500D01*
X4527500Y3207500D01*
X4425000Y3310000D01*
X4400000D01*
X4335000Y3245000D01*
X4152500Y3245000D01*
Y3392500D01*
X4167500Y3407500D01*
X4657500D01*
X4687500Y3377500D01*
X4767500D01*
X4795000Y3405000D01*
Y3450000D01*
X4730000Y3515000D01*
Y3810000D01*
Y3895000D01*
X4645000Y3980000D01*
X3190000D01*
X3125000Y3915000D01*
Y3655000D01*
Y3440000D01*
X3110000Y3425000D01*
X3070000D01*
X2800000Y3695000D01*
X2765000Y3730000D01*
Y3945000D01*
X2740000Y3970000D01*
X2700188Y4009812D01*
X2695683Y4015683D01*
X2439463Y4271904D01*
X2433592Y4276408D01*
X2430000Y4280000D01*
Y4290000D01*
X2215780D01*
X2215000Y4290780D01*
D02*
G37*
G36*
X6185000Y4025000D02*
X5415000D01*
X5305000Y3915000D01*
Y3747500D01*
X5652500Y3400000D01*
Y3280000D01*
X5622500Y3250000D01*
X5260000Y3250000D01*
X5135000Y3125000D01*
X4875000D01*
X4860000Y3110000D01*
Y3012500D01*
X4975000D01*
X5007500Y2980000D01*
X5145000D01*
X5317500Y3152500D01*
X5567500D01*
X5602500Y3117500D01*
Y2977500D01*
X5575000Y2950000D01*
X5362500D01*
X5325000Y2912500D01*
Y2782500D01*
X5357500Y2750000D01*
X5525000D01*
X5822500Y2452500D01*
Y2297500D01*
X5287500D01*
Y2090000D01*
X5887500D01*
X5960000Y2017500D01*
X6187500D01*
X6255000Y2085000D01*
Y2450000D01*
X6240000Y2465000D01*
X6240000Y2540000D01*
X6160000Y2620000D01*
X6075000Y2705000D01*
X6075000Y3032500D01*
X5992500Y3115000D01*
X5955000Y3152500D01*
Y3272500D01*
X5990000Y3307500D01*
X6395000D01*
X6430000Y3342500D01*
Y3505000D01*
X6430000Y3770000D01*
X6355000Y3845000D01*
X6265000D01*
X6220000Y3890000D01*
Y3990000D01*
X6185000Y4025000D01*
D02*
G37*
G36*
X2132500Y3265000D02*
X1990000D01*
X1945000Y3220000D01*
X1650000Y3220000D01*
X1615000Y3185000D01*
Y2490000D01*
X1945000D01*
X1950000Y2485000D01*
Y2475000D01*
X1945000Y2470000D01*
X1615000D01*
Y2280000D01*
X1630000Y2265000D01*
X1670000D01*
X1680000Y2275000D01*
Y2285000D01*
X1685000Y2290000D01*
X1945000D01*
X1945000Y2290000D01*
X2060000D01*
X2060000Y2290000D01*
X2627500D01*
X2647500Y2270000D01*
X2782500D01*
X2795000Y2282500D01*
Y2636535D01*
X2725000D01*
Y2668032D01*
X2795000D01*
Y2975000D01*
X2420000Y2975000D01*
X2132500Y3262500D01*
Y3265000D01*
D02*
G37*
G36*
X2900000Y1977500D02*
X2797500D01*
X2775000Y1955000D01*
Y1845000D01*
X2830000Y1790000D01*
X2895000D01*
X2900000Y1795000D01*
Y1977500D01*
D02*
G37*
G36*
X1240000Y1741739D02*
Y1710000D01*
X1271739D01*
X1269982Y1716561D01*
X1264333Y1726345D01*
X1256345Y1734333D01*
X1246561Y1739982D01*
X1240000Y1741739D01*
D02*
G37*
G36*
X1220000D02*
X1213439Y1739982D01*
X1203655Y1734333D01*
X1195667Y1726345D01*
X1190018Y1716561D01*
X1188261Y1710000D01*
X1220000D01*
Y1741739D01*
D02*
G37*
G36*
X1271739Y1690000D02*
X1240000D01*
Y1658261D01*
X1246561Y1660018D01*
X1256345Y1665667D01*
X1264333Y1673655D01*
X1269982Y1683439D01*
X1271739Y1690000D01*
D02*
G37*
G36*
X1220000D02*
X1188261D01*
X1190018Y1683439D01*
X1195667Y1673655D01*
X1203655Y1665667D01*
X1213439Y1660018D01*
X1220000Y1658261D01*
Y1690000D01*
D02*
G37*
G36*
X2735000Y1845000D02*
X2615000D01*
X2535000Y1765000D01*
Y1645000D01*
X2615000Y1565000D01*
X2735000D01*
X2815000Y1645000D01*
X2815000Y1765000D01*
X2735000Y1845000D01*
D02*
G37*
G36*
X4495000Y1995000D02*
X4370000D01*
X4315000Y1940000D01*
Y1840000D01*
X4250000Y1775000D01*
Y1655000D01*
X4355000Y1550000D01*
X4510000D01*
X4565000Y1605000D01*
Y1925000D01*
X4495000Y1995000D01*
D02*
G37*
G36*
X5917500Y1637500D02*
X5287500D01*
Y1552500D01*
X5320000Y1520000D01*
Y1519999D01*
X5895000Y1520000D01*
X5917500Y1542500D01*
Y1637500D01*
D02*
G37*
G36*
X4153540Y1522899D02*
X3030000D01*
X3023150Y1521536D01*
X3017343Y1517656D01*
X2917586Y1417899D01*
X2642500D01*
Y1445906D01*
X2427311D01*
Y1410000D01*
Y1392500D01*
Y1354094D01*
X2642500D01*
Y1382101D01*
X2925000D01*
X2931850Y1383464D01*
X2937656Y1387344D01*
X3037414Y1487101D01*
X4152093D01*
X4247662Y1391532D01*
X4248593Y1390910D01*
X4254356Y1386488D01*
X4262131Y1383268D01*
X4269462Y1382303D01*
X4270475Y1382101D01*
D01*
X4497543D01*
X4500839Y1378806D01*
X4510027Y1375000D01*
X4519973D01*
X4529161Y1378806D01*
X4536194Y1385839D01*
X4540000Y1395027D01*
Y1404973D01*
X4536194Y1414161D01*
X4532678Y1417678D01*
X4529161Y1421194D01*
X4519973Y1425000D01*
X4510027D01*
X4500839Y1421194D01*
X4497543Y1417899D01*
X4271921D01*
X4176351Y1513468D01*
X4176304Y1513500D01*
D01*
X4175422Y1514089D01*
X4169658Y1518512D01*
X4161883Y1521732D01*
X4154552Y1522697D01*
X4153540Y1522899D01*
D02*
G37*
G36*
X3471035Y1336595D02*
X3462522Y1335474D01*
X3454589Y1332188D01*
X3447777Y1326961D01*
X3442550Y1320149D01*
X3439264Y1312216D01*
X3438972Y1310000D01*
X3436530D01*
X3434073Y1313203D01*
X3427261Y1318430D01*
X3419328Y1321716D01*
X3411744Y1322714D01*
X3410815Y1322899D01*
X3040000D01*
X3033150Y1321536D01*
X3027344Y1317656D01*
X2942586Y1232899D01*
X2642500D01*
Y1260906D01*
X2427311D01*
Y1225000D01*
Y1207311D01*
Y1169094D01*
X2642500D01*
Y1197101D01*
X2950000D01*
X2956850Y1198464D01*
X2962656Y1202344D01*
X3047414Y1287101D01*
X3407971D01*
Y1271323D01*
X3408156Y1270394D01*
X3409154Y1262810D01*
X3412440Y1254877D01*
X3417667Y1248065D01*
X3424479Y1242838D01*
X3432412Y1239552D01*
X3440925Y1238431D01*
X3449438Y1239552D01*
X3457371Y1242838D01*
X3464183Y1248065D01*
X3469410Y1254877D01*
X3471035Y1258801D01*
X3472660Y1254877D01*
X3477887Y1248065D01*
X3484699Y1242838D01*
X3492632Y1239552D01*
X3501145Y1238431D01*
X3509658Y1239552D01*
X3517591Y1242838D01*
X3524403Y1248065D01*
X3529630Y1254877D01*
X3532916Y1262810D01*
X3533914Y1270394D01*
X3534099Y1271323D01*
Y1287101D01*
X4157586D01*
X4234944Y1209743D01*
X4242344Y1202344D01*
X4248150Y1198464D01*
X4255000Y1197101D01*
X4687543D01*
X4690839Y1193806D01*
X4700027Y1190000D01*
X4709973D01*
X4719161Y1193806D01*
X4726194Y1200839D01*
X4730000Y1210027D01*
Y1219973D01*
Y1219973D01*
X4727063Y1227063D01*
X4726194Y1229161D01*
X4719161Y1236194D01*
X4715295Y1237795D01*
X4709973Y1240000D01*
X4700027D01*
X4690839Y1236194D01*
X4687543Y1232899D01*
X4262414D01*
X4177656Y1317656D01*
X4171850Y1321536D01*
X4165000Y1322899D01*
X3531255D01*
X3530326Y1322714D01*
X3522742Y1321716D01*
X3514809Y1318430D01*
X3507997Y1313203D01*
X3505540Y1310000D01*
X3503097D01*
X3502806Y1312216D01*
X3499520Y1320149D01*
X3494293Y1326961D01*
X3487481Y1332188D01*
X3479548Y1335474D01*
X3471035Y1336595D01*
D02*
G37*
G36*
X5565000Y1251739D02*
Y1220000D01*
X5596739D01*
X5594981Y1226561D01*
X5589333Y1236345D01*
X5581345Y1244333D01*
X5571561Y1249982D01*
X5565000Y1251739D01*
D02*
G37*
G36*
X5545000D02*
X5538439Y1249982D01*
X5528655Y1244333D01*
X5520667Y1236345D01*
X5515019Y1226561D01*
X5513261Y1220000D01*
X5545000D01*
Y1251739D01*
D02*
G37*
G36*
X5596739Y1200000D02*
X5565000D01*
Y1168261D01*
X5571561Y1170018D01*
X5581345Y1175667D01*
X5589333Y1183655D01*
X5594981Y1193439D01*
X5596739Y1200000D01*
D02*
G37*
G36*
X5545000D02*
X5513261D01*
X5515019Y1193439D01*
X5520667Y1183655D01*
X5528655Y1175667D01*
X5538439Y1170018D01*
X5545000Y1168261D01*
Y1200000D01*
D02*
G37*
%LPD*%
G36*
X4712500Y3875000D02*
Y3555000D01*
X4585000Y3427500D01*
X4155000D01*
X4012500Y3284999D01*
X3222500Y3285000D01*
X3160000Y3347500D01*
Y3887500D01*
X3192500Y3920000D01*
X4667500D01*
X4712500Y3875000D01*
D02*
G37*
G36*
X3875000Y3142500D02*
Y3042500D01*
X3525000D01*
X3500000Y3067500D01*
X3451248D01*
X3425000Y3041252D01*
X3425000Y2377500D01*
X3397500Y2350000D01*
X2937500D01*
X2917500Y2370000D01*
Y2635000D01*
X2955000Y2672500D01*
X3005000D01*
X3057500Y2725000D01*
X3135000Y2802500D01*
X3135000Y3110000D01*
X3135000Y3110000D01*
Y3110000D01*
X3187500Y3162500D01*
X3855000D01*
X3875000Y3142500D01*
D02*
G37*
G36*
X4397500Y3130000D02*
X4660000D01*
X4762500Y3027500D01*
Y2873177D01*
X4756345Y2879333D01*
X4746561Y2884981D01*
X4740000Y2886740D01*
Y2845000D01*
Y2803260D01*
X4746561Y2805019D01*
X4756345Y2810667D01*
X4762500Y2816823D01*
Y2782500D01*
X4742500Y2762500D01*
X4400000D01*
X4362500Y2725000D01*
Y2407500D01*
X4347500Y2392500D01*
X4300000D01*
X4285000Y2407500D01*
Y3027500D01*
X4270000Y3042500D01*
X3972500Y3042500D01*
X3962500Y3052500D01*
Y3147500D01*
X3972500Y3157500D01*
X4370000Y3157500D01*
X4397500Y3130000D01*
D02*
G37*
G36*
X3515000Y3017500D02*
Y2580000D01*
X3565000Y2530000D01*
X3565000Y2467500D01*
X3542500Y2445000D01*
X3457500D01*
X3435000Y2467500D01*
Y3025000D01*
X3460000Y3050000D01*
X3482500D01*
X3515000Y3017500D01*
D02*
G37*
G36*
X2249625Y1769163D02*
X2249190Y1769010D01*
X2248807Y1768755D01*
X2248475Y1768397D01*
X2248194Y1767937D01*
X2247964Y1767375D01*
X2247785Y1766711D01*
X2247657Y1765944D01*
X2247581Y1765075D01*
X2247555Y1764104D01*
X2242445D01*
X2242419Y1765075D01*
X2242343Y1765944D01*
X2242215Y1766711D01*
X2242036Y1767375D01*
X2241806Y1767937D01*
X2241525Y1768397D01*
X2241193Y1768755D01*
X2240810Y1769010D01*
X2240375Y1769163D01*
X2239890Y1769215D01*
X2250110D01*
X2249625Y1769163D01*
D02*
G37*
%LPC*%
G36*
X4655000Y3891740D02*
Y3860000D01*
X4686739D01*
X4684981Y3866561D01*
X4679333Y3876345D01*
X4671345Y3884333D01*
X4661561Y3889981D01*
X4655000Y3891740D01*
D02*
G37*
G36*
X4635000D02*
X4628439Y3889981D01*
X4618655Y3884333D01*
X4610667Y3876345D01*
X4605019Y3866561D01*
X4603261Y3860000D01*
X4635000D01*
Y3891740D01*
D02*
G37*
G36*
X4686739Y3840000D02*
X4655000D01*
Y3808260D01*
X4661561Y3810019D01*
X4671345Y3815667D01*
X4679333Y3823655D01*
X4684981Y3833439D01*
X4686739Y3840000D01*
D02*
G37*
G36*
X4635000D02*
X4603261D01*
X4605019Y3833439D01*
X4610667Y3823655D01*
X4618655Y3815667D01*
X4628439Y3810019D01*
X4635000Y3808260D01*
Y3840000D01*
D02*
G37*
G36*
X3055285Y2569000D02*
X3049715D01*
X3044570Y2566869D01*
X3043916Y2566215D01*
X3031084D01*
X3030430Y2566869D01*
X3025285Y2569000D01*
X3019715D01*
X3014570Y2566869D01*
X3010631Y2562930D01*
X3008500Y2557785D01*
Y2552215D01*
X3010631Y2547070D01*
X3011285Y2546416D01*
Y2533584D01*
X3010631Y2532930D01*
X3008500Y2527785D01*
Y2522215D01*
X3010631Y2517070D01*
X3014570Y2513131D01*
X3019715Y2511000D01*
X3025285D01*
X3030430Y2513131D01*
X3031084Y2513785D01*
X3043916D01*
X3044570Y2513131D01*
X3049715Y2511000D01*
X3055285D01*
X3060430Y2513131D01*
X3064369Y2517070D01*
X3066500Y2522215D01*
Y2527785D01*
X3064369Y2532930D01*
X3063715Y2533584D01*
Y2546416D01*
X3064369Y2547070D01*
X3066500Y2552215D01*
Y2557785D01*
X3064369Y2562930D01*
X3060430Y2566869D01*
X3055285Y2569000D01*
D02*
G37*
%LPD*%
G36*
X3052500Y2520084D02*
X3017584D01*
Y2559916D01*
X3052500D01*
X3052500Y2520084D01*
D02*
G37*
%LPC*%
G36*
X4720000Y2886740D02*
X4713439Y2884981D01*
X4703655Y2879333D01*
X4695667Y2871345D01*
X4690019Y2861561D01*
X4688261Y2855000D01*
X4720000D01*
Y2886740D01*
D02*
G37*
G36*
Y2835000D02*
X4688261D01*
X4690019Y2828439D01*
X4695667Y2818655D01*
X4703655Y2810667D01*
X4713439Y2805019D01*
X4720000Y2803260D01*
Y2835000D01*
D02*
G37*
%LPD*%
G36*
X6180000Y3975000D02*
Y3865000D01*
X6235000Y3810000D01*
X6350000Y3810000D01*
X6405000Y3755000D01*
X6405000Y3382500D01*
X6360000Y3337500D01*
X5920000D01*
Y3145000D01*
X6050000Y3015000D01*
Y2767500D01*
Y2705000D01*
X6100000Y2655000D01*
Y2475000D01*
X6095000Y2470000D01*
X6040000D01*
X5780000Y2730000D01*
D01*
X5680000Y2830000D01*
Y3150000D01*
X5680000Y3150000D01*
X5680000Y3415000D01*
X5612500Y3482500D01*
X5387500Y3707500D01*
X5345000Y3750000D01*
X5345000Y3890000D01*
X5365000Y3910000D01*
X5455000Y4000000D01*
X6155000D01*
X6180000Y3975000D01*
D02*
G37*
G36*
X6040000Y2435000D02*
X6105000D01*
X6150000Y2480000D01*
Y2555000D01*
X6190000D01*
Y2480000D01*
X6235000Y2435000D01*
Y2087500D01*
X6192500Y2045000D01*
X5962500D01*
X5920000Y2087500D01*
X5920000Y2420000D01*
X5545000Y2795000D01*
X5380000D01*
X5345000Y2830000D01*
Y2890000D01*
X5380000Y2925000D01*
X5550000D01*
X6040000Y2435000D01*
D02*
G37*
G36*
X1950000Y3185000D02*
Y3175000D01*
X1945000Y3170000D01*
X1685000D01*
X1680000Y3175000D01*
Y3185000D01*
X1685000Y3190000D01*
X1945000D01*
X1950000Y3185000D01*
D02*
G37*
G36*
X2032411Y3159625D02*
X2032565Y3159190D01*
X2032820Y3158807D01*
X2033178Y3158475D01*
X2033638Y3158194D01*
X2034200Y3157964D01*
X2034864Y3157785D01*
X2035631Y3157657D01*
X2036499Y3157581D01*
X2037470Y3157555D01*
Y3152445D01*
X2036499Y3152419D01*
X2035631Y3152343D01*
X2034864Y3152215D01*
X2034200Y3152036D01*
X2033638Y3151806D01*
X2033178Y3151525D01*
X2032820Y3151193D01*
X2032565Y3150810D01*
X2032411Y3150375D01*
X2032360Y3149890D01*
Y3160110D01*
X2032411Y3159625D01*
D02*
G37*
G36*
X1967640Y3149890D02*
X1967589Y3150375D01*
X1967435Y3150810D01*
X1967180Y3151193D01*
X1966822Y3151525D01*
X1966362Y3151806D01*
X1965800Y3152036D01*
X1965136Y3152215D01*
X1964369Y3152343D01*
X1963501Y3152419D01*
X1962530Y3152445D01*
Y3157555D01*
X1963501Y3157581D01*
X1964369Y3157657D01*
X1965136Y3157785D01*
X1965800Y3157964D01*
X1966362Y3158194D01*
X1966822Y3158475D01*
X1967180Y3158807D01*
X1967435Y3159190D01*
X1967589Y3159625D01*
X1967640Y3160110D01*
Y3149890D01*
D02*
G37*
G36*
X1950000Y3135000D02*
Y3125000D01*
X1945000Y3120000D01*
X1685000D01*
X1680000Y3125000D01*
Y3135000D01*
X1685000Y3140000D01*
X1945000D01*
X1950000Y3135000D01*
D02*
G37*
G36*
Y3085000D02*
Y3075000D01*
X1945000Y3070000D01*
X1685000D01*
X1680000Y3075000D01*
Y3085000D01*
X1685000Y3090000D01*
X1945000D01*
X1950000Y3085000D01*
D02*
G37*
G36*
X2032411Y3059625D02*
X2032565Y3059190D01*
X2032820Y3058807D01*
X2033178Y3058475D01*
X2033638Y3058194D01*
X2034200Y3057964D01*
X2034864Y3057785D01*
X2035631Y3057657D01*
X2036499Y3057581D01*
X2037470Y3057555D01*
Y3052445D01*
X2036499Y3052419D01*
X2035631Y3052343D01*
X2034864Y3052215D01*
X2034200Y3052036D01*
X2033638Y3051806D01*
X2033178Y3051525D01*
X2032820Y3051193D01*
X2032565Y3050810D01*
X2032411Y3050375D01*
X2032360Y3049890D01*
Y3060110D01*
X2032411Y3059625D01*
D02*
G37*
G36*
X1967640Y3049890D02*
X1967589Y3050375D01*
X1967435Y3050810D01*
X1967180Y3051193D01*
X1966822Y3051525D01*
X1966362Y3051806D01*
X1965800Y3052036D01*
X1965136Y3052215D01*
X1964369Y3052343D01*
X1963501Y3052419D01*
X1962530Y3052445D01*
Y3057555D01*
X1963501Y3057581D01*
X1964369Y3057657D01*
X1965136Y3057785D01*
X1965800Y3057964D01*
X1966362Y3058194D01*
X1966822Y3058475D01*
X1967180Y3058807D01*
X1967435Y3059190D01*
X1967589Y3059625D01*
X1967640Y3060110D01*
Y3049890D01*
D02*
G37*
G36*
X1950000Y3035000D02*
Y3025000D01*
X1945000Y3020000D01*
X1685000D01*
X1680000Y3025000D01*
Y3035000D01*
X1685000Y3040000D01*
X1945000D01*
X1950000Y3035000D01*
D02*
G37*
G36*
Y2985000D02*
Y2975000D01*
X1945000Y2970000D01*
X1685000D01*
X1680000Y2975000D01*
Y2985000D01*
X1685000Y2990000D01*
X1945000D01*
X1950000Y2985000D01*
D02*
G37*
G36*
X2032411Y2959625D02*
X2032565Y2959190D01*
X2032820Y2958807D01*
X2033178Y2958475D01*
X2033638Y2958194D01*
X2034200Y2957964D01*
X2034864Y2957785D01*
X2035631Y2957657D01*
X2036499Y2957581D01*
X2037470Y2957555D01*
Y2952445D01*
X2036499Y2952419D01*
X2035631Y2952343D01*
X2034864Y2952215D01*
X2034200Y2952036D01*
X2033638Y2951806D01*
X2033178Y2951525D01*
X2032820Y2951193D01*
X2032565Y2950810D01*
X2032411Y2950375D01*
X2032360Y2949890D01*
Y2960110D01*
X2032411Y2959625D01*
D02*
G37*
G36*
X1967640Y2949890D02*
X1967589Y2950375D01*
X1967435Y2950810D01*
X1967180Y2951193D01*
X1966822Y2951525D01*
X1966362Y2951806D01*
X1965800Y2952036D01*
X1965136Y2952215D01*
X1964369Y2952343D01*
X1963501Y2952419D01*
X1962530Y2952445D01*
Y2957555D01*
X1963501Y2957581D01*
X1964369Y2957657D01*
X1965136Y2957785D01*
X1965800Y2957964D01*
X1966362Y2958194D01*
X1966822Y2958475D01*
X1967180Y2958807D01*
X1967435Y2959190D01*
X1967589Y2959625D01*
X1967640Y2960110D01*
Y2949890D01*
D02*
G37*
G36*
X1950000Y2935000D02*
Y2925000D01*
X1945000Y2920000D01*
X1685000D01*
X1680000Y2925000D01*
Y2935000D01*
X1685000Y2940000D01*
X1945000D01*
X1950000Y2935000D01*
D02*
G37*
G36*
Y2885000D02*
Y2875000D01*
X1945000Y2870000D01*
X1685000D01*
X1680000Y2875000D01*
Y2885000D01*
X1685000Y2890000D01*
X1945000D01*
X1950000Y2885000D01*
D02*
G37*
G36*
X2032411Y2859625D02*
X2032565Y2859190D01*
X2032820Y2858807D01*
X2033178Y2858475D01*
X2033638Y2858194D01*
X2034200Y2857964D01*
X2034864Y2857785D01*
X2035631Y2857657D01*
X2036499Y2857581D01*
X2037470Y2857555D01*
Y2852445D01*
X2036499Y2852419D01*
X2035631Y2852343D01*
X2034864Y2852215D01*
X2034200Y2852036D01*
X2033638Y2851806D01*
X2033178Y2851525D01*
X2032820Y2851193D01*
X2032565Y2850810D01*
X2032411Y2850375D01*
X2032360Y2849890D01*
Y2860110D01*
X2032411Y2859625D01*
D02*
G37*
G36*
X1967640Y2849890D02*
X1967589Y2850375D01*
X1967435Y2850810D01*
X1967180Y2851193D01*
X1966822Y2851525D01*
X1966362Y2851806D01*
X1965800Y2852036D01*
X1965136Y2852215D01*
X1964369Y2852343D01*
X1963501Y2852419D01*
X1962530Y2852445D01*
Y2857555D01*
X1963501Y2857581D01*
X1964369Y2857657D01*
X1965136Y2857785D01*
X1965800Y2857964D01*
X1966362Y2858194D01*
X1966822Y2858475D01*
X1967180Y2858807D01*
X1967435Y2859190D01*
X1967589Y2859625D01*
X1967640Y2860110D01*
Y2849890D01*
D02*
G37*
G36*
X1950000Y2835000D02*
Y2825000D01*
X1945000Y2820000D01*
X1685000D01*
X1680000Y2825000D01*
Y2835000D01*
X1685000Y2840000D01*
X1945000D01*
X1950000Y2835000D01*
D02*
G37*
G36*
Y2785000D02*
Y2775000D01*
X1945000Y2770000D01*
X1685000D01*
X1680000Y2775000D01*
Y2785000D01*
X1685000Y2790000D01*
X1945000D01*
X1950000Y2785000D01*
D02*
G37*
G36*
X2032411Y2759625D02*
X2032565Y2759190D01*
X2032820Y2758807D01*
X2033178Y2758475D01*
X2033638Y2758194D01*
X2034200Y2757964D01*
X2034864Y2757785D01*
X2035631Y2757657D01*
X2036499Y2757581D01*
X2037470Y2757555D01*
Y2752445D01*
X2036499Y2752419D01*
X2035631Y2752343D01*
X2034864Y2752215D01*
X2034200Y2752036D01*
X2033638Y2751806D01*
X2033178Y2751525D01*
X2032820Y2751193D01*
X2032565Y2750810D01*
X2032411Y2750375D01*
X2032360Y2749890D01*
Y2760110D01*
X2032411Y2759625D01*
D02*
G37*
G36*
X1967640Y2749890D02*
X1967589Y2750375D01*
X1967435Y2750810D01*
X1967180Y2751193D01*
X1966822Y2751525D01*
X1966362Y2751806D01*
X1965800Y2752036D01*
X1965136Y2752215D01*
X1964369Y2752343D01*
X1963501Y2752419D01*
X1962530Y2752445D01*
Y2757555D01*
X1963501Y2757581D01*
X1964369Y2757657D01*
X1965136Y2757785D01*
X1965800Y2757964D01*
X1966362Y2758194D01*
X1966822Y2758475D01*
X1967180Y2758807D01*
X1967435Y2759190D01*
X1967589Y2759625D01*
X1967640Y2760110D01*
Y2749890D01*
D02*
G37*
G36*
X1950000Y2735000D02*
Y2725000D01*
X1945000Y2720000D01*
X1685000D01*
X1680000Y2725000D01*
Y2735000D01*
X1685000Y2740000D01*
X1945000D01*
X1950000Y2735000D01*
D02*
G37*
G36*
Y2685000D02*
Y2675000D01*
X1945000Y2670000D01*
X1685000D01*
X1680000Y2675000D01*
Y2685000D01*
X1685000Y2690000D01*
X1945000D01*
X1950000Y2685000D01*
D02*
G37*
G36*
Y2635000D02*
Y2625000D01*
X1945000Y2620000D01*
X1685000D01*
X1680000Y2625000D01*
Y2635000D01*
X1685000Y2640000D01*
X1945000D01*
X1950000Y2635000D01*
D02*
G37*
G36*
Y2585000D02*
Y2575000D01*
X1945000Y2570000D01*
X1685000D01*
X1680000Y2575000D01*
Y2585000D01*
X1685000Y2590000D01*
X1945000D01*
X1950000Y2585000D01*
D02*
G37*
G36*
X2032411Y2559625D02*
X2032565Y2559190D01*
X2032820Y2558807D01*
X2033178Y2558475D01*
X2033638Y2558194D01*
X2034200Y2557964D01*
X2034864Y2557785D01*
X2035631Y2557657D01*
X2036499Y2557581D01*
X2037470Y2557555D01*
Y2552445D01*
X2036499Y2552419D01*
X2035631Y2552343D01*
X2034864Y2552215D01*
X2034200Y2552036D01*
X2033638Y2551806D01*
X2033178Y2551525D01*
X2032820Y2551193D01*
X2032565Y2550810D01*
X2032411Y2550375D01*
X2032360Y2549890D01*
Y2560110D01*
X2032411Y2559625D01*
D02*
G37*
G36*
X1967640Y2549890D02*
X1967589Y2550375D01*
X1967435Y2550810D01*
X1967180Y2551193D01*
X1966822Y2551525D01*
X1966362Y2551806D01*
X1965800Y2552036D01*
X1965136Y2552215D01*
X1964369Y2552343D01*
X1963501Y2552419D01*
X1962530Y2552445D01*
Y2557555D01*
X1963501Y2557581D01*
X1964369Y2557657D01*
X1965136Y2557785D01*
X1965800Y2557964D01*
X1966362Y2558194D01*
X1966822Y2558475D01*
X1967180Y2558807D01*
X1967435Y2559190D01*
X1967589Y2559625D01*
X1967640Y2560110D01*
Y2549890D01*
D02*
G37*
G36*
X1950000Y2535000D02*
Y2525000D01*
X1945000Y2520000D01*
X1685000D01*
X1680000Y2525000D01*
Y2535000D01*
X1685000Y2540000D01*
X1945000D01*
X1950000Y2535000D01*
D02*
G37*
G36*
X2032411Y2459625D02*
X2032565Y2459190D01*
X2032820Y2458807D01*
X2033178Y2458475D01*
X2033638Y2458194D01*
X2034200Y2457964D01*
X2034864Y2457785D01*
X2035631Y2457657D01*
X2036499Y2457581D01*
X2037470Y2457555D01*
Y2452445D01*
X2036499Y2452419D01*
X2035631Y2452343D01*
X2034864Y2452215D01*
X2034200Y2452036D01*
X2033638Y2451806D01*
X2033178Y2451525D01*
X2032820Y2451193D01*
X2032565Y2450810D01*
X2032411Y2450375D01*
X2032360Y2449890D01*
Y2460110D01*
X2032411Y2459625D01*
D02*
G37*
G36*
X1967640Y2449890D02*
X1967589Y2450375D01*
X1967435Y2450810D01*
X1967180Y2451193D01*
X1966822Y2451525D01*
X1966362Y2451806D01*
X1965800Y2452036D01*
X1965136Y2452215D01*
X1964369Y2452343D01*
X1963501Y2452419D01*
X1962530Y2452445D01*
Y2457555D01*
X1963501Y2457581D01*
X1964369Y2457657D01*
X1965136Y2457785D01*
X1965800Y2457964D01*
X1966362Y2458194D01*
X1966822Y2458475D01*
X1967180Y2458807D01*
X1967435Y2459190D01*
X1967589Y2459625D01*
X1967640Y2460110D01*
Y2449890D01*
D02*
G37*
G36*
X1950000Y2435000D02*
Y2425000D01*
X1945000Y2420000D01*
X1685000D01*
X1680000Y2425000D01*
Y2435000D01*
X1685000Y2440000D01*
X1945000D01*
X1950000Y2435000D01*
D02*
G37*
G36*
Y2385000D02*
Y2375000D01*
X1945000Y2370000D01*
X1685000D01*
X1680000Y2375000D01*
Y2385000D01*
X1685000Y2390000D01*
X1945000D01*
X1950000Y2385000D01*
D02*
G37*
G36*
X2032411Y2359625D02*
X2032565Y2359190D01*
X2032820Y2358807D01*
X2033178Y2358475D01*
X2033638Y2358194D01*
X2034200Y2357964D01*
X2034864Y2357785D01*
X2035631Y2357657D01*
X2036499Y2357581D01*
X2037470Y2357555D01*
Y2352445D01*
X2036499Y2352419D01*
X2035631Y2352343D01*
X2034864Y2352215D01*
X2034200Y2352036D01*
X2033638Y2351806D01*
X2033178Y2351525D01*
X2032820Y2351193D01*
X2032565Y2350810D01*
X2032411Y2350375D01*
X2032360Y2349890D01*
Y2360110D01*
X2032411Y2359625D01*
D02*
G37*
G36*
X1967640Y2349890D02*
X1967589Y2350375D01*
X1967435Y2350810D01*
X1967180Y2351193D01*
X1966822Y2351525D01*
X1966362Y2351806D01*
X1965800Y2352036D01*
X1965136Y2352215D01*
X1964369Y2352343D01*
X1963501Y2352419D01*
X1962530Y2352445D01*
Y2357555D01*
X1963501Y2357581D01*
X1964369Y2357657D01*
X1965136Y2357785D01*
X1965800Y2357964D01*
X1966362Y2358194D01*
X1966822Y2358475D01*
X1967180Y2358807D01*
X1967435Y2359190D01*
X1967589Y2359625D01*
X1967640Y2360110D01*
Y2349890D01*
D02*
G37*
G36*
X1950000Y2335000D02*
Y2325000D01*
X1945000Y2320000D01*
X1685000D01*
X1680000Y2325000D01*
Y2335000D01*
X1685000Y2340000D01*
X1945000D01*
X1950000Y2335000D01*
D02*
G37*
D12*
X2765000Y2321575D02*
X2795000D01*
X2735000D02*
X2765000D01*
X2575197Y2353976D02*
X2691496D01*
X2702992Y2353583D02*
X2735000Y2321575D01*
X2691890Y2353583D02*
X2702992D01*
X2691496Y2353976D02*
X2691890Y2353583D01*
X2735000Y2480551D02*
Y2510551D01*
Y2447559D02*
Y2480551D01*
Y2510551D02*
X2765000D01*
X2795000D01*
X2735000Y2573543D02*
X2765000D01*
X2795000D01*
X2735000Y2636535D02*
X2765000D01*
X2795000D01*
X2575197Y2668032D02*
X2765000D01*
X2795000D01*
X2735000Y2731024D02*
X2765000D01*
X2795000D01*
X2735000Y2794016D02*
X2765000D01*
X2795000D01*
X2735000Y2857008D02*
X2765000D01*
X2795000D01*
X2765000Y2920000D02*
X2795000D01*
X2735000D02*
X2765000D01*
D18*
X2875896Y3203612D02*
X2876457Y3204173D01*
D24*
X2087500Y2355000D02*
D03*
X2087815Y2455000D02*
D03*
Y2555000D02*
D03*
Y2655000D02*
D03*
Y2755000D02*
D03*
Y2855000D02*
D03*
Y2955000D02*
D03*
Y3055000D02*
D03*
Y3155000D02*
D03*
X2715000Y1883523D02*
D03*
X2747500D02*
D03*
Y1946516D02*
D03*
X2715000D02*
D03*
X2747500Y1915020D02*
D03*
X2715000D02*
D03*
Y1978012D02*
D03*
X2747500D02*
D03*
X2780000D02*
D03*
X2715000Y2009508D02*
D03*
X2747500D02*
D03*
X2780000D02*
D03*
Y2041004D02*
D03*
Y2072500D02*
D03*
X2747500D02*
D03*
Y2041004D02*
D03*
X2786338Y2158583D02*
D03*
X2756338D02*
D03*
X2745669Y2183583D02*
D03*
X2775669D02*
D03*
X2786338Y2208583D02*
D03*
X2756338D02*
D03*
X2775669Y2233583D02*
D03*
X2745669D02*
D03*
X2765000Y2920000D02*
D03*
X2795000D02*
D03*
X4550000Y1970000D02*
D03*
Y2620000D02*
D03*
Y2490000D02*
D03*
Y2360000D02*
D03*
Y2230000D02*
D03*
Y2100000D02*
D03*
X5142500Y3570000D02*
D03*
X5272500D02*
D03*
X5207500Y3505000D02*
D03*
X5077500D02*
D03*
X5467500D02*
D03*
X5337500D02*
D03*
X5402500Y3570000D02*
D03*
Y3440000D02*
D03*
X5272500D02*
D03*
X5142500D02*
D03*
X5077500Y3375000D02*
D03*
Y3245000D02*
D03*
X5142500Y3180000D02*
D03*
X5207500Y3245000D02*
D03*
X5142500Y3310000D02*
D03*
X5207500Y3375000D02*
D03*
X5532500Y3310000D02*
D03*
Y3440000D02*
D03*
X5467500Y3375000D02*
D03*
X5337500D02*
D03*
X5402500Y3310000D02*
D03*
X5272500D02*
D03*
X3845000Y2557500D02*
D03*
X4660000Y3585000D02*
D03*
X4540000Y3465000D02*
D03*
X2715000Y2041004D02*
D03*
Y2072500D02*
D03*
X2715669Y2163583D02*
D03*
Y2196083D02*
D03*
Y2233583D02*
D03*
X2980000Y2150000D02*
D03*
Y2242500D02*
D03*
X3315000Y2150000D02*
D03*
X3410000Y2242500D02*
D03*
X3315000D02*
D03*
X3217000D02*
D03*
X3117500D02*
D03*
X3045000D02*
D03*
X3400000Y2445000D02*
D03*
Y2565000D02*
D03*
Y2685000D02*
D03*
Y2805000D02*
D03*
Y2925000D02*
D03*
Y3045000D02*
D03*
X3280000D02*
D03*
Y2925000D02*
D03*
Y2805000D02*
D03*
Y2685000D02*
D03*
Y2565000D02*
D03*
Y2445000D02*
D03*
X3340000Y2385000D02*
D03*
Y2505000D02*
D03*
Y2625000D02*
D03*
Y2745000D02*
D03*
Y2865000D02*
D03*
Y2985000D02*
D03*
X3700000Y3105000D02*
D03*
X3580000D02*
D03*
X3460000D02*
D03*
X3340000D02*
D03*
X3947461Y3029173D02*
D03*
Y2802402D02*
D03*
X2040000Y2175000D02*
D03*
X2160000D02*
D03*
X2280000D02*
D03*
X2400000D02*
D03*
X2520000D02*
D03*
X2175000Y2085000D02*
D03*
X2520000Y2275000D02*
D03*
X2400000D02*
D03*
X2280000D02*
D03*
X2160000D02*
D03*
X2040000D02*
D03*
X2795000Y2258583D02*
D03*
X2735000Y2321575D02*
D03*
X2691890Y2353583D02*
D03*
X3217000Y2150000D02*
D03*
X3492500Y2152500D02*
D03*
X3567500Y2157500D02*
D03*
X3410000Y2150000D02*
D03*
X3117500D02*
D03*
X3007500Y2167500D02*
D03*
X2555000Y2010000D02*
D03*
X2315000D02*
D03*
X2435000D02*
D03*
X3045000Y2150000D02*
D03*
X4660000Y3705000D02*
D03*
X4540000Y3585000D02*
D03*
X4420000Y3465000D02*
D03*
Y3585000D02*
D03*
X4300000Y3465000D02*
D03*
Y3585000D02*
D03*
X4180000Y3465000D02*
D03*
Y3585000D02*
D03*
X4060000D02*
D03*
Y3345000D02*
D03*
Y3465000D02*
D03*
X3940000Y3585000D02*
D03*
Y3345000D02*
D03*
Y3465000D02*
D03*
X3820000Y3585000D02*
D03*
Y3345000D02*
D03*
Y3465000D02*
D03*
X3700000Y3585000D02*
D03*
Y3345000D02*
D03*
Y3465000D02*
D03*
X3580000D02*
D03*
Y3345000D02*
D03*
X3460000D02*
D03*
X3775000Y2615000D02*
D03*
X4266693Y3015394D02*
D03*
X6357535Y3937583D02*
D03*
X6250000Y3935000D02*
D03*
X6150000Y3270000D02*
D03*
X6270000D02*
D03*
X6390000D02*
D03*
Y3150000D02*
D03*
X6270000D02*
D03*
Y3030000D02*
D03*
X6390000D02*
D03*
Y2790000D02*
D03*
X6270000D02*
D03*
X6150000D02*
D03*
X6390000Y2670000D02*
D03*
X6270000D02*
D03*
X6150000D02*
D03*
X6270000Y2550000D02*
D03*
X6390000D02*
D03*
Y2430000D02*
D03*
Y2310000D02*
D03*
Y2190000D02*
D03*
Y2070000D02*
D03*
Y1950000D02*
D03*
Y1830000D02*
D03*
Y1710000D02*
D03*
X6270000D02*
D03*
Y1590000D02*
D03*
X6150000D02*
D03*
Y1710000D02*
D03*
X6030000Y1590000D02*
D03*
X5955000Y1470000D02*
D03*
X5910000Y1350000D02*
D03*
X5790000Y1230000D02*
D03*
X5910000D02*
D03*
X5310000Y1350000D02*
D03*
Y1470000D02*
D03*
Y1230000D02*
D03*
X5430000D02*
D03*
X5310000Y1110000D02*
D03*
X5430000D02*
D03*
X5670000Y1230000D02*
D03*
Y1110000D02*
D03*
X5790000D02*
D03*
X5550000D02*
D03*
X1640000Y2130000D02*
D03*
X1800000D02*
D03*
Y2230000D02*
D03*
Y2330000D02*
D03*
Y2430000D02*
D03*
Y2530000D02*
D03*
Y2630000D02*
D03*
Y2730000D02*
D03*
Y2830000D02*
D03*
Y2930000D02*
D03*
Y3030000D02*
D03*
Y3130000D02*
D03*
X3010000Y2923976D02*
D03*
X2945000Y2986969D02*
D03*
X3075000Y2860984D02*
D03*
Y2986969D02*
D03*
X3100000Y3122992D02*
D03*
Y3195000D02*
D03*
Y3470000D02*
D03*
Y3590000D02*
D03*
Y3710000D02*
D03*
X2980000Y3590000D02*
D03*
X3100000Y3890000D02*
D03*
X3220000Y4190000D02*
D03*
Y4070000D02*
D03*
Y4430000D02*
D03*
X2240000Y3270000D02*
D03*
X2195000Y3650000D02*
D03*
X1955000Y3710000D02*
D03*
X2075000D02*
D03*
Y3830000D02*
D03*
Y3950000D02*
D03*
X1955000D02*
D03*
X2075000Y4070000D02*
D03*
X1955000D02*
D03*
Y4550000D02*
D03*
X2075000D02*
D03*
X1955000Y4430000D02*
D03*
X2075000D02*
D03*
X1955000Y4310000D02*
D03*
X2075000D02*
D03*
Y4190000D02*
D03*
X1955000D02*
D03*
X2075000Y4910000D02*
D03*
X1955000D02*
D03*
X2075000Y4790000D02*
D03*
X1955000D02*
D03*
X2075000Y4670000D02*
D03*
X1955000D02*
D03*
X2195000D02*
D03*
Y4790000D02*
D03*
Y4910000D02*
D03*
X2315000Y4670000D02*
D03*
Y4790000D02*
D03*
Y4910000D02*
D03*
X2675000D02*
D03*
Y4790000D02*
D03*
Y4670000D02*
D03*
X2555000Y4910000D02*
D03*
Y4790000D02*
D03*
Y4670000D02*
D03*
X2435000D02*
D03*
Y4790000D02*
D03*
Y4910000D02*
D03*
X2915000D02*
D03*
Y4790000D02*
D03*
Y4670000D02*
D03*
X2795000D02*
D03*
Y4790000D02*
D03*
Y4910000D02*
D03*
X3100000Y4670000D02*
D03*
X3220000D02*
D03*
Y4550000D02*
D03*
X3100000Y4910000D02*
D03*
X3220000D02*
D03*
X3100000Y4790000D02*
D03*
X3220000D02*
D03*
X3460000Y4910000D02*
D03*
Y4790000D02*
D03*
Y4670000D02*
D03*
X3580000D02*
D03*
Y4790000D02*
D03*
Y4910000D02*
D03*
X3340000Y4670000D02*
D03*
Y4790000D02*
D03*
Y4910000D02*
D03*
X3820000D02*
D03*
Y4790000D02*
D03*
Y4670000D02*
D03*
X3940000D02*
D03*
Y4790000D02*
D03*
Y4910000D02*
D03*
X3700000Y4670000D02*
D03*
Y4790000D02*
D03*
Y4910000D02*
D03*
X4180000D02*
D03*
Y4790000D02*
D03*
Y4670000D02*
D03*
X4300000D02*
D03*
Y4790000D02*
D03*
Y4910000D02*
D03*
X4060000Y4670000D02*
D03*
Y4790000D02*
D03*
Y4910000D02*
D03*
X4540000D02*
D03*
Y4790000D02*
D03*
Y4670000D02*
D03*
X4660000Y4790000D02*
D03*
Y4910000D02*
D03*
X4420000Y4670000D02*
D03*
Y4790000D02*
D03*
Y4910000D02*
D03*
X4900000D02*
D03*
Y4790000D02*
D03*
Y4670000D02*
D03*
X5020000D02*
D03*
Y4790000D02*
D03*
Y4910000D02*
D03*
X4780000Y4790000D02*
D03*
Y4910000D02*
D03*
X5260000D02*
D03*
Y4790000D02*
D03*
Y4670000D02*
D03*
X5380000D02*
D03*
Y4790000D02*
D03*
Y4910000D02*
D03*
X5140000Y4670000D02*
D03*
Y4790000D02*
D03*
Y4910000D02*
D03*
X5620000D02*
D03*
Y4790000D02*
D03*
Y4670000D02*
D03*
X5740000D02*
D03*
Y4790000D02*
D03*
Y4910000D02*
D03*
X5500000Y4670000D02*
D03*
Y4790000D02*
D03*
Y4910000D02*
D03*
X5860000Y4790000D02*
D03*
Y4670000D02*
D03*
X3340000Y4550000D02*
D03*
Y4310000D02*
D03*
Y4190000D02*
D03*
X3460000Y4550000D02*
D03*
Y4430000D02*
D03*
Y4310000D02*
D03*
X3580000Y4550000D02*
D03*
Y4430000D02*
D03*
X3700000Y4550000D02*
D03*
X5860000D02*
D03*
X5500000D02*
D03*
X5740000D02*
D03*
X5620000D02*
D03*
X5140000D02*
D03*
X5380000D02*
D03*
X5260000D02*
D03*
X5020000D02*
D03*
X4900000D02*
D03*
X5020000Y4430000D02*
D03*
X5260000D02*
D03*
X5380000D02*
D03*
X5140000D02*
D03*
X5620000D02*
D03*
X5740000D02*
D03*
X5500000D02*
D03*
X5860000D02*
D03*
X5020000Y4310000D02*
D03*
X5260000D02*
D03*
X5380000D02*
D03*
X5140000D02*
D03*
X5620000D02*
D03*
X5740000D02*
D03*
X5500000D02*
D03*
X5860000D02*
D03*
X5020000Y4190000D02*
D03*
X5260000D02*
D03*
X5380000D02*
D03*
X5140000D02*
D03*
X5620000D02*
D03*
X5740000D02*
D03*
X5500000D02*
D03*
X5860000D02*
D03*
X5140000Y4070000D02*
D03*
X5020000D02*
D03*
X4900000D02*
D03*
X5020000Y3950000D02*
D03*
X5860000Y4070000D02*
D03*
X5500000D02*
D03*
X5740000D02*
D03*
X5620000D02*
D03*
X5380000D02*
D03*
X6385000D02*
D03*
X1845000Y4670000D02*
D03*
Y4790000D02*
D03*
Y4910000D02*
D03*
Y4190000D02*
D03*
Y4310000D02*
D03*
Y4430000D02*
D03*
Y4550000D02*
D03*
Y3830000D02*
D03*
Y3710000D02*
D03*
X1725000Y4670000D02*
D03*
Y4790000D02*
D03*
Y4910000D02*
D03*
Y4190000D02*
D03*
Y4310000D02*
D03*
Y4430000D02*
D03*
Y4550000D02*
D03*
Y3830000D02*
D03*
X1605000Y4670000D02*
D03*
Y4790000D02*
D03*
Y4190000D02*
D03*
Y4310000D02*
D03*
Y4430000D02*
D03*
Y4550000D02*
D03*
Y4070000D02*
D03*
Y3950000D02*
D03*
Y3710000D02*
D03*
X1485000Y4190000D02*
D03*
Y4310000D02*
D03*
Y4430000D02*
D03*
Y4070000D02*
D03*
Y3830000D02*
D03*
Y3710000D02*
D03*
X1365000Y4190000D02*
D03*
Y4310000D02*
D03*
Y4430000D02*
D03*
Y3830000D02*
D03*
Y3710000D02*
D03*
X1245000Y4310000D02*
D03*
Y4430000D02*
D03*
Y4070000D02*
D03*
Y3830000D02*
D03*
Y3710000D02*
D03*
X1125000Y4190000D02*
D03*
Y4070000D02*
D03*
Y3830000D02*
D03*
X2195000Y4550000D02*
D03*
Y4430000D02*
D03*
X2815000Y3715000D02*
D03*
X2790000Y3825000D02*
D03*
Y3955000D02*
D03*
X2315000Y4345000D02*
D03*
X2195000D02*
D03*
Y3530000D02*
D03*
X4210000Y3300000D02*
D03*
X2915000Y4550000D02*
D03*
X3100000D02*
D03*
Y4430000D02*
D03*
Y4310000D02*
D03*
Y4070000D02*
D03*
X3340000D02*
D03*
X3460000D02*
D03*
X3580000D02*
D03*
X3700000D02*
D03*
X3460000Y4190000D02*
D03*
X3580000D02*
D03*
Y4310000D02*
D03*
X3700000D02*
D03*
Y4190000D02*
D03*
Y4430000D02*
D03*
X3820000D02*
D03*
Y4190000D02*
D03*
Y4310000D02*
D03*
Y4070000D02*
D03*
Y4550000D02*
D03*
X3940000Y4430000D02*
D03*
Y4190000D02*
D03*
Y4310000D02*
D03*
Y4070000D02*
D03*
Y4550000D02*
D03*
X4060000Y4430000D02*
D03*
Y4190000D02*
D03*
Y4310000D02*
D03*
Y4070000D02*
D03*
Y4550000D02*
D03*
X4180000Y4430000D02*
D03*
Y4190000D02*
D03*
Y4310000D02*
D03*
Y4070000D02*
D03*
Y4550000D02*
D03*
X4300000Y4070000D02*
D03*
Y4190000D02*
D03*
X4420000Y4070000D02*
D03*
Y4190000D02*
D03*
X4540000Y4070000D02*
D03*
Y4190000D02*
D03*
X4719112Y3995000D02*
D03*
X2700000Y3015000D02*
D03*
X1125000Y3950000D02*
D03*
X1365000D02*
D03*
X1245000D02*
D03*
X1125000Y3710000D02*
D03*
X3220000Y4310000D02*
D03*
X3340000Y4430000D02*
D03*
X3100000Y4190000D02*
D03*
X2705000Y4040000D02*
D03*
X2620000Y4125000D02*
D03*
X2535000Y4210000D02*
D03*
X2450000Y4295000D02*
D03*
X1485000Y3950000D02*
D03*
X1125000Y4310000D02*
D03*
X1605000Y3830000D02*
D03*
X1245000Y4190000D02*
D03*
X1365000Y4070000D02*
D03*
X2420000Y3090000D02*
D03*
X1955000Y3830000D02*
D03*
X2195000Y3410000D02*
D03*
X2360000Y3150000D02*
D03*
X1800000Y3230000D02*
D03*
X6270000Y2910000D02*
D03*
X6390000D02*
D03*
X4210000Y3255000D02*
D03*
X2480000Y3030000D02*
D03*
X4451260Y2668740D02*
D03*
Y2353780D02*
D03*
X4208346Y2007323D02*
D03*
Y3015197D02*
D03*
X2876457Y3204173D02*
D03*
X3010000Y3049961D02*
D03*
X1050000Y3505000D02*
D03*
Y3405000D02*
D03*
Y3305000D02*
D03*
Y3205000D02*
D03*
Y3105000D02*
D03*
Y3005000D02*
D03*
Y2905000D02*
D03*
Y2805000D02*
D03*
Y2705000D02*
D03*
Y2605000D02*
D03*
Y2505000D02*
D03*
Y2405000D02*
D03*
Y2305000D02*
D03*
Y2205000D02*
D03*
Y2105000D02*
D03*
Y2005000D02*
D03*
Y1905000D02*
D03*
Y1805000D02*
D03*
X1080000Y1710000D02*
D03*
X1145000Y1625000D02*
D03*
X1220000Y1575000D02*
D03*
X1325000Y1545000D02*
D03*
X1435000Y1525000D02*
D03*
X1520000Y1445000D02*
D03*
X1545000Y1350000D02*
D03*
X1570000Y1230000D02*
D03*
X1640000Y1130000D02*
D03*
X1725000Y1075000D02*
D03*
X1830000Y1050000D02*
D03*
X1945000D02*
D03*
X2045000D02*
D03*
X2145000D02*
D03*
X2245000D02*
D03*
X2345000D02*
D03*
X2445000D02*
D03*
X1725000Y3710000D02*
D03*
X3010000Y2797992D02*
D03*
X2945000Y2860984D02*
D03*
X1725000Y3590000D02*
D03*
X1125000D02*
D03*
X1245000D02*
D03*
X1365000D02*
D03*
X1485000D02*
D03*
X1605000D02*
D03*
X1845000D02*
D03*
X2075000D02*
D03*
X1955000D02*
D03*
X1725000Y3470000D02*
D03*
X1125000D02*
D03*
X1245000D02*
D03*
X1365000D02*
D03*
X1485000D02*
D03*
X1605000D02*
D03*
X1845000D02*
D03*
X2075000D02*
D03*
X1955000D02*
D03*
X1125000Y3350000D02*
D03*
X1245000D02*
D03*
X1365000D02*
D03*
X1485000D02*
D03*
X1605000D02*
D03*
X2075000D02*
D03*
X1955000D02*
D03*
X3010000Y2735000D02*
D03*
X2945000D02*
D03*
X2635000Y1990000D02*
D03*
X2633543Y2353780D02*
D03*
Y2668740D02*
D03*
X2545000Y1050000D02*
D03*
X4545000D02*
D03*
X4645000D02*
D03*
X4745000Y1050374D02*
D03*
X4845000D02*
D03*
X4945000D02*
D03*
X5045000D02*
D03*
X5145000D02*
D03*
X5245000D02*
D03*
X5034685Y3310000D02*
D03*
X5545000Y3375000D02*
D03*
Y3260000D02*
D03*
X5034685Y3410325D02*
D03*
X1485000Y3230000D02*
D03*
X1365000D02*
D03*
X1245000D02*
D03*
X1125000D02*
D03*
X1485000Y3110000D02*
D03*
X1365000D02*
D03*
X1245000D02*
D03*
X1125000D02*
D03*
X1485000Y2990000D02*
D03*
X1365000D02*
D03*
X1245000D02*
D03*
X1125000D02*
D03*
X1485000Y2870000D02*
D03*
X1365000D02*
D03*
X1245000D02*
D03*
X1125000D02*
D03*
X1485000Y2750000D02*
D03*
X1365000D02*
D03*
X1245000D02*
D03*
X1125000D02*
D03*
X1485000Y2630000D02*
D03*
X1365000D02*
D03*
X1245000D02*
D03*
X1125000D02*
D03*
X1485000Y2510000D02*
D03*
X1365000D02*
D03*
X1245000D02*
D03*
X1125000D02*
D03*
X1485000Y2390000D02*
D03*
X1365000D02*
D03*
X1245000D02*
D03*
X1125000D02*
D03*
X1245000Y2270000D02*
D03*
X1125000D02*
D03*
Y2150000D02*
D03*
X1640000Y2010000D02*
D03*
X1800000D02*
D03*
X1640000Y1890000D02*
D03*
X1800000D02*
D03*
X1640000Y1770000D02*
D03*
X1800000D02*
D03*
Y1650000D02*
D03*
X1920000D02*
D03*
X2040000D02*
D03*
X1920000Y1770000D02*
D03*
X2040000D02*
D03*
X1920000Y1890000D02*
D03*
X2040000D02*
D03*
X1920000Y2010000D02*
D03*
X2040000D02*
D03*
X1920000Y2130000D02*
D03*
Y1530000D02*
D03*
X2040000D02*
D03*
X1520000Y1890000D02*
D03*
Y2010000D02*
D03*
X2555000Y1890000D02*
D03*
X2435000D02*
D03*
X2315000D02*
D03*
X2435000Y1770000D02*
D03*
X2315000D02*
D03*
Y1650000D02*
D03*
X2435000D02*
D03*
X2315000Y1530000D02*
D03*
X2435000D02*
D03*
X2555000D02*
D03*
X2865000Y1650000D02*
D03*
X2485000Y1955000D02*
D03*
X5190000Y1110000D02*
D03*
Y1230000D02*
D03*
Y1470000D02*
D03*
Y1350000D02*
D03*
X5070000Y1110000D02*
D03*
Y1230000D02*
D03*
Y1470000D02*
D03*
Y1350000D02*
D03*
X4950000Y1110000D02*
D03*
Y1470000D02*
D03*
Y1350000D02*
D03*
X4830000Y1110000D02*
D03*
X2300000Y3210000D02*
D03*
X1845000Y3350000D02*
D03*
X1725000D02*
D03*
X1915000Y3230000D02*
D03*
Y3180000D02*
D03*
Y3130000D02*
D03*
Y3080000D02*
D03*
Y3030000D02*
D03*
Y2980000D02*
D03*
Y2930000D02*
D03*
Y2880000D02*
D03*
Y2830000D02*
D03*
Y2780000D02*
D03*
Y2730000D02*
D03*
Y2680000D02*
D03*
Y2630000D02*
D03*
Y2580000D02*
D03*
Y2530000D02*
D03*
Y2480000D02*
D03*
Y2430000D02*
D03*
X1800000Y3180000D02*
D03*
Y3080000D02*
D03*
Y2980000D02*
D03*
Y2880000D02*
D03*
Y2780000D02*
D03*
Y2680000D02*
D03*
Y2580000D02*
D03*
Y2480000D02*
D03*
Y2380000D02*
D03*
Y2280000D02*
D03*
Y2180000D02*
D03*
X1915000Y2280000D02*
D03*
X2790000Y3015000D02*
D03*
X1330000Y2020000D02*
D03*
Y2105000D02*
D03*
X1405000Y2180000D02*
D03*
X1330000Y1935000D02*
D03*
Y1850000D02*
D03*
X1360000Y1780000D02*
D03*
X1430000Y1710000D02*
D03*
X1500000Y1640000D02*
D03*
X1570000Y1570000D02*
D03*
X1640000Y1500000D02*
D03*
X1710000Y1430000D02*
D03*
X1890000Y1340000D02*
D03*
Y1280000D02*
D03*
X2010000Y1340000D02*
D03*
Y1280000D02*
D03*
X2130000Y1340000D02*
D03*
Y1280000D02*
D03*
X2305000Y1340000D02*
D03*
Y1280000D02*
D03*
X2425000Y1340000D02*
D03*
Y1280000D02*
D03*
X2545000Y1340000D02*
D03*
Y1280000D02*
D03*
X2665000Y1340000D02*
D03*
Y1280000D02*
D03*
X1770000D02*
D03*
Y1340000D02*
D03*
X4515000Y1335000D02*
D03*
Y1275000D02*
D03*
X4635000Y1335000D02*
D03*
Y1275000D02*
D03*
X4735000Y1360000D02*
D03*
X4755000Y1455000D02*
D03*
X4800000Y1565000D02*
D03*
X4735000D02*
D03*
X4660000Y1430000D02*
D03*
X6455000Y3620000D02*
D03*
Y3755000D02*
D03*
Y3510000D02*
D03*
X1915000Y2380000D02*
D03*
Y2330000D02*
D03*
X2175000Y1530000D02*
D03*
Y1650000D02*
D03*
Y1770000D02*
D03*
Y1890000D02*
D03*
Y2010000D02*
D03*
X4920000Y2990000D02*
D03*
X2675000Y1530000D02*
D03*
X2795000D02*
D03*
X4950000Y1230000D02*
D03*
X4830000D02*
D03*
X2645000Y1050000D02*
D03*
X2745000D02*
D03*
X2845000D02*
D03*
X2945000D02*
D03*
X3045000D02*
D03*
X3145000D02*
D03*
X3717000D02*
D03*
X3617000D02*
D03*
X3517000D02*
D03*
X3317000D02*
D03*
X3417000D02*
D03*
X3889000D02*
D03*
X3989000D02*
D03*
X4089000D02*
D03*
X4188997D02*
D03*
X4288997D02*
D03*
X4388997D02*
D03*
X2785000Y1280000D02*
D03*
Y1340000D02*
D03*
X2445000Y1150000D02*
D03*
X2545000D02*
D03*
X2645000D02*
D03*
X2745000D02*
D03*
X3417000D02*
D03*
X3617000D02*
D03*
X3045000D02*
D03*
X2945000D02*
D03*
X3889000Y1250000D02*
D03*
X3145000D02*
D03*
X3045000D02*
D03*
X2945000Y1275000D02*
D03*
X3889000Y1350000D02*
D03*
X3417000D02*
D03*
X3317000D02*
D03*
X3617000D02*
D03*
X3717000D02*
D03*
X3145000D02*
D03*
X3045000D02*
D03*
X2945000D02*
D03*
X3889000Y1450000D02*
D03*
X3417000D02*
D03*
X3317000D02*
D03*
X3617000D02*
D03*
X3717000D02*
D03*
X3145000D02*
D03*
X3045000D02*
D03*
X3889000Y1550000D02*
D03*
X3417000D02*
D03*
X3317000D02*
D03*
X3617000D02*
D03*
X3717000D02*
D03*
X3145000D02*
D03*
X3045000D02*
D03*
X2945000D02*
D03*
X3889000Y1650000D02*
D03*
X3417000D02*
D03*
X3317000D02*
D03*
X3617000D02*
D03*
X3717000D02*
D03*
X3145000D02*
D03*
X3045000D02*
D03*
X2945000D02*
D03*
X3889000Y1750000D02*
D03*
X3417000D02*
D03*
X3317000D02*
D03*
X3617000D02*
D03*
X3717000D02*
D03*
X3145000D02*
D03*
X3045000D02*
D03*
X2945000D02*
D03*
Y1850000D02*
D03*
X3045000D02*
D03*
X3145000D02*
D03*
X3717000D02*
D03*
X3617000D02*
D03*
X3317000D02*
D03*
X3417000D02*
D03*
X3889000D02*
D03*
X2945000Y1950000D02*
D03*
X3045000D02*
D03*
X3617000D02*
D03*
X3317000D02*
D03*
X3417000D02*
D03*
X3889000D02*
D03*
X3045000Y2050000D02*
D03*
X3417000D02*
D03*
X3317000D02*
D03*
X3217000D02*
D03*
X3117000D02*
D03*
X3517000Y1950000D02*
D03*
Y1850000D02*
D03*
Y1750000D02*
D03*
Y1650000D02*
D03*
Y1550000D02*
D03*
Y1450000D02*
D03*
Y1350000D02*
D03*
Y1150000D02*
D03*
Y2050000D02*
D03*
X3805000D02*
D03*
X3717000Y2150000D02*
D03*
X3617000Y2250000D02*
D03*
X4089000Y1150000D02*
D03*
X4189000D02*
D03*
X3989000D02*
D03*
X4388997D02*
D03*
X4288997D02*
D03*
X4644999Y1151092D02*
D03*
X4744999D02*
D03*
X4544999D02*
D03*
X4465000Y1050000D02*
D03*
X4395000Y1274999D02*
D03*
Y1334999D02*
D03*
X4275000Y1274998D02*
D03*
Y1334998D02*
D03*
X4190000Y1375000D02*
D03*
X3989000Y1250000D02*
D03*
X4089000D02*
D03*
X3989000Y1350000D02*
D03*
Y1450000D02*
D03*
X4089000D02*
D03*
Y1350000D02*
D03*
Y1550000D02*
D03*
X3989000D02*
D03*
X4089000Y1650000D02*
D03*
X3989000D02*
D03*
X4089000Y1750000D02*
D03*
X3989000D02*
D03*
X4089000Y1850000D02*
D03*
X3989000D02*
D03*
X4089000Y1950000D02*
D03*
X3989000D02*
D03*
X3889000Y2050000D02*
D03*
X3805000Y2150000D02*
D03*
X3717000Y2250000D02*
D03*
X3989000Y2050000D02*
D03*
X3889000Y2150000D02*
D03*
X3805000Y2250000D02*
D03*
X4465000Y1150000D02*
D03*
X4515000Y1465000D02*
D03*
X4395000D02*
D03*
X4275000D02*
D03*
X4615000Y1580000D02*
D03*
X1640000Y2480000D02*
D03*
X5021181Y3188597D02*
D03*
X5553423Y3126577D02*
D03*
X5470000Y2963720D02*
D03*
X2735000Y2982500D02*
D03*
Y2920000D02*
D03*
X2795000Y2857008D02*
D03*
X2735000D02*
D03*
X2795000Y2794016D02*
D03*
X2735000D02*
D03*
X2795000Y2731024D02*
D03*
X2735000D02*
D03*
X2795000Y2668032D02*
D03*
X2735000D02*
D03*
X2795000Y2636535D02*
D03*
X2735000D02*
D03*
X2795000Y2573543D02*
D03*
X2735000D02*
D03*
X2795000Y2510551D02*
D03*
X2735000D02*
D03*
X2795000Y2447559D02*
D03*
Y2321575D02*
D03*
Y2982500D02*
D03*
X2735000Y2447559D02*
D03*
Y2258583D02*
D03*
X4810000Y3835000D02*
D03*
X4850000D02*
D03*
Y3877500D02*
D03*
X4810000D02*
D03*
X3205000Y1250000D02*
D03*
X3261000D02*
D03*
Y1200000D02*
D03*
X3205000D02*
D03*
X3261000Y1113000D02*
D03*
X3205000D02*
D03*
X3777500D02*
D03*
X3833500D02*
D03*
X3777500Y1200000D02*
D03*
X3833500D02*
D03*
X3835000Y1250000D02*
D03*
X3777500D02*
D03*
X3260000Y1347500D02*
D03*
X3204000D02*
D03*
X3260000Y1397500D02*
D03*
X3204000D02*
D03*
X3260000Y1447500D02*
D03*
X3204000D02*
D03*
X3260000Y1550000D02*
D03*
X3204000D02*
D03*
X3260000Y1600000D02*
D03*
X3204000D02*
D03*
X3260000Y1650000D02*
D03*
X3204000D02*
D03*
X3260000Y1700000D02*
D03*
X3204000D02*
D03*
X3260000Y1750000D02*
D03*
X3204000D02*
D03*
X3260000Y1800000D02*
D03*
X3204000D02*
D03*
X3260000Y1850000D02*
D03*
X3204000D02*
D03*
X3260000Y1900000D02*
D03*
X3230000Y1935000D02*
D03*
X3190000Y1895000D02*
D03*
X3155000Y1930000D02*
D03*
X3195000Y1970000D02*
D03*
X3120000Y1965000D02*
D03*
X3160000Y2005000D02*
D03*
X3062500Y2032500D02*
D03*
Y1977500D02*
D03*
X3007500D02*
D03*
Y2032500D02*
D03*
X2952500Y1977500D02*
D03*
Y2032500D02*
D03*
X3772500Y1872500D02*
D03*
X3834000Y1875000D02*
D03*
X3777999Y1825000D02*
D03*
X3834000D02*
D03*
X3777999Y1775000D02*
D03*
X3834000D02*
D03*
X3777999Y1725000D02*
D03*
X3834000D02*
D03*
X3777999Y1675000D02*
D03*
X3834000D02*
D03*
X3777999Y1625000D02*
D03*
X3834000D02*
D03*
Y1575000D02*
D03*
X3777999D02*
D03*
Y1447500D02*
D03*
X3834000D02*
D03*
X3777999Y1397500D02*
D03*
X3834000D02*
D03*
X3777999Y1347500D02*
D03*
X3834000D02*
D03*
X3812500Y1912500D02*
D03*
X3777500Y1947500D02*
D03*
X3737500Y1907500D02*
D03*
X3742500Y1982500D02*
D03*
X3702500Y1942500D02*
D03*
X3707500Y2017500D02*
D03*
X3667500Y1977500D02*
D03*
X3672500Y2052500D02*
D03*
X3632500Y2012500D02*
D03*
X3637500Y2087500D02*
D03*
X3597500Y2047500D02*
D03*
X3602500Y2122500D02*
D03*
X3562500Y2082500D02*
D03*
X3527500Y2117500D02*
D03*
X3532500Y2192500D02*
D03*
X3447500Y2167500D02*
D03*
Y2225000D02*
D03*
X3362500D02*
D03*
Y2167500D02*
D03*
X3262500Y2225000D02*
D03*
Y2167500D02*
D03*
X3170000Y2225000D02*
D03*
Y2167500D02*
D03*
X3080000Y2225000D02*
D03*
Y2167500D02*
D03*
X3007500Y2225000D02*
D03*
X2952500Y2167500D02*
D03*
Y2225000D02*
D03*
X3500000Y2222500D02*
D03*
X2765000Y2982500D02*
D03*
Y2857008D02*
D03*
Y2794016D02*
D03*
Y2731024D02*
D03*
Y2668032D02*
D03*
Y2636535D02*
D03*
Y2573543D02*
D03*
Y2510551D02*
D03*
X2735000Y2480551D02*
D03*
X2765000Y2321575D02*
D03*
Y2258583D02*
D03*
X3010000Y4910000D02*
D03*
Y4790000D02*
D03*
Y4670000D02*
D03*
Y4550000D02*
D03*
Y4430000D02*
D03*
X2915000D02*
D03*
X3010000Y4310000D02*
D03*
X2915000D02*
D03*
X3010000Y4190000D02*
D03*
X2915000D02*
D03*
X3010000Y4070000D02*
D03*
X2915000D02*
D03*
X3010000Y3890000D02*
D03*
X2915000D02*
D03*
X3010000Y3710000D02*
D03*
X2915000D02*
D03*
X2820000Y4070000D02*
D03*
Y4190000D02*
D03*
X2725000D02*
D03*
X2435000Y4550000D02*
D03*
X2315000D02*
D03*
X2435000Y4430000D02*
D03*
X2315000D02*
D03*
X4719112Y4052500D02*
D03*
X4693159Y3995000D02*
D03*
Y4052500D02*
D03*
X5340000Y3607500D02*
D03*
X6150000Y3150000D02*
D03*
X4735000Y1685000D02*
D03*
X4865000D02*
D03*
X4995000D02*
D03*
X5125000D02*
D03*
X4800000Y1750000D02*
D03*
X4930000D02*
D03*
X5060000D02*
D03*
X4615000Y1645000D02*
D03*
Y1710000D02*
D03*
Y1775000D02*
D03*
Y1840000D02*
D03*
X4680000D02*
D03*
X4745000Y1905000D02*
D03*
X4875000D02*
D03*
X5005000D02*
D03*
X4800000Y1620000D02*
D03*
X4930000D02*
D03*
X5060000D02*
D03*
X4615000Y1905000D02*
D03*
X5070000Y1970000D02*
D03*
X4940000D02*
D03*
X4810000D02*
D03*
X4680000D02*
D03*
X4615000Y2035000D02*
D03*
X5005000D02*
D03*
X4875000D02*
D03*
X4745000D02*
D03*
X5070000Y2100000D02*
D03*
X4940000D02*
D03*
X4810000D02*
D03*
X4680000D02*
D03*
X4745000Y2165000D02*
D03*
X4875000D02*
D03*
X4615000D02*
D03*
X4680000Y2230000D02*
D03*
X4810000D02*
D03*
X4940000D02*
D03*
X4745000Y2295000D02*
D03*
X4875000D02*
D03*
X4615000D02*
D03*
X4680000Y2360000D02*
D03*
X4810000D02*
D03*
X4940000D02*
D03*
X4745000Y2425000D02*
D03*
X4875000D02*
D03*
X4615000D02*
D03*
X4680000Y2490000D02*
D03*
X4810000D02*
D03*
X4940000D02*
D03*
X4745000Y2555000D02*
D03*
X4875000D02*
D03*
X4615000D02*
D03*
X4680000Y2620000D02*
D03*
X4810000D02*
D03*
X4940000D02*
D03*
X4745000Y2685000D02*
D03*
X4875000D02*
D03*
X4615000D02*
D03*
X6150000Y2910000D02*
D03*
X6455000Y3400000D02*
D03*
Y3890000D02*
D03*
X5005000Y2165000D02*
D03*
X5135000Y2035000D02*
D03*
X5125000Y1620000D02*
D03*
X5190000Y1750000D02*
D03*
X5255000D02*
D03*
X5135000Y1905000D02*
D03*
X5200000Y1970000D02*
D03*
X5955000Y1710000D02*
D03*
X6030000D02*
D03*
Y1830000D02*
D03*
X5955000D02*
D03*
X6150000D02*
D03*
X6270000D02*
D03*
X6030000Y1950000D02*
D03*
X5955000D02*
D03*
X6150000D02*
D03*
X6270000D02*
D03*
X5265000Y2035000D02*
D03*
Y1905000D02*
D03*
X5330000Y1970000D02*
D03*
X5395000Y2035000D02*
D03*
Y1905000D02*
D03*
X5460000Y1970000D02*
D03*
X5525000Y2035000D02*
D03*
Y1905000D02*
D03*
X5590000Y1970000D02*
D03*
X5655000Y2035000D02*
D03*
Y1905000D02*
D03*
X5720000Y1970000D02*
D03*
X5785000Y2035000D02*
D03*
Y1905000D02*
D03*
X5850000Y1970000D02*
D03*
Y1840000D02*
D03*
X5720000D02*
D03*
X5590000D02*
D03*
X5460000D02*
D03*
X5785000Y1775000D02*
D03*
X5655000D02*
D03*
X5525000D02*
D03*
X5850000Y1710000D02*
D03*
X5720000D02*
D03*
X5590000D02*
D03*
X5330000Y1847500D02*
D03*
X5200000D02*
D03*
X5070000D02*
D03*
X4940000D02*
D03*
X4810000D02*
D03*
X5005000Y2425000D02*
D03*
Y2295000D02*
D03*
Y2555000D02*
D03*
Y2685000D02*
D03*
X5070000Y2620000D02*
D03*
X5200000D02*
D03*
X5135000Y2685000D02*
D03*
Y2555000D02*
D03*
X5330000Y2620000D02*
D03*
X5265000Y2685000D02*
D03*
Y2555000D02*
D03*
X5460000Y2620000D02*
D03*
X5395000Y2685000D02*
D03*
Y2555000D02*
D03*
X5590000Y2620000D02*
D03*
X5525000Y2685000D02*
D03*
Y2555000D02*
D03*
X5655000D02*
D03*
X5140000Y3950000D02*
D03*
X5260000Y4070000D02*
D03*
Y3950000D02*
D03*
X5980000Y4070000D02*
D03*
Y4190000D02*
D03*
Y4310000D02*
D03*
Y4430000D02*
D03*
Y4550000D02*
D03*
X4208346Y1975827D02*
D03*
X4189000Y1950000D02*
D03*
Y1850000D02*
D03*
Y1750000D02*
D03*
Y1650000D02*
D03*
Y1550000D02*
D03*
X4289000D02*
D03*
X4210000Y3345000D02*
D03*
X4255000D02*
D03*
Y3300000D02*
D03*
X4165000D02*
D03*
Y3345000D02*
D03*
Y3255000D02*
D03*
X4255000D02*
D03*
X4150000Y3015000D02*
D03*
X4392913Y2668543D02*
D03*
X4509606D02*
D03*
Y2353583D02*
D03*
X4392913D02*
D03*
X2575197Y2668543D02*
D03*
Y2353976D02*
D03*
X2934803Y3203976D02*
D03*
X2818110D02*
D03*
X2633543Y3015197D02*
D03*
X2876457D02*
D03*
X5590000Y3090000D02*
D03*
Y3025000D02*
D03*
X5528720Y2963720D02*
D03*
X5335000Y2952500D02*
D03*
X5302500Y2985000D02*
D03*
X5367500D02*
D03*
X4962500Y3002500D02*
D03*
X6270000Y2430000D02*
D03*
Y2310000D02*
D03*
Y2190000D02*
D03*
Y2070000D02*
D03*
X3052500Y2555000D02*
D03*
X3022500D02*
D03*
X3052500Y2525000D02*
D03*
X3022500D02*
D03*
X1465000Y1832500D02*
D03*
Y2077500D02*
D03*
X1365000Y2270000D02*
D03*
X1125000Y2030000D02*
D03*
Y1910000D02*
D03*
X1105000Y1797500D02*
D03*
X1640000Y1650000D02*
D03*
X1800000Y1530000D02*
D03*
X2175000Y1432500D02*
D03*
X2315000D02*
D03*
X2040000D02*
D03*
X1830000Y1147500D02*
D03*
X1945000D02*
D03*
X2045000D02*
D03*
X2145000D02*
D03*
X2345000Y1147765D02*
D03*
X2845000Y1150000D02*
D03*
X1485000Y2270000D02*
D03*
X2967500Y2662500D02*
D03*
Y2445000D02*
D03*
Y2505000D02*
D03*
Y2565000D02*
D03*
X3100000Y2625000D02*
D03*
X2967500D02*
D03*
X3100000Y2505000D02*
D03*
X2765000Y2700000D02*
D03*
Y2952205D02*
D03*
X4561791Y3172677D02*
D03*
X6080000Y2515000D02*
D03*
X6169091Y2516529D02*
D03*
X5980000Y3495000D02*
D03*
Y3615000D02*
D03*
Y3735000D02*
D03*
X5860000D02*
D03*
X5935000Y2895000D02*
D03*
Y2815000D02*
D03*
X5860000D02*
D03*
Y3255000D02*
D03*
Y3135000D02*
D03*
Y3055000D02*
D03*
Y2975000D02*
D03*
Y2895000D02*
D03*
X5740000D02*
D03*
Y2975000D02*
D03*
X5965000Y2310000D02*
D03*
Y2070000D02*
D03*
X6045000D02*
D03*
Y2310000D02*
D03*
Y2430000D02*
D03*
Y2190000D02*
D03*
X5960000Y2470000D02*
D03*
X5900000Y2530000D02*
D03*
X5840000Y2590000D02*
D03*
X2765000Y2480000D02*
D03*
Y2605000D02*
D03*
Y2765000D02*
D03*
Y2825000D02*
D03*
X2770787Y2290787D02*
D03*
X2765000Y2542500D02*
D03*
X4880000Y3092500D02*
D03*
X4450000Y3155000D02*
D03*
Y3190000D02*
D03*
X2550000Y2510000D02*
D03*
X4705000Y1215000D02*
D03*
X4515000Y1400000D02*
D03*
X1640000Y2280000D02*
D03*
Y2380000D02*
D03*
X1980000Y2405000D02*
D03*
X1640000Y2330000D02*
D03*
X2165000Y2355000D02*
D03*
X2290000Y2405000D02*
D03*
X1640000Y2430000D02*
D03*
Y2530000D02*
D03*
Y2580000D02*
D03*
X1980000Y2605000D02*
D03*
X1640000Y2630000D02*
D03*
Y2680000D02*
D03*
X1980000Y2705000D02*
D03*
X1640000Y2780000D02*
D03*
X1980000Y2805000D02*
D03*
X1640000Y2730000D02*
D03*
Y2830000D02*
D03*
Y2880000D02*
D03*
X1980000Y2905000D02*
D03*
X1640000Y2930000D02*
D03*
Y3030000D02*
D03*
Y2980000D02*
D03*
X1980000Y3005000D02*
D03*
X1640000Y3130000D02*
D03*
Y3080000D02*
D03*
X1980000Y3105000D02*
D03*
X1640000Y3180000D02*
D03*
X1980000Y3205000D02*
D03*
X5740000Y3055000D02*
D03*
X6165000Y2190000D02*
D03*
X3220000Y2745000D02*
D03*
X3160000Y2685000D02*
D03*
X3040000Y2445000D02*
D03*
X3220000Y2625000D02*
D03*
Y2385000D02*
D03*
X3160000Y2445000D02*
D03*
Y2565000D02*
D03*
X2877035Y2354358D02*
D03*
X2876457Y2668740D02*
D03*
X3220000Y3105000D02*
D03*
X4920000Y3045000D02*
D03*
X5740000Y3855000D02*
D03*
X5860000Y3975000D02*
D03*
X5480000Y2890000D02*
D03*
X5420000D02*
D03*
X5540000D02*
D03*
X2765000D02*
D03*
X4752402Y3092598D02*
D03*
X4672323Y3172677D02*
D03*
X5470000Y3215000D02*
D03*
X5285000Y3210000D02*
D03*
X5740000Y3135000D02*
D03*
Y3255000D02*
D03*
X5860000Y3375000D02*
D03*
X5740000D02*
D03*
X5860000Y3495000D02*
D03*
X5740000D02*
D03*
Y3615000D02*
D03*
X5860000D02*
D03*
X5740000Y3735000D02*
D03*
Y3975000D02*
D03*
X5980000D02*
D03*
X6100000D02*
D03*
Y3855000D02*
D03*
X5980000D02*
D03*
X5860000D02*
D03*
X5620000D02*
D03*
X5500000D02*
D03*
X5380000D02*
D03*
X5140000D02*
D03*
X5020000D02*
D03*
X4540000Y3705000D02*
D03*
Y3825000D02*
D03*
X4420000D02*
D03*
Y3705000D02*
D03*
X4300000Y3825000D02*
D03*
Y3705000D02*
D03*
X4180000Y3825000D02*
D03*
Y3705000D02*
D03*
X4060000Y3825000D02*
D03*
Y3705000D02*
D03*
X3940000Y3825000D02*
D03*
Y3705000D02*
D03*
X3820000Y3825000D02*
D03*
Y3705000D02*
D03*
X3700000D02*
D03*
Y3825000D02*
D03*
X3580000Y3705000D02*
D03*
Y3585000D02*
D03*
Y3825000D02*
D03*
X3460000D02*
D03*
Y3585000D02*
D03*
Y3705000D02*
D03*
Y3465000D02*
D03*
X3340000Y3345000D02*
D03*
Y3465000D02*
D03*
Y3705000D02*
D03*
Y3585000D02*
D03*
Y3825000D02*
D03*
X3220000D02*
D03*
Y3585000D02*
D03*
Y3705000D02*
D03*
Y3465000D02*
D03*
Y3345000D02*
D03*
X2980000Y2385000D02*
D03*
X3100000D02*
D03*
X3220000Y2865000D02*
D03*
Y2985000D02*
D03*
Y2505000D02*
D03*
X5780000Y2650000D02*
D03*
X5720000Y2710000D02*
D03*
X5660000Y2770000D02*
D03*
X5600000Y2830000D02*
D03*
X5540000D02*
D03*
X5480000D02*
D03*
X5420000D02*
D03*
X6165000Y2430000D02*
D03*
Y2310000D02*
D03*
Y2070000D02*
D03*
D41*
X2019685Y2355000D02*
D03*
X1980315D02*
D03*
X2019685Y2455000D02*
D03*
X1980315D02*
D03*
X2019685Y2555000D02*
D03*
X1980315D02*
D03*
X2019685Y2755000D02*
D03*
X1980315D02*
D03*
X2019685Y2855000D02*
D03*
X1980315D02*
D03*
X2019685Y2955000D02*
D03*
X1980315D02*
D03*
X2019685Y3055000D02*
D03*
X1980315D02*
D03*
X2019685Y3155000D02*
D03*
X1980315D02*
D03*
D66*
X5555000Y1210000D02*
D03*
X5677500Y4372500D02*
D03*
X1800000Y4020000D02*
D03*
X1230000Y1700000D02*
D03*
X2585000Y1400000D02*
D03*
X2245000Y1900000D02*
D03*
X2105000Y1902500D02*
D03*
X2585000Y1215000D02*
D03*
X4725000Y3435000D02*
D03*
X4645000Y3850000D02*
D03*
X4730000Y2845000D02*
D03*
X5855000Y1587500D02*
D03*
X5755000D02*
D03*
X5655000D02*
D03*
X5555000D02*
D03*
X5455000D02*
D03*
X5355000D02*
D03*
Y2187500D02*
D03*
X5455000D02*
D03*
X5555000D02*
D03*
X5655000D02*
D03*
X5755000D02*
D03*
X5855000D02*
D03*
D69*
X5955000Y1587500D02*
D03*
X2485000Y1400000D02*
D03*
Y1215000D02*
D03*
X5955000Y2187500D02*
D03*
D76*
X2245000Y1800000D02*
D03*
X2105000Y1802500D02*
D03*
D81*
X3947461Y2942165D02*
D03*
X3977972Y2889409D02*
D03*
X3947461D02*
D03*
X3916949D02*
D03*
X3977972Y2942165D02*
D03*
X3916949D02*
D03*
X3947461Y2845905D02*
D03*
Y2985669D02*
D03*
D82*
X3531255Y1305000D02*
G03*
X3516200Y1289945I0J-15055D01*
G01*
X3486090Y1271323D02*
G03*
X3516200Y1271323I15055J0D01*
G01*
X3486090Y1303703D02*
G03*
X3455980Y1303703I-15055J0D01*
G01*
X3425870Y1271323D02*
G03*
X3455980Y1271323I15055J0D01*
G01*
X3425870Y1289945D02*
G03*
X3410815Y1305000I-15055J0D01*
G01*
X4163695Y1500812D02*
G03*
X4153540Y1505000I-10155J-10219D01*
G01*
X4260318Y1404189D02*
G03*
X4270475Y1400000I10156J10219D01*
G01*
X3531255Y1305000D02*
X3599447D01*
X3516200Y1271323D02*
Y1289945D01*
X3486090Y1271323D02*
Y1303703D01*
X3455980Y1271323D02*
Y1303703D01*
X3425870Y1271323D02*
Y1289945D01*
X3378149Y1305000D02*
X3410815D01*
X3040000D02*
X3378149D01*
X3599447D02*
X4165000D01*
X4270475Y1400000D02*
X4515000D01*
X4270475D02*
X4270475D01*
X4163695Y1500812D02*
X4260318Y1404189D01*
X3030000Y1505000D02*
X4153540D01*
X2200000Y2700000D02*
X2765000D01*
X2392795Y2952205D02*
X2765000D01*
X1975000Y2325000D02*
X2680000D01*
X2714213Y2290787D02*
X2770787D01*
X2680000Y2325000D02*
X2714213Y2290787D01*
X2290000Y2405000D02*
X2752500D01*
X2765000Y2417500D01*
Y2480000D01*
X2185000Y2605000D02*
X2765000D01*
X2145000Y2755000D02*
X2200000Y2700000D01*
X2240000Y2765000D02*
X2765000D01*
X2345000Y2890000D02*
X2765000D01*
X2190000Y3155000D02*
X2392795Y2952205D01*
X2137500Y2542500D02*
X2765000D01*
X2125000Y2555000D02*
X2137500Y2542500D01*
X2585000Y1215000D02*
X2950000D01*
X2585000Y1400000D02*
X2925000D01*
X3030000Y1505000D01*
X2950000Y1215000D02*
X3040000Y1305000D01*
X1665000Y2655000D02*
X2135000D01*
X4165000Y1305000D02*
X4255000Y1215000D01*
X4705000D01*
X1955000Y2305000D02*
X1975000Y2325000D01*
X1665000Y2305000D02*
X1955000D01*
X1640000Y2280000D02*
X1665000Y2305000D01*
Y2355000D02*
X1980315D01*
X1640000Y2330000D02*
X1665000Y2355000D01*
Y2405000D02*
X1980000D01*
X1640000Y2380000D02*
X1665000Y2405000D01*
X2019685Y2455000D02*
X2495000D01*
X2550000Y2510000D01*
X2245000Y1140000D02*
Y1800000D01*
X2019685Y2355000D02*
X2165000D01*
X1665000Y2455000D02*
X1980315D01*
X1640000Y2430000D02*
X1665000Y2455000D01*
X1640000Y2530000D02*
X1665000Y2555000D01*
X1980315D01*
X2019685D02*
X2125000D01*
X1640000Y2580000D02*
X1665000Y2605000D01*
X1980000D01*
X1640000Y2630000D02*
X1665000Y2655000D01*
Y2705000D02*
X1980000D01*
X1640000Y2680000D02*
X1665000Y2705000D01*
Y2805000D02*
X1980000D01*
X1640000Y2780000D02*
X1665000Y2805000D01*
Y2755000D02*
X1980315D01*
X1640000Y2730000D02*
X1665000Y2755000D01*
X2019685D02*
X2145000D01*
X1665000Y2855000D02*
X1980315D01*
X1640000Y2830000D02*
X1665000Y2855000D01*
X2019685D02*
X2150000D01*
X1665000Y2905000D02*
X1980000D01*
X1640000Y2880000D02*
X1665000Y2905000D01*
X1640000Y2930000D02*
X1665000Y2955000D01*
X1980315D01*
X2285000Y2825000D02*
X2765000D01*
X2155000Y2955000D02*
X2285000Y2825000D01*
X2019685Y2955000D02*
X2155000D01*
X2019685Y3055000D02*
X2180000D01*
X1640000Y3030000D02*
X1665000Y3055000D01*
X1980315D01*
X1665000Y3005000D02*
X1980000D01*
X1640000Y2980000D02*
X1665000Y3005000D01*
X1640000Y3130000D02*
X1665000Y3155000D01*
X1980315D01*
X1665000Y3105000D02*
X1980000D01*
X2019685Y3155000D02*
X2190000D01*
X1640000Y3080000D02*
X1665000Y3105000D01*
X1640000Y3180000D02*
X1665000Y3205000D01*
X1980000D01*
X2135000Y2655000D02*
X2185000Y2605000D01*
X2180000Y3055000D02*
X2345000Y2890000D01*
X2150000Y2855000D02*
X2240000Y2765000D01*
D83*
X1350000Y4454626D02*
G03*
X1545000Y4649626I0J195000D01*
G01*
Y1349626D02*
G03*
X1845000Y1049626I300000J0D01*
G01*
X5955000Y4649626D02*
G03*
X6150000Y4454626I195000J0D01*
G01*
X1845000Y4949626D02*
G03*
X1545000Y4649626I0J-300000D01*
G01*
Y1349626D02*
G03*
X1350000Y1544626I-195000J0D01*
G01*
X5955000Y4649626D02*
G03*
X5655000Y4949626I-300000J0D01*
G01*
X1050000Y1844626D02*
G03*
X1350000Y1544626I300000J0D01*
G01*
Y4454626D02*
G03*
X1050000Y4154626I0J-300000D01*
G01*
X5654999Y1050980D02*
G03*
X5954999Y1350980I0J300000D01*
G01*
X6149999Y1545980D02*
G03*
X5954999Y1350980I0J-195000D01*
G01*
X6149999Y1545980D02*
G03*
X6449999Y1845980I0J300000D01*
G01*
X4327500Y2845000D02*
Y3065000D01*
X4325000Y2720275D02*
Y2820550D01*
Y2627775D02*
Y2720275D01*
Y2820550D02*
Y2842500D01*
X4327500Y2845000D01*
X4325000Y2527500D02*
Y2627775D01*
X4119395Y3102500D02*
X4290000D01*
X4327500Y2845000D02*
X4327500Y2845000D01*
X4730000D01*
X4290000Y3102500D02*
X4327500Y3065000D01*
X4010000Y3102500D02*
X4119395D01*
X6375000Y4454626D02*
X6430000Y4399626D01*
X1860000Y1049626D02*
X1945000Y1049672D01*
X2245000Y1049836D02*
X2345000Y1049891D01*
X2045000Y1049727D02*
X2145000Y1049782D01*
X2445000Y1049945D02*
X4544999Y1051092D01*
X1945000Y1049672D02*
X2045000Y1049727D01*
X2145000Y1049782D02*
X2245000Y1049836D01*
X2345000Y1049891D02*
X2445000Y1049945D01*
X1050000Y1844626D02*
Y4154626D01*
X1845000Y4949626D02*
X5655000D01*
X6150000Y4454626D02*
X6375000D01*
X6410000Y3869626D02*
X6430000Y3889626D01*
X6449999Y3307500D02*
X6449999Y1845980D01*
X4545000Y1050374D02*
X4645000Y1050429D01*
X4745000Y1050483D01*
X4845000Y1050538D01*
X4945000Y1050593D01*
X5045000Y1050647D01*
X5145000Y1050702D01*
X5245000Y1050756D01*
X5654999Y1050980D01*
X3200000Y3205000D02*
X4310000D01*
X2675000Y3730000D02*
X3200000Y3205000D01*
X2255000Y4251221D02*
X2418780D01*
X2675000Y3995000D01*
Y3730000D02*
Y3995000D01*
D87*
X3557500Y2270000D02*
X3845000Y2557500D01*
X2938506Y2270000D02*
X3557500D01*
X2852500Y2180000D02*
Y2238994D01*
X2802500Y2130000D02*
X2852500Y2180000D01*
X2142500Y2130000D02*
X2802500D01*
X2852500Y2238994D02*
X2906006Y2292500D01*
X3490000D02*
X3775000Y2577500D01*
X2890000Y2162500D02*
Y2221494D01*
X2938506Y2270000D01*
X2906006Y2292500D02*
X3490000D01*
X2270000Y2105000D02*
X2832500D01*
X2245000Y2080000D02*
X2270000Y2105000D01*
X2245000Y1900000D02*
Y2080000D01*
X3775000Y2577500D02*
Y2615000D01*
X2832500Y2105000D02*
X2890000Y2162500D01*
X2105000Y2092500D02*
X2142500Y2130000D01*
X2105000Y1902500D02*
Y2092500D01*
D89*
X4941201Y3778701D02*
G03*
X4950000Y3799926I-21201J21225D01*
G01*
X4850074Y3700000D02*
G03*
X4871271Y3708771I0J30000D01*
G01*
X5260000Y3410000D02*
Y3607500D01*
X5075000Y3225000D02*
X5260000Y3410000D01*
X4880000Y3225000D02*
X5075000D01*
X4825000Y3170000D02*
X4880000Y3225000D01*
X4825000Y3005000D02*
Y3170000D01*
X5260000Y4070000D02*
Y4110000D01*
Y3950000D02*
Y4070000D01*
X5470000Y3215000D02*
X5742500D01*
X5285000D02*
X5470000D01*
X5095000Y3025000D02*
X5285000Y3215000D01*
X4871271Y3708771D02*
X4941201Y3778701D01*
X4840000Y3700000D02*
X4850074D01*
X5742500Y3215000D02*
X5760000Y3232500D01*
X4950000Y3799926D02*
X4950000Y3855000D01*
X5020000D01*
X5140000D01*
D93*
X3022500Y2555000D02*
X3052500D01*
Y2525000D02*
Y2555000D01*
X3022500Y2525000D02*
X3052500D01*
X3022500D02*
Y2555000D01*
D94*
X2520000Y3110000D02*
Y3845000D01*
D110*
X4809500Y4692500D02*
D03*
D111*
X4697500Y4592500D02*
D03*
X4809500Y4492500D02*
D03*
D112*
X6202500Y4267500D02*
D03*
X6202500Y3565000D02*
D03*
D113*
X6036890Y3200039D02*
D03*
X6155000Y3015000D02*
D03*
X5918779D02*
D03*
D114*
X3481260Y2531299D02*
D03*
X3560000D02*
D03*
X3481260Y2610039D02*
D03*
Y2688779D02*
D03*
Y2767520D02*
D03*
Y2846260D02*
D03*
Y2925000D02*
D03*
Y3003740D02*
D03*
X3560000Y2925000D02*
D03*
Y2846260D02*
D03*
Y2767520D02*
D03*
Y2688779D02*
D03*
Y2610039D02*
D03*
D115*
X2176260Y4093740D02*
D03*
Y4172480D02*
D03*
Y3936260D02*
D03*
Y3857520D02*
D03*
Y3778779D02*
D03*
Y4015000D02*
D03*
X2255000D02*
D03*
Y3936260D02*
D03*
Y3857520D02*
D03*
Y3778779D02*
D03*
Y4251221D02*
D03*
Y4172480D02*
D03*
Y4093740D02*
D03*
D116*
X2176260Y4251221D02*
D03*
D117*
X4810000Y4367500D02*
D03*
X4710000D02*
D03*
D118*
X4910000D02*
D03*
D119*
X3560000Y3003740D02*
D03*
D120*
X4408542Y4420709D02*
D03*
X2676259D02*
D03*
X4408542Y1704174D02*
D03*
X2676259D02*
D03*
X6150000Y4650000D02*
D03*
X1350000D02*
D03*
X6150000Y1350000D02*
D03*
X1350000D02*
D03*
D121*
X2835118Y1911457D02*
D03*
Y3268543D02*
D03*
X4409921D02*
D03*
Y1911457D02*
D03*
D122*
X3857500Y2705000D02*
D03*
Y2752500D02*
D03*
X4325000Y3121374D02*
D03*
Y3021099D02*
D03*
Y2920824D02*
D03*
Y2820550D02*
D03*
Y2720275D02*
D03*
X3790000Y3082500D02*
D03*
Y3130000D02*
D03*
X4325000Y2427225D02*
D03*
Y2627775D02*
D03*
Y2527500D02*
D03*
X4119395Y3102500D02*
D03*
X3850000Y3130000D02*
D03*
Y3082500D02*
D03*
X4010000Y3102500D02*
D03*
X4825000Y3005000D02*
D03*
X4950000Y3855000D02*
D03*
X2520000Y3845000D02*
D03*
Y3110000D02*
D03*
X4310000Y3205000D02*
D03*
X2245000Y1140000D02*
D03*
X5095000Y3025000D02*
D03*
X4840000Y3700000D02*
D03*
D134*
X3857500Y2705000D02*
Y2752500D01*
X3822500Y2787500D02*
Y3055000D01*
Y2787500D02*
X3857500Y2752500D01*
D135*
X4993441Y3045000D02*
X5013441Y3025000D01*
X4920000Y3045000D02*
X4993441D01*
X5013441Y3025000D02*
X5095000D01*
X4880000Y3085000D02*
Y3092500D01*
Y3085000D02*
X4920000Y3045000D01*
M02*
