G04*
G04 #@! TF.GenerationSoftware,Altium Limited,Altium Designer,25.7.1 (20)*
G04*
G04 Layer_Color=8421504*
%FSLAX26Y26*%
%MOIN*%
G70*
G04*
G04 #@! TF.SameCoordinates,09F228F7-CC91-46C6-8843-2C2E3D21F80A*
G04*
G04*
G04 #@! TF.FilePolarity,Positive*
G04*
G01*
G75*
%ADD21R,0.035433X0.041339*%
%ADD22R,0.043307X0.064961*%
%ADD23R,0.061024X0.035433*%
%ADD24C,0.020000*%
G04:AMPARAMS|DCode=25|XSize=9.449mil|YSize=23.622mil|CornerRadius=1.984mil|HoleSize=0mil|Usage=FLASHONLY|Rotation=0.000|XOffset=0mil|YOffset=0mil|HoleType=Round|Shape=RoundedRectangle|*
%AMROUNDEDRECTD25*
21,1,0.009449,0.019654,0,0,0.0*
21,1,0.005480,0.023622,0,0,0.0*
1,1,0.003968,0.002740,-0.009827*
1,1,0.003968,-0.002740,-0.009827*
1,1,0.003968,-0.002740,0.009827*
1,1,0.003968,0.002740,0.009827*
%
%ADD25ROUNDEDRECTD25*%
G04:AMPARAMS|DCode=26|XSize=23.622mil|YSize=9.449mil|CornerRadius=1.984mil|HoleSize=0mil|Usage=FLASHONLY|Rotation=0.000|XOffset=0mil|YOffset=0mil|HoleType=Round|Shape=RoundedRectangle|*
%AMROUNDEDRECTD26*
21,1,0.023622,0.005480,0,0,0.0*
21,1,0.019654,0.009449,0,0,0.0*
1,1,0.003968,0.009827,-0.002740*
1,1,0.003968,-0.009827,-0.002740*
1,1,0.003968,-0.009827,0.002740*
1,1,0.003968,0.009827,0.002740*
%
%ADD26ROUNDEDRECTD26*%
G04:AMPARAMS|DCode=27|XSize=43.307mil|YSize=23.622mil|CornerRadius=2.008mil|HoleSize=0mil|Usage=FLASHONLY|Rotation=180.000|XOffset=0mil|YOffset=0mil|HoleType=Round|Shape=RoundedRectangle|*
%AMROUNDEDRECTD27*
21,1,0.043307,0.019606,0,0,180.0*
21,1,0.039291,0.023622,0,0,180.0*
1,1,0.004016,-0.019646,0.009803*
1,1,0.004016,0.019646,0.009803*
1,1,0.004016,0.019646,-0.009803*
1,1,0.004016,-0.019646,-0.009803*
%
%ADD27ROUNDEDRECTD27*%
%ADD28R,0.038286X0.014220*%
%ADD29R,0.014220X0.038286*%
%ADD30R,0.057087X0.018110*%
G04:AMPARAMS|DCode=31|XSize=35.433mil|YSize=68.898mil|CornerRadius=1.949mil|HoleSize=0mil|Usage=FLASHONLY|Rotation=0.000|XOffset=0mil|YOffset=0mil|HoleType=Round|Shape=RoundedRectangle|*
%AMROUNDEDRECTD31*
21,1,0.035433,0.065000,0,0,0.0*
21,1,0.031535,0.068898,0,0,0.0*
1,1,0.003898,0.015768,-0.032500*
1,1,0.003898,-0.015768,-0.032500*
1,1,0.003898,-0.015768,0.032500*
1,1,0.003898,0.015768,0.032500*
%
%ADD31ROUNDEDRECTD31*%
%ADD32R,0.029528X0.031496*%
%ADD33R,0.020000X0.014016*%
%ADD34R,0.069000X0.069000*%
%ADD35R,0.010000X0.032000*%
%ADD36R,0.050000X0.117000*%
%ADD37R,0.057087X0.080709*%
%ADD38R,0.031496X0.031496*%
%ADD39R,0.094488X0.110236*%
%ADD40R,0.110000X0.029000*%
%ADD41R,0.025591X0.025591*%
%ADD42R,0.033942X0.029784*%
%ADD43R,0.032000X0.010000*%
%ADD44R,0.016000X0.218000*%
%ADD45R,0.149606X0.079921*%
G04:AMPARAMS|DCode=46|XSize=125.984mil|YSize=68.898mil|CornerRadius=2.067mil|HoleSize=0mil|Usage=FLASHONLY|Rotation=0.000|XOffset=0mil|YOffset=0mil|HoleType=Round|Shape=RoundedRectangle|*
%AMROUNDEDRECTD46*
21,1,0.125984,0.064764,0,0,0.0*
21,1,0.121850,0.068898,0,0,0.0*
1,1,0.004134,0.060925,-0.032382*
1,1,0.004134,-0.060925,-0.032382*
1,1,0.004134,-0.060925,0.032382*
1,1,0.004134,0.060925,0.032382*
%
%ADD46ROUNDEDRECTD46*%
%ADD47R,0.079921X0.149606*%
%ADD48R,0.027559X0.033465*%
%ADD49R,0.142000X0.218000*%
%ADD50R,0.142000X0.218016*%
G36*
X3960256Y3031929D02*
X3960647D01*
X3961371Y3031629D01*
X3961925Y3031076D01*
X3962224Y3030352D01*
Y3029961D01*
X3962224D01*
X3962224Y3000827D01*
X3962224Y3000435D01*
X3961925Y2999712D01*
X3961371Y2999158D01*
X3960647Y2998858D01*
X3960256Y2998858D01*
X3960256Y2998858D01*
X3934665Y2998858D01*
X3934274Y2998858D01*
X3933550Y2999158D01*
X3932996Y2999712D01*
X3932697Y3000435D01*
X3932697Y3000827D01*
Y3000827D01*
X3932697Y3029961D01*
Y3030352D01*
X3932997Y3031076D01*
X3933550Y3031629D01*
X3934274Y3031929D01*
X3934665D01*
Y3031929D01*
X3938602Y3031929D01*
X3938994Y3031929D01*
X3939717Y3031629D01*
X3940271Y3031076D01*
X3940571Y3030352D01*
X3940571Y3029961D01*
Y3011260D01*
X3954350D01*
X3954350Y3029961D01*
X3954350Y3030352D01*
X3954650Y3031076D01*
X3955204Y3031629D01*
X3955927Y3031929D01*
X3956319Y3031929D01*
X3956319Y3031929D01*
X3960256Y3031929D01*
D02*
G37*
G36*
X3985650Y2990984D02*
X3986041D01*
X3986765Y2990684D01*
X3987318Y2990131D01*
X3987618Y2989407D01*
Y2989016D01*
Y2948071D01*
Y2947679D01*
X3987318Y2946956D01*
X3986765Y2946402D01*
X3986041Y2946102D01*
X3952974D01*
X3952251Y2946402D01*
X3951697Y2946956D01*
X3951398Y2947679D01*
Y2948071D01*
Y2989016D01*
Y2989407D01*
X3951697Y2990131D01*
X3952251Y2990684D01*
X3952974Y2990984D01*
X3953366D01*
Y2990984D01*
X3985650Y2990984D01*
D02*
G37*
G36*
X3941555D02*
X3941947D01*
X3942670Y2990684D01*
X3943224Y2990131D01*
X3943524Y2989407D01*
Y2989016D01*
Y2948071D01*
Y2947679D01*
X3943224Y2946956D01*
X3942670Y2946402D01*
X3941947Y2946102D01*
X3908880D01*
X3908157Y2946402D01*
X3907603Y2946956D01*
X3907303Y2947679D01*
Y2948071D01*
Y2989016D01*
Y2989407D01*
X3907603Y2990131D01*
X3908157Y2990684D01*
X3908880Y2990984D01*
X3909272D01*
Y2990984D01*
X3941555Y2990984D01*
D02*
G37*
G36*
X3986765Y2937929D02*
X3987318Y2937375D01*
X3987618Y2936651D01*
Y2936260D01*
Y2895315D01*
Y2894923D01*
X3987318Y2894200D01*
X3986765Y2893646D01*
X3986041Y2893347D01*
X3952974D01*
X3952251Y2893646D01*
X3951697Y2894200D01*
X3951398Y2894923D01*
Y2895315D01*
Y2936260D01*
Y2936651D01*
X3951697Y2937375D01*
X3952251Y2937929D01*
X3952974Y2938228D01*
X3986041D01*
X3986765Y2937929D01*
D02*
G37*
G36*
X3942670D02*
X3943224Y2937375D01*
X3943524Y2936651D01*
Y2936260D01*
Y2895315D01*
Y2894923D01*
X3943224Y2894200D01*
X3942670Y2893646D01*
X3941947Y2893347D01*
X3908880D01*
X3908157Y2893646D01*
X3907603Y2894200D01*
X3907303Y2894923D01*
Y2895315D01*
Y2936260D01*
Y2936651D01*
X3907603Y2937375D01*
X3908157Y2937929D01*
X3908880Y2938228D01*
X3941947D01*
X3942670Y2937929D01*
D02*
G37*
G36*
X3986765Y2885173D02*
X3987318Y2884619D01*
X3987618Y2883895D01*
Y2883504D01*
Y2842559D01*
Y2842168D01*
X3987318Y2841444D01*
X3986765Y2840890D01*
X3986041Y2840591D01*
X3985650D01*
Y2840590D01*
X3953366Y2840591D01*
X3952974D01*
X3952251Y2840890D01*
X3951697Y2841444D01*
X3951398Y2842168D01*
Y2842559D01*
Y2883504D01*
Y2883895D01*
X3951697Y2884619D01*
X3952251Y2885173D01*
X3952974Y2885472D01*
X3986041D01*
X3986765Y2885173D01*
D02*
G37*
G36*
X3942670D02*
X3943224Y2884619D01*
X3943524Y2883895D01*
Y2883504D01*
Y2842559D01*
Y2842168D01*
X3943224Y2841444D01*
X3942670Y2840890D01*
X3941947Y2840591D01*
X3941555D01*
Y2840590D01*
X3909272Y2840591D01*
X3908880D01*
X3908157Y2840890D01*
X3907603Y2841444D01*
X3907303Y2842168D01*
Y2842559D01*
Y2883504D01*
Y2883895D01*
X3907603Y2884619D01*
X3908157Y2885173D01*
X3908880Y2885472D01*
X3941947D01*
X3942670Y2885173D01*
D02*
G37*
G36*
X3934665Y2832716D02*
X3960256Y2832716D01*
X3960647Y2832716D01*
X3961371Y2832417D01*
X3961925Y2831863D01*
X3962224Y2831140D01*
X3962224Y2830748D01*
X3962224D01*
X3962224Y2801614D01*
Y2801223D01*
X3961925Y2800499D01*
X3961371Y2799945D01*
X3960647Y2799646D01*
X3956319D01*
X3955927Y2799646D01*
X3955204Y2799945D01*
X3954650Y2800499D01*
X3954350Y2801223D01*
X3954350Y2801614D01*
X3954350Y2820315D01*
X3940571D01*
X3940571Y2801614D01*
X3940571Y2801222D01*
X3940271Y2800499D01*
X3939717Y2799945D01*
X3938994Y2799646D01*
X3938602Y2799646D01*
X3934274D01*
X3933550Y2799945D01*
X3932997Y2800499D01*
X3932697Y2801223D01*
Y2801614D01*
Y2801614D01*
X3932697Y2830748D01*
X3932697Y2831140D01*
X3932996Y2831863D01*
X3933550Y2832417D01*
X3934274Y2832717D01*
X3934665Y2832716D01*
D02*
G37*
D21*
X4791043Y4207500D02*
D03*
X4733957D02*
D03*
X5041043Y3310000D02*
D03*
X4646457Y3715000D02*
D03*
X4703543D02*
D03*
X4983957Y3310000D02*
D03*
D22*
X5663898Y3507500D02*
D03*
X5776102D02*
D03*
X5663898Y3710000D02*
D03*
X5776102D02*
D03*
X5211102Y2925000D02*
D03*
X5098898D02*
D03*
D23*
X3997500Y2524665D02*
D03*
Y2420335D02*
D03*
X3772500Y2524665D02*
D03*
Y2420335D02*
D03*
D24*
X2087500Y2405000D02*
D03*
Y2605000D02*
D03*
Y2705000D02*
D03*
Y2805000D02*
D03*
Y2905000D02*
D03*
Y3005000D02*
D03*
Y3105000D02*
D03*
Y3205000D02*
D03*
D25*
X3976988Y3020118D02*
D03*
Y2811457D02*
D03*
X3917933D02*
D03*
Y3020118D02*
D03*
D26*
X4012421Y3004370D02*
D03*
Y2984685D02*
D03*
Y2965000D02*
D03*
Y2945315D02*
D03*
Y2925630D02*
D03*
Y2905945D02*
D03*
Y2886260D02*
D03*
Y2866575D02*
D03*
Y2846890D02*
D03*
Y2827205D02*
D03*
X3882500D02*
D03*
Y2846890D02*
D03*
Y2866575D02*
D03*
Y2886260D02*
D03*
Y2905945D02*
D03*
Y2925630D02*
D03*
Y2945315D02*
D03*
Y2965000D02*
D03*
Y2984685D02*
D03*
Y3004370D02*
D03*
D27*
X5021181Y3167402D02*
D03*
X5521181Y3127402D02*
D03*
Y3052598D02*
D03*
X5418819Y3127402D02*
D03*
Y3052598D02*
D03*
X5521181Y3090000D02*
D03*
X4918819Y3092598D02*
D03*
Y3167402D02*
D03*
X5021181Y3130000D02*
D03*
Y3092598D02*
D03*
D28*
X4920000Y3004936D02*
D03*
X3177802Y2329209D02*
D03*
X4981443Y3922892D02*
D03*
X5078014D02*
D03*
Y3902764D02*
D03*
X4981443D02*
D03*
X3177802Y2349338D02*
D03*
X4920000Y3025064D02*
D03*
D29*
X5447527Y2966546D02*
D03*
X3127436Y2850000D02*
D03*
X6247565Y2185500D02*
D03*
X6097565Y2617500D02*
D03*
X4724935Y3995000D02*
D03*
X2415064Y4250000D02*
D03*
X6097565Y2690000D02*
D03*
X3127436Y2777500D02*
D03*
X3067520Y2539629D02*
D03*
X6247565Y2113000D02*
D03*
X6227435D02*
D03*
X3087649Y2539629D02*
D03*
X3147564Y2777500D02*
D03*
X6077435Y2690000D02*
D03*
X2394936Y4250000D02*
D03*
X4745065Y3995000D02*
D03*
X6077435Y2617500D02*
D03*
X6227435Y2185500D02*
D03*
X3147564Y2850000D02*
D03*
X5427398Y2966546D02*
D03*
D30*
X4208346Y3204173D02*
D03*
Y3015197D02*
D03*
X4451260Y2668740D02*
D03*
X4208346Y1975827D02*
D03*
Y2007323D02*
D03*
X4451260Y2353780D02*
D03*
X2633543D02*
D03*
Y2007323D02*
D03*
Y1975827D02*
D03*
Y2668740D02*
D03*
Y3015197D02*
D03*
X2876457D02*
D03*
Y3204173D02*
D03*
X4208346Y2637244D02*
D03*
X2633543Y3204173D02*
D03*
X2876457Y3172677D02*
D03*
X2633543D02*
D03*
X2876457Y3141181D02*
D03*
X2633543D02*
D03*
X2876457Y3109685D02*
D03*
X2633543D02*
D03*
X2876457Y3078189D02*
D03*
X2633543D02*
D03*
X2876457Y3046693D02*
D03*
X2633543D02*
D03*
X2876457Y2983701D02*
D03*
X2633543D02*
D03*
X2876457Y2952205D02*
D03*
X2633543D02*
D03*
Y2920709D02*
D03*
X2876457Y2889213D02*
D03*
X2633543D02*
D03*
X2876457Y2857716D02*
D03*
X2633543D02*
D03*
X2876457Y2826220D02*
D03*
X2633543D02*
D03*
X2876457Y2794724D02*
D03*
X2633543D02*
D03*
X2876457Y2763228D02*
D03*
X2633543D02*
D03*
X2876457Y2731732D02*
D03*
X2633543D02*
D03*
X2876457Y2700236D02*
D03*
X2633543D02*
D03*
X2876457Y2668740D02*
D03*
Y2637244D02*
D03*
X2633543D02*
D03*
X2876457Y2605748D02*
D03*
X2633543D02*
D03*
X2876457Y2920709D02*
D03*
Y2290787D02*
D03*
Y1975827D02*
D03*
Y2007323D02*
D03*
X2633543Y2038819D02*
D03*
X2876457D02*
D03*
X2633543Y2070315D02*
D03*
X2876457D02*
D03*
X2633543Y2101811D02*
D03*
X2876457D02*
D03*
X2633543Y2133307D02*
D03*
X2876457D02*
D03*
X2633543Y2164803D02*
D03*
X2876457D02*
D03*
X2633543Y2196299D02*
D03*
X2876457D02*
D03*
X2633543Y2227795D02*
D03*
X2876457D02*
D03*
X2633543Y2259291D02*
D03*
X2876457D02*
D03*
X2633543Y2290787D02*
D03*
Y2322284D02*
D03*
X2876457D02*
D03*
Y2353780D02*
D03*
X2633543Y2385276D02*
D03*
X2876457D02*
D03*
X2633543Y2416772D02*
D03*
X2876457D02*
D03*
X2633543Y2448268D02*
D03*
X2876457D02*
D03*
X2633543Y2479764D02*
D03*
X2876457D02*
D03*
X2633543Y2511260D02*
D03*
X2876457D02*
D03*
X2633543Y2542756D02*
D03*
X2876457D02*
D03*
X2633543Y2574252D02*
D03*
X2876457D02*
D03*
X4451260D02*
D03*
X4208346D02*
D03*
X4451260Y2542756D02*
D03*
X4208346D02*
D03*
X4451260Y2511260D02*
D03*
X4208346D02*
D03*
X4451260Y2479764D02*
D03*
X4208346D02*
D03*
X4451260Y2448268D02*
D03*
X4208346D02*
D03*
X4451260Y2416772D02*
D03*
X4208346D02*
D03*
X4451260Y2385276D02*
D03*
X4208346D02*
D03*
Y2353780D02*
D03*
X4451260Y2322284D02*
D03*
X4208346D02*
D03*
Y2290787D02*
D03*
X4451260Y2259291D02*
D03*
X4208346D02*
D03*
X4451260Y2227795D02*
D03*
X4208346D02*
D03*
X4451260Y2196299D02*
D03*
X4208346D02*
D03*
X4451260Y2164803D02*
D03*
X4208346D02*
D03*
X4451260Y2133307D02*
D03*
X4208346D02*
D03*
X4451260Y2101811D02*
D03*
X4208346D02*
D03*
X4451260Y2070315D02*
D03*
X4208346D02*
D03*
X4451260Y2038819D02*
D03*
X4208346D02*
D03*
X4451260Y2007323D02*
D03*
Y1975827D02*
D03*
Y2290787D02*
D03*
Y2920709D02*
D03*
X4208346Y2605748D02*
D03*
X4451260D02*
D03*
Y2637244D02*
D03*
X4208346Y2668740D02*
D03*
Y2700236D02*
D03*
X4451260D02*
D03*
X4208346Y2731732D02*
D03*
X4451260D02*
D03*
X4208346Y2763228D02*
D03*
X4451260D02*
D03*
X4208346Y2794724D02*
D03*
X4451260D02*
D03*
X4208346Y2826220D02*
D03*
X4451260D02*
D03*
X4208346Y2857716D02*
D03*
X4451260D02*
D03*
X4208346Y2889213D02*
D03*
X4451260D02*
D03*
X4208346Y2920709D02*
D03*
Y2952205D02*
D03*
X4451260D02*
D03*
X4208346Y2983701D02*
D03*
X4451260D02*
D03*
Y3015197D02*
D03*
X4208346Y3046693D02*
D03*
X4451260D02*
D03*
X4208346Y3078189D02*
D03*
X4451260D02*
D03*
X4208346Y3109685D02*
D03*
X4451260D02*
D03*
X4208346Y3141181D02*
D03*
X4451260D02*
D03*
X4208346Y3172677D02*
D03*
X4451260D02*
D03*
Y3204173D02*
D03*
D31*
X6260314Y2511317D02*
D03*
X6169763D02*
D03*
X6079212D02*
D03*
D32*
X5335000Y2985472D02*
D03*
Y3044528D02*
D03*
D33*
X5339508Y3645315D02*
D03*
Y3684685D02*
D03*
X5390492Y3665000D02*
D03*
D34*
X4830000Y3855000D02*
D03*
D35*
X4839845Y3912000D02*
D03*
X4859535D02*
D03*
X4820155D02*
D03*
X4800465D02*
D03*
Y3798000D02*
D03*
X4820155D02*
D03*
X4839845D02*
D03*
X4859535D02*
D03*
D36*
X5120000Y3529140D02*
D03*
X5020000Y3670870D02*
D03*
X4920000Y3529140D02*
D03*
D37*
X5950000Y4066102D02*
D03*
Y3953898D02*
D03*
D38*
X5545000Y3510000D02*
D03*
X5604055D02*
D03*
Y3710000D02*
D03*
X5545000D02*
D03*
D39*
X6357535Y3937583D02*
D03*
X6105567D02*
D03*
D40*
X1640000Y2130000D02*
D03*
X1800000D02*
D03*
Y2180000D02*
D03*
Y2230000D02*
D03*
Y2280000D02*
D03*
Y2330000D02*
D03*
X1640000Y3330000D02*
D03*
X1800000D02*
D03*
X1640000Y3280000D02*
D03*
X1800000D02*
D03*
X1640000Y3230000D02*
D03*
X1800000D02*
D03*
Y3180000D02*
D03*
Y3130000D02*
D03*
Y3080000D02*
D03*
Y3030000D02*
D03*
Y2980000D02*
D03*
Y2930000D02*
D03*
Y2880000D02*
D03*
Y2830000D02*
D03*
Y2780000D02*
D03*
Y2730000D02*
D03*
Y2680000D02*
D03*
Y2630000D02*
D03*
Y2580000D02*
D03*
Y2530000D02*
D03*
X1640000Y2480000D02*
D03*
X1800000D02*
D03*
Y2430000D02*
D03*
Y2380000D02*
D03*
X1640000D02*
D03*
Y2430000D02*
D03*
Y2530000D02*
D03*
Y2580000D02*
D03*
Y2630000D02*
D03*
Y2680000D02*
D03*
Y2730000D02*
D03*
Y2780000D02*
D03*
Y2830000D02*
D03*
Y2880000D02*
D03*
Y2930000D02*
D03*
Y2980000D02*
D03*
Y3030000D02*
D03*
Y3080000D02*
D03*
Y3130000D02*
D03*
Y3180000D02*
D03*
Y2330000D02*
D03*
Y2280000D02*
D03*
Y2230000D02*
D03*
Y2180000D02*
D03*
D41*
X3702185Y2730000D02*
D03*
X3662815D02*
D03*
X3702185Y2985000D02*
D03*
X3662815D02*
D03*
X3702185Y2855000D02*
D03*
X3662815D02*
D03*
X3702185Y2920000D02*
D03*
X3662815D02*
D03*
X3702185Y2795000D02*
D03*
X3662815D02*
D03*
X2019685Y3205000D02*
D03*
X1980315D02*
D03*
X2019685Y2405000D02*
D03*
X1980315D02*
D03*
X2019685Y2605000D02*
D03*
X1980315D02*
D03*
X2019685Y2705000D02*
D03*
X1980315D02*
D03*
X2019685Y2805000D02*
D03*
X1980315D02*
D03*
X2019685Y2905000D02*
D03*
X1980315D02*
D03*
X2019685Y3105000D02*
D03*
X1980315D02*
D03*
D42*
X4920000Y3310624D02*
D03*
Y3259376D02*
D03*
D43*
X4887000Y3825465D02*
D03*
Y3845155D02*
D03*
Y3864845D02*
D03*
Y3884535D02*
D03*
X4773000D02*
D03*
Y3864845D02*
D03*
Y3845155D02*
D03*
Y3825465D02*
D03*
D44*
X3805500Y1108535D02*
D03*
X3233000D02*
D03*
D45*
X5495000Y1407500D02*
D03*
X5772500D02*
D03*
D46*
X6169763Y2265254D02*
D03*
D47*
X5760000Y2417500D02*
D03*
X5535000D02*
D03*
X5085000D02*
D03*
X5310000D02*
D03*
D48*
X1944606Y1215000D02*
D03*
X1895394D02*
D03*
X1944606Y1400000D02*
D03*
X1895394D02*
D03*
D49*
X3322000Y1108500D02*
D03*
X3894500D02*
D03*
D50*
X3144000Y1108543D02*
D03*
X3716500D02*
D03*
M02*
