G04*
G04 #@! TF.GenerationSoftware,Altium Limited,Altium Designer,25.7.1 (20)*
G04*
G04 Layer_Color=65535*
%FSLAX26Y26*%
%MOIN*%
G70*
G04*
G04 #@! TF.SameCoordinates,09F228F7-CC91-46C6-8843-2C2E3D21F80A*
G04*
G04*
G04 #@! TF.FilePolarity,Positive*
G04*
G01*
G75*
%ADD10C,0.009842*%
%ADD11C,0.005906*%
%ADD12C,0.020000*%
%ADD13C,0.003937*%
%ADD14C,0.019685*%
%ADD15C,0.007874*%
%ADD16C,0.006000*%
%ADD17C,0.004724*%
%ADD18C,0.010000*%
%ADD19C,0.003000*%
%ADD20R,0.728000X0.396500*%
G36*
X1868271Y4945854D02*
X1868792D01*
Y4943771D01*
X1869312D01*
Y4940125D01*
X1869833D01*
Y4938042D01*
X1870354D01*
Y4935438D01*
X1870875D01*
Y4932833D01*
X1871396D01*
Y4930229D01*
X1871917D01*
Y4927625D01*
X1872438D01*
Y4925542D01*
X1872958D01*
Y4922938D01*
X1873479D01*
Y4920333D01*
X1874000D01*
Y4917208D01*
X1874521D01*
Y4915125D01*
X1875042D01*
Y4911479D01*
X1875562D01*
Y4909917D01*
X1876083D01*
Y4906792D01*
X1876604D01*
Y4904708D01*
X1877125D01*
Y4902625D01*
X1877646D01*
Y4898979D01*
X1878167D01*
Y4897417D01*
X1878688D01*
Y4893771D01*
X1879208D01*
Y4892208D01*
X1879729D01*
Y4888562D01*
X1880250D01*
Y4886479D01*
X1880771D01*
Y4884917D01*
X1881292D01*
Y4881792D01*
X1881812D01*
Y4879708D01*
X1882333D01*
Y4876062D01*
X1882854D01*
Y4874500D01*
X1883375D01*
Y4870333D01*
X1883896D01*
Y4869292D01*
X1884417D01*
Y4867208D01*
X1884938D01*
Y4863562D01*
X1885458D01*
Y4862000D01*
X1885979D01*
Y4858354D01*
X1886500D01*
Y4856792D01*
X1887021D01*
Y4853667D01*
X1887542D01*
Y4851583D01*
X1888062D01*
Y4849500D01*
X1888583D01*
Y4845854D01*
X1889104D01*
Y4844812D01*
X1889625D01*
Y4841167D01*
X1890146D01*
Y4839604D01*
X1890667D01*
Y4837000D01*
X1891188D01*
Y4834396D01*
X1891708D01*
Y4832833D01*
X1892229D01*
Y4828667D01*
X1892750D01*
Y4827104D01*
X1893271D01*
Y4823979D01*
X1893792D01*
Y4821896D01*
X1894312D01*
Y4820333D01*
X1894833D01*
Y4816167D01*
X1895354D01*
Y4814604D01*
X1895875D01*
Y4810958D01*
X1896396D01*
Y4809396D01*
X1896917D01*
Y4806271D01*
X1897438D01*
Y4804188D01*
X1897958D01*
Y4802625D01*
X1898479D01*
Y4798979D01*
X1899000D01*
Y4798458D01*
Y4797417D01*
X1899521D01*
Y4793771D01*
X1900042D01*
Y4792208D01*
X1900562D01*
Y4788562D01*
X1901083D01*
Y4786479D01*
X1901604D01*
Y4784396D01*
X1902125D01*
Y4783354D01*
X1903167D01*
Y4783875D01*
X1903688D01*
Y4784917D01*
X1904208D01*
Y4785958D01*
X1904729D01*
Y4786479D01*
X1905250D01*
Y4787000D01*
X1905771D01*
Y4787521D01*
X1906292D01*
Y4788562D01*
X1906812D01*
Y4789083D01*
X1907333D01*
Y4789604D01*
X1907854D01*
Y4790125D01*
X1908375D01*
Y4791167D01*
X1908896D01*
Y4791688D01*
X1909417D01*
Y4792729D01*
X1909938D01*
Y4793250D01*
X1910458D01*
Y4793771D01*
X1910979D01*
Y4794292D01*
X1911500D01*
Y4794812D01*
X1912021D01*
Y4795333D01*
X1912542D01*
Y4796375D01*
X1913062D01*
Y4796896D01*
X1913583D01*
Y4797417D01*
X1914104D01*
Y4798458D01*
X1914625D01*
Y4798979D01*
X1915146D01*
Y4800021D01*
X1915667D01*
Y4800542D01*
X1916188D01*
Y4801062D01*
X1916708D01*
Y4801583D01*
X1918271D01*
Y4613042D01*
X1917750D01*
Y4612521D01*
X1817229D01*
Y4802625D01*
X1817750D01*
Y4802104D01*
X1818271D01*
Y4801583D01*
X1818792D01*
Y4800542D01*
X1819312D01*
Y4800021D01*
X1819833D01*
Y4799500D01*
X1820354D01*
Y4798979D01*
X1820875D01*
Y4797938D01*
X1821396D01*
Y4797417D01*
X1821917D01*
Y4796896D01*
X1822438D01*
Y4796375D01*
X1822958D01*
Y4795854D01*
X1823479D01*
Y4794812D01*
X1824000D01*
Y4794292D01*
X1824521D01*
Y4793250D01*
X1825042D01*
Y4792729D01*
X1825562D01*
Y4792208D01*
X1826083D01*
Y4791688D01*
X1826604D01*
Y4791167D01*
X1827125D01*
Y4790125D01*
X1827646D01*
Y4789604D01*
X1828167D01*
Y4789083D01*
X1828688D01*
Y4788562D01*
X1829208D01*
Y4787521D01*
X1829729D01*
Y4787000D01*
X1830250D01*
Y4786479D01*
X1830771D01*
Y4785438D01*
X1831292D01*
Y4784917D01*
X1831812D01*
Y4784396D01*
X1832333D01*
Y4783875D01*
X1833375D01*
Y4784396D01*
X1833896D01*
Y4786479D01*
X1834417D01*
Y4789083D01*
X1834938D01*
Y4791688D01*
X1835458D01*
Y4794812D01*
X1835979D01*
Y4796375D01*
X1836500D01*
Y4799500D01*
X1837021D01*
Y4802104D01*
X1837542D01*
Y4804708D01*
X1838062D01*
Y4806792D01*
X1838583D01*
Y4809917D01*
X1839104D01*
Y4812521D01*
X1839625D01*
Y4814604D01*
X1840146D01*
Y4817729D01*
X1840667D01*
Y4819292D01*
X1841188D01*
Y4822938D01*
X1841708D01*
Y4825021D01*
X1842229D01*
Y4828667D01*
X1842750D01*
Y4830229D01*
X1843271D01*
Y4832312D01*
X1843792D01*
Y4835958D01*
X1844312D01*
Y4837000D01*
X1844833D01*
Y4841167D01*
X1845354D01*
Y4842729D01*
X1845875D01*
Y4845333D01*
X1846396D01*
Y4847938D01*
X1846917D01*
Y4850021D01*
X1847438D01*
Y4853667D01*
X1847958D01*
Y4855229D01*
X1848479D01*
Y4858354D01*
X1849000D01*
Y4859917D01*
X1849521D01*
Y4863042D01*
X1850042D01*
Y4865646D01*
X1850562D01*
Y4867208D01*
X1851083D01*
Y4871375D01*
X1851604D01*
Y4872417D01*
X1852125D01*
Y4876583D01*
X1852646D01*
Y4878146D01*
X1853167D01*
Y4879708D01*
X1853688D01*
Y4883354D01*
X1854208D01*
Y4884917D01*
X1854729D01*
Y4888562D01*
X1855250D01*
Y4890125D01*
X1855771D01*
Y4892729D01*
X1856292D01*
Y4895333D01*
X1856812D01*
Y4897417D01*
X1857333D01*
Y4900542D01*
X1857854D01*
Y4902104D01*
X1858375D01*
Y4905750D01*
X1858896D01*
Y4907312D01*
X1859417D01*
Y4909917D01*
X1859938D01*
Y4913042D01*
X1860458D01*
Y4914604D01*
X1860979D01*
Y4918771D01*
X1861500D01*
Y4919812D01*
X1862021D01*
Y4923458D01*
X1862542D01*
Y4925542D01*
X1863062D01*
Y4927104D01*
X1863583D01*
Y4930750D01*
X1864104D01*
Y4932312D01*
X1864625D01*
Y4935958D01*
X1865146D01*
Y4938042D01*
X1865667D01*
Y4940646D01*
X1866188D01*
Y4942729D01*
X1866708D01*
Y4945333D01*
X1867229D01*
Y4946896D01*
X1868271D01*
Y4945854D01*
D02*
G37*
G36*
X2082854Y4741167D02*
X2083375D01*
Y4731792D01*
X2082854D01*
Y4731271D01*
X2079208D01*
Y4730750D01*
X2077125D01*
Y4730229D01*
X2075562D01*
Y4729708D01*
X2074521D01*
Y4729188D01*
X2074000D01*
Y4728667D01*
X2073479D01*
Y4727104D01*
X2072958D01*
Y4725542D01*
X2072438D01*
Y4704188D01*
X2071917D01*
Y4703146D01*
X2062021D01*
Y4703667D01*
X2061500D01*
Y4738562D01*
X2060979D01*
Y4739604D01*
X2061500D01*
Y4740646D01*
X2062021D01*
Y4741167D01*
X2071917D01*
Y4740125D01*
X2072438D01*
Y4738042D01*
X2073479D01*
Y4738562D01*
X2074521D01*
Y4739083D01*
X2075562D01*
Y4739604D01*
X2076083D01*
Y4740125D01*
X2077125D01*
Y4740646D01*
X2079208D01*
Y4741167D01*
X2081292D01*
Y4741688D01*
X2082854D01*
Y4741167D01*
D02*
G37*
G36*
X2266708Y4740646D02*
X2267229D01*
Y4739604D01*
X2266708D01*
Y4739083D01*
X2266188D01*
Y4736479D01*
X2265667D01*
Y4735438D01*
X2265146D01*
Y4734396D01*
X2264625D01*
Y4731792D01*
X2264104D01*
Y4731271D01*
X2263583D01*
Y4728667D01*
X2263062D01*
Y4727625D01*
X2262542D01*
Y4726583D01*
X2262021D01*
Y4724500D01*
X2261500D01*
Y4723979D01*
X2260979D01*
Y4720854D01*
X2260458D01*
Y4720333D01*
X2259938D01*
Y4717208D01*
X2259417D01*
Y4716688D01*
X2258896D01*
Y4716167D01*
X2258375D01*
Y4713042D01*
X2257854D01*
Y4712521D01*
X2257333D01*
Y4709396D01*
X2256812D01*
Y4708875D01*
X2256292D01*
Y4708354D01*
X2255771D01*
Y4705229D01*
X2255250D01*
Y4704708D01*
X2254729D01*
Y4702104D01*
X2254208D01*
Y4701583D01*
X2253688D01*
Y4698979D01*
X2253167D01*
Y4697938D01*
X2252646D01*
Y4697417D01*
X2252125D01*
Y4695854D01*
X2251604D01*
Y4694812D01*
X2251083D01*
Y4694292D01*
X2250562D01*
Y4693250D01*
X2250042D01*
Y4692729D01*
X2249521D01*
Y4692208D01*
X2249000D01*
Y4691688D01*
X2247958D01*
Y4691167D01*
X2246396D01*
Y4690646D01*
X2244833D01*
Y4690125D01*
X2234938D01*
Y4690646D01*
X2234417D01*
Y4698979D01*
X2234938D01*
Y4699500D01*
X2241188D01*
Y4700021D01*
X2241708D01*
Y4700542D01*
X2242229D01*
Y4701062D01*
X2242750D01*
Y4703146D01*
X2242229D01*
Y4703667D01*
X2241708D01*
Y4706792D01*
X2241188D01*
Y4707833D01*
X2240667D01*
Y4710438D01*
X2240146D01*
Y4711479D01*
X2239625D01*
Y4713042D01*
X2239104D01*
Y4715125D01*
X2238583D01*
Y4715646D01*
X2238062D01*
Y4718771D01*
X2237542D01*
Y4719292D01*
X2237021D01*
Y4722417D01*
X2236500D01*
Y4722938D01*
X2235979D01*
Y4725542D01*
X2235458D01*
Y4726583D01*
X2234938D01*
Y4728146D01*
X2234417D01*
Y4730229D01*
X2233896D01*
Y4731271D01*
X2233375D01*
Y4734396D01*
X2232854D01*
Y4734917D01*
X2232333D01*
Y4737521D01*
X2231812D01*
Y4738562D01*
X2231292D01*
Y4739604D01*
X2230771D01*
Y4740646D01*
X2231292D01*
Y4741167D01*
X2242229D01*
Y4740646D01*
X2242750D01*
Y4739083D01*
X2243271D01*
Y4738042D01*
X2243792D01*
Y4737000D01*
X2244312D01*
Y4736479D01*
X2243792D01*
Y4734396D01*
X2244312D01*
Y4732833D01*
X2244833D01*
Y4731792D01*
X2245354D01*
Y4728146D01*
X2245875D01*
Y4727104D01*
X2246396D01*
Y4722938D01*
X2246917D01*
Y4722417D01*
X2247438D01*
Y4717729D01*
X2249521D01*
Y4718250D01*
X2250042D01*
Y4722417D01*
X2250562D01*
Y4722938D01*
X2251083D01*
Y4727104D01*
X2251604D01*
Y4727625D01*
X2252125D01*
Y4731792D01*
X2252646D01*
Y4733354D01*
X2253167D01*
Y4733875D01*
X2253688D01*
Y4738042D01*
X2254208D01*
Y4738562D01*
X2254729D01*
Y4740646D01*
X2255250D01*
Y4741167D01*
X2266708D01*
Y4740646D01*
D02*
G37*
G36*
X2182854Y4754188D02*
X2183375D01*
Y4703146D01*
X2171917D01*
Y4704188D01*
X2171396D01*
Y4753667D01*
X2171917D01*
Y4754188D01*
X2172438D01*
Y4754708D01*
X2182854D01*
Y4754188D01*
D02*
G37*
G36*
X2099521D02*
Y4753667D01*
X2100042D01*
Y4729708D01*
X2101083D01*
Y4730229D01*
X2101604D01*
Y4730750D01*
X2102125D01*
Y4731271D01*
X2102646D01*
Y4731792D01*
X2103167D01*
Y4732312D01*
X2103688D01*
Y4732833D01*
X2104208D01*
Y4733354D01*
X2104729D01*
Y4733875D01*
X2105250D01*
Y4734396D01*
X2105771D01*
Y4734917D01*
X2106292D01*
Y4735438D01*
X2106812D01*
Y4735958D01*
X2107333D01*
Y4736479D01*
X2107854D01*
Y4737000D01*
X2108375D01*
Y4737521D01*
X2108896D01*
Y4738042D01*
X2109417D01*
Y4738562D01*
X2109938D01*
Y4739083D01*
X2110458D01*
Y4739604D01*
X2110979D01*
Y4740125D01*
X2111500D01*
Y4740646D01*
X2112021D01*
Y4741167D01*
X2124521D01*
Y4739604D01*
X2124000D01*
Y4739083D01*
X2123479D01*
Y4738562D01*
X2122958D01*
Y4738042D01*
X2122438D01*
Y4737521D01*
X2121917D01*
Y4737000D01*
X2121396D01*
Y4736479D01*
X2120875D01*
Y4735958D01*
X2120354D01*
Y4735438D01*
X2119833D01*
Y4734917D01*
X2119312D01*
Y4734396D01*
X2118792D01*
Y4733875D01*
X2118271D01*
Y4733354D01*
X2117750D01*
Y4732833D01*
X2117229D01*
Y4732312D01*
X2116708D01*
Y4731792D01*
X2116188D01*
Y4731271D01*
X2115667D01*
Y4730750D01*
X2115146D01*
Y4730229D01*
X2114625D01*
Y4729188D01*
X2113583D01*
Y4728667D01*
X2113062D01*
Y4727104D01*
X2113583D01*
Y4725542D01*
X2114104D01*
Y4725021D01*
X2114625D01*
Y4723979D01*
X2115146D01*
Y4722938D01*
X2115667D01*
Y4722417D01*
X2116188D01*
Y4721375D01*
X2116708D01*
Y4720854D01*
X2117229D01*
Y4719292D01*
X2117750D01*
Y4718771D01*
X2118271D01*
Y4717729D01*
X2118792D01*
Y4716688D01*
X2119312D01*
Y4716167D01*
X2119833D01*
Y4715646D01*
X2120354D01*
Y4715125D01*
X2120875D01*
Y4713042D01*
X2121396D01*
Y4712521D01*
X2121917D01*
Y4712000D01*
X2122438D01*
Y4710958D01*
X2122958D01*
Y4709917D01*
X2123479D01*
Y4709396D01*
X2124000D01*
Y4708875D01*
X2124521D01*
Y4707312D01*
X2125042D01*
Y4706271D01*
X2125562D01*
Y4705750D01*
X2126083D01*
Y4705229D01*
X2126604D01*
Y4703146D01*
X2113583D01*
Y4704708D01*
X2113062D01*
Y4705229D01*
X2112542D01*
Y4706271D01*
X2112021D01*
Y4706792D01*
X2111500D01*
Y4707833D01*
X2110979D01*
Y4708875D01*
X2110458D01*
Y4709396D01*
X2109938D01*
Y4710438D01*
X2109417D01*
Y4711479D01*
X2108896D01*
Y4712000D01*
X2108375D01*
Y4713042D01*
X2107854D01*
Y4713562D01*
X2107333D01*
Y4715125D01*
X2106812D01*
Y4715646D01*
X2106292D01*
Y4716167D01*
X2105771D01*
Y4717208D01*
X2105250D01*
Y4718250D01*
X2104729D01*
Y4718771D01*
X2103167D01*
Y4718250D01*
X2102646D01*
Y4717729D01*
X2102125D01*
Y4717208D01*
X2101604D01*
Y4716688D01*
X2101083D01*
Y4716167D01*
X2100562D01*
Y4715646D01*
X2100042D01*
Y4703667D01*
X2099521D01*
Y4703146D01*
X2089625D01*
Y4703667D01*
X2089104D01*
Y4754188D01*
X2089625D01*
Y4754708D01*
X2099521D01*
Y4754188D01*
D02*
G37*
G36*
X1993271D02*
X1998479D01*
Y4753667D01*
X1999521D01*
Y4753146D01*
X2000562D01*
Y4752625D01*
X2002125D01*
Y4752104D01*
X2002646D01*
Y4751583D01*
X2003688D01*
Y4751062D01*
X2004208D01*
Y4750542D01*
X2004729D01*
Y4750021D01*
X2005250D01*
Y4749500D01*
X2005771D01*
Y4748979D01*
X2006292D01*
Y4747938D01*
X2006812D01*
Y4747417D01*
X2007333D01*
Y4746375D01*
X2007854D01*
Y4745333D01*
X2008375D01*
Y4737521D01*
X2007854D01*
Y4736479D01*
X2007333D01*
Y4735438D01*
X2006812D01*
Y4734396D01*
X2006292D01*
Y4733875D01*
X2005771D01*
Y4733354D01*
X2005250D01*
Y4732833D01*
X2004208D01*
Y4732312D01*
X2003688D01*
Y4731792D01*
X2003167D01*
Y4731271D01*
X2002125D01*
Y4730750D01*
X2001083D01*
Y4730229D01*
X2000562D01*
Y4729188D01*
X2001083D01*
Y4728667D01*
X2003167D01*
Y4728146D01*
X2004208D01*
Y4727625D01*
X2005771D01*
Y4727104D01*
X2006292D01*
Y4726583D01*
X2006812D01*
Y4726062D01*
X2007333D01*
Y4725542D01*
X2007854D01*
Y4725021D01*
X2008375D01*
Y4723979D01*
X2008896D01*
Y4723458D01*
X2009417D01*
Y4721896D01*
X2009938D01*
Y4720854D01*
X2010458D01*
Y4714604D01*
X2009938D01*
Y4713562D01*
X2009417D01*
Y4712000D01*
X2008896D01*
Y4710958D01*
X2008375D01*
Y4709396D01*
X2007854D01*
Y4708875D01*
X2007333D01*
Y4708354D01*
X2006812D01*
Y4707833D01*
X2006292D01*
Y4707312D01*
X2005771D01*
Y4706792D01*
X2004729D01*
Y4706271D01*
X2003688D01*
Y4705750D01*
X2002646D01*
Y4705229D01*
X2001604D01*
Y4704708D01*
X2001083D01*
Y4704188D01*
X1997958D01*
Y4703667D01*
X1996396D01*
Y4703146D01*
X1966188D01*
Y4754708D01*
X1993271D01*
Y4754188D01*
D02*
G37*
G36*
X2211500Y4742208D02*
X2214625D01*
Y4741688D01*
X2217229D01*
Y4741167D01*
X2217750D01*
Y4740646D01*
X2219312D01*
Y4740125D01*
X2220354D01*
Y4739604D01*
X2220875D01*
Y4739083D01*
X2221917D01*
Y4738562D01*
X2222438D01*
Y4738042D01*
X2222958D01*
Y4737521D01*
X2223479D01*
Y4737000D01*
X2224000D01*
Y4736479D01*
X2224521D01*
Y4735958D01*
X2225042D01*
Y4735438D01*
X2225562D01*
Y4734396D01*
X2226083D01*
Y4733875D01*
X2226604D01*
Y4733354D01*
X2227125D01*
Y4731792D01*
X2227646D01*
Y4730750D01*
X2228167D01*
Y4729188D01*
X2228688D01*
Y4725542D01*
X2229208D01*
Y4725021D01*
Y4724500D01*
X2229729D01*
Y4720333D01*
X2202646D01*
Y4718250D01*
X2203167D01*
Y4714604D01*
X2203688D01*
Y4714083D01*
X2204208D01*
Y4713562D01*
X2204729D01*
Y4712521D01*
X2205771D01*
Y4712000D01*
X2206292D01*
Y4711479D01*
X2207854D01*
Y4710958D01*
X2209417D01*
Y4710438D01*
X2213062D01*
Y4710958D01*
X2214104D01*
Y4711479D01*
X2215667D01*
Y4712000D01*
X2216188D01*
Y4712521D01*
X2216708D01*
Y4713042D01*
X2217229D01*
Y4713562D01*
X2217750D01*
Y4714083D01*
X2218271D01*
Y4714604D01*
X2218792D01*
Y4715646D01*
X2219312D01*
Y4716167D01*
X2219833D01*
Y4717208D01*
X2220354D01*
Y4717729D01*
X2220875D01*
Y4717208D01*
X2221396D01*
Y4716688D01*
X2222438D01*
Y4716167D01*
X2222958D01*
Y4715646D01*
X2224000D01*
Y4715125D01*
X2225042D01*
Y4714604D01*
X2226083D01*
Y4714083D01*
X2227125D01*
Y4713562D01*
X2228167D01*
Y4711479D01*
X2227646D01*
Y4710438D01*
X2227125D01*
Y4709917D01*
X2226604D01*
Y4709396D01*
X2226083D01*
Y4708354D01*
X2225562D01*
Y4707833D01*
X2225042D01*
Y4707312D01*
X2224521D01*
Y4706792D01*
X2224000D01*
Y4706271D01*
X2222958D01*
Y4705750D01*
X2222438D01*
Y4705229D01*
X2221396D01*
Y4704708D01*
X2220875D01*
Y4704188D01*
X2219312D01*
Y4703667D01*
X2218792D01*
Y4703146D01*
X2216188D01*
Y4702625D01*
X2214625D01*
Y4702104D01*
X2212542D01*
Y4701583D01*
X2208375D01*
Y4702104D01*
X2204208D01*
Y4702625D01*
X2202646D01*
Y4703146D01*
X2201083D01*
Y4703667D01*
X2200042D01*
Y4704188D01*
X2199000D01*
Y4704708D01*
X2198479D01*
Y4705229D01*
X2197958D01*
Y4705750D01*
X2196917D01*
Y4706271D01*
X2196396D01*
Y4706792D01*
X2195875D01*
Y4707833D01*
X2195354D01*
Y4708354D01*
X2194833D01*
Y4708875D01*
X2194312D01*
Y4709396D01*
X2193792D01*
Y4709917D01*
X2193271D01*
Y4711479D01*
X2192750D01*
Y4712000D01*
X2192229D01*
Y4714083D01*
X2191708D01*
Y4715125D01*
X2191188D01*
Y4718250D01*
X2190667D01*
Y4724500D01*
X2191188D01*
Y4728667D01*
X2191708D01*
Y4729188D01*
X2192229D01*
Y4731271D01*
X2192750D01*
Y4732312D01*
X2193271D01*
Y4733354D01*
X2193792D01*
Y4734396D01*
X2194312D01*
Y4734917D01*
X2194833D01*
Y4735438D01*
X2195354D01*
Y4736479D01*
X2196396D01*
Y4737000D01*
X2196917D01*
Y4737521D01*
X2197438D01*
Y4738042D01*
X2197958D01*
Y4738562D01*
X2198479D01*
Y4739083D01*
X2199000D01*
Y4739604D01*
X2199521D01*
Y4740125D01*
X2200562D01*
Y4740646D01*
X2202125D01*
Y4741167D01*
X2203167D01*
Y4741688D01*
X2205771D01*
Y4742208D01*
X2208896D01*
Y4742729D01*
X2211500D01*
Y4742208D01*
D02*
G37*
G36*
X2147958D02*
X2150562D01*
Y4741688D01*
X2153688D01*
Y4741167D01*
X2154729D01*
Y4740646D01*
X2155771D01*
Y4740125D01*
X2156812D01*
Y4739604D01*
X2157854D01*
Y4739083D01*
X2158375D01*
Y4738562D01*
X2158896D01*
Y4738042D01*
X2159417D01*
Y4737521D01*
X2159938D01*
Y4737000D01*
X2160458D01*
Y4736479D01*
X2160979D01*
Y4735958D01*
X2161500D01*
Y4735438D01*
X2162021D01*
Y4734396D01*
X2162542D01*
Y4733875D01*
X2163062D01*
Y4732833D01*
X2163583D01*
Y4731792D01*
X2164104D01*
Y4730229D01*
X2164625D01*
Y4728667D01*
X2165146D01*
Y4727104D01*
X2165667D01*
Y4720854D01*
X2165146D01*
Y4720333D01*
X2139625D01*
Y4719812D01*
X2139104D01*
Y4719292D01*
X2138583D01*
Y4716688D01*
X2139104D01*
Y4715646D01*
X2139625D01*
Y4714604D01*
X2140146D01*
Y4714083D01*
X2140667D01*
Y4713562D01*
X2141188D01*
Y4713042D01*
X2141708D01*
Y4712521D01*
X2142229D01*
Y4712000D01*
X2142750D01*
Y4711479D01*
X2143792D01*
Y4710958D01*
X2144833D01*
Y4710438D01*
X2149521D01*
Y4710958D01*
X2150562D01*
Y4711479D01*
X2152125D01*
Y4712000D01*
X2152646D01*
Y4712521D01*
X2153688D01*
Y4713042D01*
X2154208D01*
Y4713562D01*
X2154729D01*
Y4714604D01*
X2155250D01*
Y4715125D01*
X2155771D01*
Y4716167D01*
X2156292D01*
Y4716688D01*
X2158896D01*
Y4716167D01*
X2159417D01*
Y4715646D01*
X2160458D01*
Y4715125D01*
X2161500D01*
Y4714604D01*
X2162542D01*
Y4714083D01*
X2163583D01*
Y4713562D01*
X2164625D01*
Y4712521D01*
X2165146D01*
Y4712000D01*
X2164625D01*
Y4710958D01*
X2164104D01*
Y4710438D01*
X2163583D01*
Y4709917D01*
X2163062D01*
Y4709396D01*
X2162542D01*
Y4708875D01*
X2162021D01*
Y4707833D01*
X2160979D01*
Y4707312D01*
X2160458D01*
Y4706792D01*
X2159938D01*
Y4706271D01*
X2159417D01*
Y4705750D01*
X2158896D01*
Y4705229D01*
X2157854D01*
Y4704708D01*
X2156812D01*
Y4704188D01*
X2155771D01*
Y4703667D01*
X2155250D01*
Y4703146D01*
X2153167D01*
Y4702625D01*
X2152125D01*
Y4702104D01*
X2148479D01*
Y4701583D01*
X2143792D01*
Y4702104D01*
X2140146D01*
Y4702625D01*
X2139625D01*
Y4703146D01*
X2137542D01*
Y4703667D01*
X2137021D01*
Y4704188D01*
X2135979D01*
Y4704708D01*
X2134938D01*
Y4705229D01*
X2134417D01*
Y4705750D01*
X2133896D01*
Y4706271D01*
X2132854D01*
Y4706792D01*
X2132333D01*
Y4707312D01*
X2131812D01*
Y4707833D01*
X2131292D01*
Y4708354D01*
X2130771D01*
Y4709396D01*
X2130250D01*
Y4710438D01*
X2129729D01*
Y4710958D01*
X2129208D01*
Y4712521D01*
X2128688D01*
Y4713042D01*
X2128167D01*
Y4716688D01*
X2127646D01*
Y4717729D01*
X2127125D01*
Y4725542D01*
X2127646D01*
Y4727104D01*
X2128167D01*
Y4730229D01*
X2128688D01*
Y4731271D01*
X2129208D01*
Y4732833D01*
X2129729D01*
Y4733875D01*
X2130250D01*
Y4734396D01*
X2130771D01*
Y4734917D01*
X2131292D01*
Y4735958D01*
X2131812D01*
Y4736479D01*
X2132333D01*
Y4737000D01*
X2132854D01*
Y4737521D01*
X2133375D01*
Y4738042D01*
X2133896D01*
Y4738562D01*
X2134417D01*
Y4739083D01*
X2135458D01*
Y4739604D01*
X2135979D01*
Y4740125D01*
X2137021D01*
Y4740646D01*
X2138062D01*
Y4741167D01*
X2139625D01*
Y4741688D01*
X2142750D01*
Y4742208D01*
X2144312D01*
Y4742729D01*
X2147958D01*
Y4742208D01*
D02*
G37*
G36*
X2037542D02*
X2040146D01*
Y4741688D01*
X2042750D01*
Y4741167D01*
X2043792D01*
Y4740646D01*
X2045875D01*
Y4740125D01*
X2046396D01*
Y4739604D01*
X2046917D01*
Y4739083D01*
X2047958D01*
Y4738562D01*
X2048479D01*
Y4738042D01*
X2049521D01*
Y4737521D01*
X2050042D01*
Y4736479D01*
X2050562D01*
Y4735958D01*
X2051083D01*
Y4734917D01*
X2051604D01*
Y4734396D01*
X2052125D01*
Y4733354D01*
X2052646D01*
Y4732833D01*
X2053167D01*
Y4731271D01*
X2053688D01*
Y4730229D01*
X2054208D01*
Y4727625D01*
X2054729D01*
Y4726062D01*
X2055250D01*
Y4720333D01*
X2029729D01*
Y4719812D01*
X2028688D01*
Y4719292D01*
X2028167D01*
Y4718250D01*
X2028688D01*
Y4715125D01*
X2029208D01*
Y4714604D01*
X2029729D01*
Y4713562D01*
X2030250D01*
Y4713042D01*
X2030771D01*
Y4712521D01*
X2031812D01*
Y4712000D01*
X2032333D01*
Y4711479D01*
X2033375D01*
Y4710958D01*
X2034938D01*
Y4710438D01*
X2039104D01*
Y4710958D01*
X2040667D01*
Y4711479D01*
X2041708D01*
Y4712000D01*
X2042750D01*
Y4712521D01*
X2043271D01*
Y4713042D01*
X2043792D01*
Y4714083D01*
X2044312D01*
Y4714604D01*
X2044833D01*
Y4715125D01*
X2045354D01*
Y4715646D01*
X2045875D01*
Y4716688D01*
X2046396D01*
Y4717208D01*
X2046917D01*
Y4716688D01*
X2048479D01*
Y4716167D01*
X2049000D01*
Y4715646D01*
X2050042D01*
Y4715125D01*
X2051083D01*
Y4714604D01*
X2052125D01*
Y4714083D01*
X2053167D01*
Y4713562D01*
X2054208D01*
Y4711479D01*
X2053688D01*
Y4710958D01*
X2053167D01*
Y4709917D01*
X2052646D01*
Y4709396D01*
X2052125D01*
Y4708354D01*
X2051604D01*
Y4707833D01*
X2051083D01*
Y4707312D01*
X2050562D01*
Y4706792D01*
X2050042D01*
Y4706271D01*
X2049521D01*
Y4705750D01*
X2048479D01*
Y4705229D01*
X2047438D01*
Y4704708D01*
X2046917D01*
Y4704188D01*
X2045354D01*
Y4703667D01*
X2044312D01*
Y4703146D01*
X2043271D01*
Y4702625D01*
X2041708D01*
Y4702104D01*
X2038062D01*
Y4701583D01*
X2033896D01*
Y4702104D01*
X2030250D01*
Y4702625D01*
X2028688D01*
Y4703146D01*
X2027125D01*
Y4703667D01*
X2026083D01*
Y4704188D01*
X2025042D01*
Y4704708D01*
X2024521D01*
Y4705229D01*
X2023479D01*
Y4705750D01*
X2022958D01*
Y4706271D01*
X2022438D01*
Y4706792D01*
X2021917D01*
Y4707312D01*
X2021396D01*
Y4707833D01*
X2020875D01*
Y4708354D01*
X2020354D01*
Y4708875D01*
X2019833D01*
Y4709917D01*
X2019312D01*
Y4710958D01*
X2018792D01*
Y4712000D01*
X2018271D01*
Y4713042D01*
X2017750D01*
Y4715125D01*
X2017229D01*
Y4717208D01*
X2016708D01*
Y4726583D01*
X2017229D01*
Y4728146D01*
X2017750D01*
Y4729708D01*
X2018271D01*
Y4731271D01*
X2018792D01*
Y4732312D01*
X2019312D01*
Y4733875D01*
X2019833D01*
Y4734396D01*
X2020354D01*
Y4735438D01*
X2020875D01*
Y4735958D01*
X2021396D01*
Y4736479D01*
X2021917D01*
Y4737000D01*
X2022438D01*
Y4737521D01*
X2022958D01*
Y4738042D01*
X2023479D01*
Y4738562D01*
X2024000D01*
Y4739083D01*
X2025042D01*
Y4739604D01*
X2025562D01*
Y4740125D01*
X2026604D01*
Y4740646D01*
X2027646D01*
Y4741167D01*
X2028688D01*
Y4741688D01*
X2031292D01*
Y4742208D01*
X2034417D01*
Y4742729D01*
X2037542D01*
Y4742208D01*
D02*
G37*
G36*
X2043271Y4676583D02*
Y4676062D01*
Y4673979D01*
X2042750D01*
Y4673458D01*
X2038062D01*
Y4673979D01*
X2037542D01*
Y4675021D01*
X2037021D01*
Y4679188D01*
X2037542D01*
Y4680229D01*
X2043271D01*
Y4676583D01*
D02*
G37*
G36*
X2597438Y4681271D02*
X2600042D01*
Y4680750D01*
X2601083D01*
Y4680229D01*
X2603167D01*
Y4679708D01*
X2603688D01*
Y4679188D01*
X2605250D01*
Y4678667D01*
X2605771D01*
Y4678146D01*
X2606292D01*
Y4677625D01*
X2607333D01*
Y4677104D01*
X2607854D01*
Y4676583D01*
X2608375D01*
Y4676062D01*
X2609417D01*
Y4675542D01*
X2609938D01*
Y4675021D01*
X2610458D01*
Y4674500D01*
X2610979D01*
Y4673458D01*
X2611500D01*
Y4672938D01*
X2612021D01*
Y4671896D01*
X2612542D01*
Y4671375D01*
X2613062D01*
Y4670333D01*
X2613583D01*
Y4669812D01*
X2614104D01*
Y4668250D01*
X2614625D01*
Y4667208D01*
X2615146D01*
Y4666167D01*
X2614625D01*
Y4665646D01*
X2613062D01*
Y4665125D01*
X2610458D01*
Y4664604D01*
X2608375D01*
Y4665646D01*
X2607854D01*
Y4666167D01*
X2607333D01*
Y4667208D01*
X2606812D01*
Y4668250D01*
X2606292D01*
Y4669292D01*
X2605771D01*
Y4669812D01*
X2605250D01*
Y4670333D01*
X2604729D01*
Y4671375D01*
X2603688D01*
Y4671896D01*
X2603167D01*
Y4672417D01*
X2602646D01*
Y4672938D01*
X2601604D01*
Y4673458D01*
X2601083D01*
Y4673979D01*
X2600042D01*
Y4674500D01*
X2598479D01*
Y4675021D01*
X2597958D01*
Y4675542D01*
X2594833D01*
Y4676062D01*
X2588583D01*
Y4675542D01*
X2585979D01*
Y4675021D01*
X2584938D01*
Y4674500D01*
X2583375D01*
Y4673979D01*
X2582333D01*
Y4673458D01*
X2581812D01*
Y4672938D01*
X2580771D01*
Y4672417D01*
X2580250D01*
Y4671896D01*
X2579729D01*
Y4671375D01*
X2579208D01*
Y4670854D01*
X2578688D01*
Y4670333D01*
X2578167D01*
Y4669812D01*
X2577646D01*
Y4669292D01*
X2577125D01*
Y4668250D01*
X2576604D01*
Y4667208D01*
X2576083D01*
Y4666688D01*
X2575562D01*
Y4665125D01*
X2575042D01*
Y4664083D01*
X2574521D01*
Y4662521D01*
X2574000D01*
Y4658875D01*
X2573479D01*
Y4651062D01*
X2574000D01*
Y4648979D01*
X2574521D01*
Y4646375D01*
X2575042D01*
Y4644812D01*
X2575562D01*
Y4643250D01*
X2576083D01*
Y4642208D01*
X2576604D01*
Y4641688D01*
X2577125D01*
Y4640646D01*
X2577646D01*
Y4640125D01*
X2578167D01*
Y4639083D01*
X2578688D01*
Y4638562D01*
X2579208D01*
Y4638042D01*
X2579729D01*
Y4637521D01*
X2580771D01*
Y4637000D01*
X2581292D01*
Y4636479D01*
X2581812D01*
Y4635958D01*
X2582333D01*
Y4635438D01*
X2583896D01*
Y4634917D01*
X2584938D01*
Y4634396D01*
X2586500D01*
Y4633875D01*
X2589625D01*
Y4633354D01*
X2593271D01*
Y4633875D01*
X2596917D01*
Y4634396D01*
X2598479D01*
Y4634917D01*
X2599000D01*
Y4635438D01*
X2600562D01*
Y4635958D01*
X2601083D01*
Y4636479D01*
X2601604D01*
Y4637000D01*
X2602646D01*
Y4637521D01*
X2603167D01*
Y4638042D01*
X2604208D01*
Y4638562D01*
X2604729D01*
Y4639604D01*
X2605250D01*
Y4640125D01*
X2605771D01*
Y4641167D01*
X2606292D01*
Y4641688D01*
X2606812D01*
Y4642729D01*
X2607333D01*
Y4644292D01*
X2607854D01*
Y4645333D01*
X2608375D01*
Y4648458D01*
X2609417D01*
Y4648979D01*
X2610458D01*
Y4648458D01*
X2613062D01*
Y4647938D01*
X2615667D01*
Y4647417D01*
X2616188D01*
Y4646375D01*
X2615667D01*
Y4644812D01*
X2615146D01*
Y4643250D01*
X2614625D01*
Y4642208D01*
X2614104D01*
Y4640646D01*
X2613583D01*
Y4640125D01*
X2613062D01*
Y4639604D01*
X2612542D01*
Y4638042D01*
X2612021D01*
Y4637521D01*
X2611500D01*
Y4637000D01*
X2610979D01*
Y4636479D01*
X2610458D01*
Y4635958D01*
X2609938D01*
Y4635438D01*
X2609417D01*
Y4634396D01*
X2608896D01*
Y4633875D01*
X2608375D01*
Y4633354D01*
X2607333D01*
Y4632833D01*
X2606812D01*
Y4632312D01*
X2605771D01*
Y4631792D01*
X2605250D01*
Y4631271D01*
X2604729D01*
Y4630750D01*
X2603688D01*
Y4630229D01*
X2602125D01*
Y4629708D01*
X2601604D01*
Y4629188D01*
X2599521D01*
Y4628667D01*
X2598479D01*
Y4628146D01*
X2593271D01*
Y4627625D01*
X2588583D01*
Y4628146D01*
X2583375D01*
Y4628667D01*
X2582333D01*
Y4629188D01*
X2580771D01*
Y4629708D01*
X2579729D01*
Y4630229D01*
X2578688D01*
Y4630750D01*
X2577646D01*
Y4631271D01*
X2577125D01*
Y4631792D01*
X2575562D01*
Y4632312D01*
X2575042D01*
Y4632833D01*
X2574521D01*
Y4633354D01*
X2574000D01*
Y4633875D01*
X2573479D01*
Y4634396D01*
X2572958D01*
Y4634917D01*
X2572438D01*
Y4635958D01*
X2571917D01*
Y4636479D01*
X2571396D01*
Y4637000D01*
X2570875D01*
Y4637521D01*
X2570354D01*
Y4638562D01*
X2569833D01*
Y4639604D01*
X2569312D01*
Y4640125D01*
X2568792D01*
Y4641167D01*
X2568271D01*
Y4643250D01*
X2567750D01*
Y4643771D01*
X2567229D01*
Y4646896D01*
X2566708D01*
Y4647938D01*
X2566188D01*
Y4651062D01*
X2565667D01*
Y4658354D01*
X2566188D01*
Y4661479D01*
X2566708D01*
Y4662521D01*
X2567229D01*
Y4665646D01*
X2567750D01*
Y4666688D01*
X2568271D01*
Y4668250D01*
X2568792D01*
Y4669292D01*
X2569312D01*
Y4669812D01*
X2569833D01*
Y4670854D01*
X2570354D01*
Y4671375D01*
X2570875D01*
Y4672417D01*
X2571396D01*
Y4672938D01*
X2571917D01*
Y4673979D01*
X2572438D01*
Y4674500D01*
X2572958D01*
Y4675021D01*
X2573479D01*
Y4675542D01*
X2574000D01*
Y4676062D01*
X2574521D01*
Y4676583D01*
X2575562D01*
Y4677104D01*
X2576083D01*
Y4677625D01*
X2577125D01*
Y4678146D01*
X2578167D01*
Y4678667D01*
X2578688D01*
Y4679188D01*
X2580250D01*
Y4679708D01*
X2580771D01*
Y4680229D01*
X2582854D01*
Y4680750D01*
X2583896D01*
Y4681271D01*
X2585458D01*
Y4681792D01*
X2597438D01*
Y4681271D01*
D02*
G37*
G36*
X2679729Y4663562D02*
X2680771D01*
Y4663042D01*
X2682333D01*
Y4662521D01*
X2682854D01*
Y4662000D01*
X2683896D01*
Y4661479D01*
X2684417D01*
Y4660958D01*
X2684938D01*
Y4660438D01*
X2685458D01*
Y4659917D01*
X2685979D01*
Y4658875D01*
X2686500D01*
Y4657833D01*
X2687021D01*
Y4656271D01*
X2687542D01*
Y4629188D01*
X2682333D01*
Y4629708D01*
X2681812D01*
Y4654188D01*
X2681292D01*
Y4655229D01*
X2680771D01*
Y4656271D01*
X2680250D01*
Y4656792D01*
X2679208D01*
Y4657312D01*
X2678688D01*
Y4657833D01*
X2677646D01*
Y4658354D01*
X2675562D01*
Y4658875D01*
X2672438D01*
Y4658354D01*
X2670354D01*
Y4657833D01*
X2669833D01*
Y4657312D01*
X2668792D01*
Y4656792D01*
X2668271D01*
Y4656271D01*
X2667750D01*
Y4655750D01*
X2667229D01*
Y4655229D01*
X2666708D01*
Y4654708D01*
X2666188D01*
Y4653667D01*
X2665667D01*
Y4652104D01*
X2665146D01*
Y4629708D01*
X2664625D01*
Y4629188D01*
X2659938D01*
Y4629708D01*
X2659417D01*
Y4630229D01*
X2658896D01*
Y4660958D01*
Y4661479D01*
Y4662521D01*
X2659417D01*
Y4663042D01*
X2664625D01*
Y4662521D01*
X2665146D01*
Y4659917D01*
X2666188D01*
Y4660438D01*
X2666708D01*
Y4660958D01*
X2667229D01*
Y4661479D01*
X2667750D01*
Y4662000D01*
X2668792D01*
Y4662521D01*
X2669833D01*
Y4663042D01*
X2670875D01*
Y4663562D01*
X2671917D01*
Y4664083D01*
X2679729D01*
Y4663562D01*
D02*
G37*
G36*
X2772958D02*
X2773479D01*
Y4657833D01*
X2772958D01*
Y4657312D01*
X2768271D01*
Y4656792D01*
X2766708D01*
Y4656271D01*
X2766188D01*
Y4655750D01*
X2765146D01*
Y4655229D01*
X2764625D01*
Y4654188D01*
X2764104D01*
Y4653667D01*
X2763583D01*
Y4653146D01*
X2763062D01*
Y4652104D01*
X2762542D01*
Y4648979D01*
X2762021D01*
Y4629708D01*
X2761500D01*
Y4629188D01*
X2756812D01*
Y4629708D01*
X2756292D01*
Y4658875D01*
Y4659396D01*
Y4663042D01*
X2761500D01*
Y4662521D01*
X2762021D01*
Y4659396D01*
X2763583D01*
Y4659917D01*
X2764104D01*
Y4660438D01*
X2764625D01*
Y4660958D01*
X2765146D01*
Y4661479D01*
X2766188D01*
Y4662000D01*
X2767229D01*
Y4662521D01*
X2768271D01*
Y4663042D01*
X2770354D01*
Y4663562D01*
X2771917D01*
Y4664083D01*
X2772958D01*
Y4663562D01*
D02*
G37*
G36*
X2069312Y4663042D02*
X2069833D01*
Y4657833D01*
X2069312D01*
Y4657312D01*
X2063583D01*
Y4656792D01*
X2062542D01*
Y4656271D01*
X2062021D01*
Y4655750D01*
X2061500D01*
Y4655229D01*
X2060979D01*
Y4654708D01*
X2060458D01*
Y4654188D01*
X2059938D01*
Y4653667D01*
X2059417D01*
Y4652625D01*
X2058896D01*
Y4650542D01*
X2058375D01*
Y4647417D01*
X2057854D01*
Y4631271D01*
Y4630750D01*
Y4629708D01*
X2057333D01*
Y4629188D01*
X2053167D01*
Y4629708D01*
X2052646D01*
Y4662521D01*
X2053167D01*
Y4663042D01*
X2057333D01*
Y4662521D01*
X2057854D01*
Y4658875D01*
X2059417D01*
Y4659396D01*
X2059938D01*
Y4659917D01*
X2060458D01*
Y4660438D01*
X2060979D01*
Y4660958D01*
X2061500D01*
Y4661479D01*
X2062542D01*
Y4662000D01*
X2063062D01*
Y4662521D01*
X2064104D01*
Y4663042D01*
X2066708D01*
Y4663562D01*
X2069312D01*
Y4663042D01*
D02*
G37*
G36*
X2466708Y4663562D02*
X2467229D01*
Y4663042D01*
X2467750D01*
Y4657833D01*
X2466708D01*
Y4657312D01*
X2462542D01*
Y4656792D01*
X2460979D01*
Y4656271D01*
X2459938D01*
Y4655750D01*
X2459417D01*
Y4655229D01*
X2458896D01*
Y4654708D01*
X2458375D01*
Y4654188D01*
X2457854D01*
Y4653667D01*
Y4653146D01*
X2457333D01*
Y4652104D01*
X2456812D01*
Y4648979D01*
X2456292D01*
Y4647417D01*
X2455771D01*
Y4629708D01*
X2455250D01*
Y4629188D01*
X2450042D01*
Y4661479D01*
X2449521D01*
Y4662000D01*
X2450042D01*
Y4663042D01*
X2455771D01*
Y4658875D01*
X2456292D01*
Y4658354D01*
X2456812D01*
Y4658875D01*
X2457333D01*
Y4659396D01*
X2457854D01*
Y4659917D01*
X2458375D01*
Y4660438D01*
X2458896D01*
Y4660958D01*
X2459417D01*
Y4661479D01*
X2459938D01*
Y4662000D01*
X2461500D01*
Y4662521D01*
X2462021D01*
Y4663042D01*
X2464625D01*
Y4663562D01*
X2466188D01*
Y4664083D01*
X2466708D01*
Y4663562D01*
D02*
G37*
G36*
X2492750D02*
X2494312D01*
Y4663042D01*
X2495875D01*
Y4662521D01*
X2496917D01*
Y4662000D01*
X2497958D01*
Y4661479D01*
X2498479D01*
Y4660958D01*
X2499000D01*
Y4660438D01*
X2500042D01*
Y4659917D01*
X2500562D01*
Y4658875D01*
X2501083D01*
Y4658354D01*
X2501604D01*
Y4657833D01*
X2502125D01*
Y4656792D01*
X2502646D01*
Y4655229D01*
X2503167D01*
Y4653667D01*
X2503688D01*
Y4653146D01*
X2503167D01*
Y4652625D01*
X2497438D01*
Y4653146D01*
X2496917D01*
Y4654708D01*
X2496396D01*
Y4655750D01*
X2495875D01*
Y4656271D01*
X2495354D01*
Y4657312D01*
X2494833D01*
Y4657833D01*
X2494312D01*
Y4658354D01*
X2493271D01*
Y4658875D01*
X2492750D01*
Y4659396D01*
X2489625D01*
Y4659917D01*
X2485458D01*
Y4659396D01*
X2483896D01*
Y4658875D01*
X2482854D01*
Y4658354D01*
X2482333D01*
Y4657833D01*
X2481292D01*
Y4657312D01*
X2480771D01*
Y4656792D01*
X2480250D01*
Y4655750D01*
X2479729D01*
Y4655229D01*
X2479208D01*
Y4654188D01*
X2478688D01*
Y4652104D01*
X2478167D01*
Y4650542D01*
X2477646D01*
Y4647938D01*
X2477125D01*
Y4646896D01*
X2477646D01*
Y4646375D01*
X2477125D01*
Y4644812D01*
X2477646D01*
Y4642208D01*
X2478167D01*
Y4641167D01*
X2478688D01*
Y4638562D01*
X2479208D01*
Y4638042D01*
X2479729D01*
Y4637000D01*
X2480250D01*
Y4636479D01*
X2480771D01*
Y4635958D01*
X2481292D01*
Y4635438D01*
X2481812D01*
Y4634917D01*
X2482333D01*
Y4634396D01*
X2482854D01*
Y4633875D01*
X2483896D01*
Y4633354D01*
X2484938D01*
Y4632833D01*
X2491708D01*
Y4633354D01*
X2492750D01*
Y4633875D01*
X2493792D01*
Y4634396D01*
X2494833D01*
Y4634917D01*
X2495354D01*
Y4635958D01*
X2495875D01*
Y4636479D01*
X2496396D01*
Y4637000D01*
X2496917D01*
Y4639083D01*
X2497438D01*
Y4640125D01*
X2497958D01*
Y4641167D01*
X2498479D01*
Y4641688D01*
X2499000D01*
Y4642208D01*
X2500042D01*
Y4641688D01*
X2503688D01*
Y4641167D01*
X2504208D01*
Y4639083D01*
X2503688D01*
Y4638042D01*
X2503167D01*
Y4637000D01*
X2502646D01*
Y4635438D01*
X2502125D01*
Y4634917D01*
X2501604D01*
Y4633875D01*
X2501083D01*
Y4632833D01*
X2500562D01*
Y4632312D01*
X2500042D01*
Y4631792D01*
X2499000D01*
Y4631271D01*
X2498479D01*
Y4630750D01*
X2497958D01*
Y4630229D01*
X2496917D01*
Y4629708D01*
X2496396D01*
Y4629188D01*
X2494312D01*
Y4628667D01*
X2493271D01*
Y4628146D01*
X2482854D01*
Y4628667D01*
X2482333D01*
Y4629188D01*
X2480250D01*
Y4629708D01*
X2479208D01*
Y4630229D01*
X2478167D01*
Y4630750D01*
X2477646D01*
Y4631271D01*
X2477125D01*
Y4631792D01*
X2476604D01*
Y4632312D01*
X2476083D01*
Y4632833D01*
X2475562D01*
Y4633354D01*
X2475042D01*
Y4633875D01*
X2474521D01*
Y4634396D01*
X2474000D01*
Y4634917D01*
X2473479D01*
Y4636479D01*
X2472958D01*
Y4637000D01*
X2472438D01*
Y4639083D01*
X2471917D01*
Y4639604D01*
X2471396D01*
Y4652104D01*
X2471917D01*
Y4653146D01*
X2472438D01*
Y4655229D01*
X2472958D01*
Y4655750D01*
X2473479D01*
Y4656792D01*
X2474000D01*
Y4657833D01*
X2474521D01*
Y4658875D01*
X2475042D01*
Y4659396D01*
X2475562D01*
Y4659917D01*
X2476083D01*
Y4660438D01*
X2476604D01*
Y4660958D01*
X2477646D01*
Y4661479D01*
X2478167D01*
Y4662000D01*
X2479208D01*
Y4662521D01*
X2480250D01*
Y4663042D01*
X2481812D01*
Y4663562D01*
X2482854D01*
Y4664083D01*
X2492750D01*
Y4663562D01*
D02*
G37*
G36*
X2358375D02*
X2359938D01*
Y4663042D01*
X2360979D01*
Y4662521D01*
X2362021D01*
Y4662000D01*
X2363062D01*
Y4661479D01*
X2363583D01*
Y4660958D01*
X2364104D01*
Y4660438D01*
X2364625D01*
Y4659917D01*
X2365146D01*
Y4659396D01*
X2365667D01*
Y4658875D01*
X2366188D01*
Y4658354D01*
X2366708D01*
Y4657312D01*
X2367229D01*
Y4655229D01*
X2367750D01*
Y4654708D01*
X2368271D01*
Y4653146D01*
X2367750D01*
Y4652625D01*
X2361500D01*
Y4653146D01*
X2360979D01*
Y4656271D01*
X2360458D01*
Y4656792D01*
X2359938D01*
Y4657312D01*
X2359417D01*
Y4657833D01*
X2358896D01*
Y4658354D01*
X2357854D01*
Y4658875D01*
X2356812D01*
Y4659396D01*
X2350042D01*
Y4658875D01*
X2349000D01*
Y4658354D01*
X2348479D01*
Y4657833D01*
X2347438D01*
Y4656792D01*
X2346917D01*
Y4653146D01*
X2347438D01*
Y4652104D01*
X2348479D01*
Y4651583D01*
X2349000D01*
Y4651062D01*
X2350562D01*
Y4650542D01*
X2352125D01*
Y4650021D01*
X2354729D01*
Y4649500D01*
X2356292D01*
Y4648979D01*
X2359417D01*
Y4648458D01*
X2360458D01*
Y4647938D01*
X2362021D01*
Y4647417D01*
X2363583D01*
Y4646896D01*
X2364625D01*
Y4646375D01*
X2365146D01*
Y4645854D01*
X2366188D01*
Y4645333D01*
X2366708D01*
Y4644812D01*
X2367229D01*
Y4643771D01*
X2367750D01*
Y4643250D01*
X2368271D01*
Y4640125D01*
X2368792D01*
Y4637000D01*
X2368271D01*
Y4634396D01*
X2367750D01*
Y4633875D01*
X2367229D01*
Y4632833D01*
X2366708D01*
Y4632312D01*
X2366188D01*
Y4631792D01*
X2365667D01*
Y4631271D01*
X2365146D01*
Y4630750D01*
X2364625D01*
Y4630229D01*
X2363583D01*
Y4629708D01*
X2363062D01*
Y4629188D01*
X2360979D01*
Y4628667D01*
X2359938D01*
Y4628146D01*
X2348479D01*
Y4628667D01*
X2347958D01*
Y4629188D01*
X2345875D01*
Y4629708D01*
X2345354D01*
Y4630229D01*
X2344312D01*
Y4630750D01*
X2343792D01*
Y4631271D01*
X2343271D01*
Y4631792D01*
X2342229D01*
Y4632833D01*
X2341708D01*
Y4633354D01*
X2341188D01*
Y4634917D01*
X2340667D01*
Y4635438D01*
X2340146D01*
Y4635958D01*
X2339625D01*
Y4639083D01*
X2339104D01*
Y4639604D01*
X2338583D01*
Y4640125D01*
X2339625D01*
Y4640646D01*
X2342750D01*
Y4641167D01*
X2345354D01*
Y4640646D01*
X2345875D01*
Y4637521D01*
X2346396D01*
Y4636479D01*
X2346917D01*
Y4635958D01*
X2347438D01*
Y4634917D01*
X2347958D01*
Y4634396D01*
X2349000D01*
Y4633875D01*
X2349521D01*
Y4633354D01*
X2350042D01*
Y4632833D01*
X2359417D01*
Y4633354D01*
X2359938D01*
Y4633875D01*
X2360979D01*
Y4634396D01*
X2361500D01*
Y4634917D01*
X2362021D01*
Y4635958D01*
X2362542D01*
Y4640125D01*
X2362021D01*
Y4641167D01*
X2361500D01*
Y4641688D01*
X2360979D01*
Y4642208D01*
X2359938D01*
Y4642729D01*
X2357854D01*
Y4643250D01*
X2355771D01*
Y4643771D01*
X2354208D01*
Y4644292D01*
X2351083D01*
Y4644812D01*
X2350042D01*
Y4645333D01*
X2347438D01*
Y4645854D01*
X2346396D01*
Y4646375D01*
X2345354D01*
Y4646896D01*
X2344312D01*
Y4647417D01*
X2343792D01*
Y4647938D01*
X2342750D01*
Y4648458D01*
X2342229D01*
Y4649500D01*
X2341708D01*
Y4650021D01*
X2341188D01*
Y4658354D01*
X2341708D01*
Y4659396D01*
X2342229D01*
Y4660438D01*
X2342750D01*
Y4660958D01*
X2343792D01*
Y4661479D01*
X2344312D01*
Y4662000D01*
X2345354D01*
Y4662521D01*
X2345875D01*
Y4663042D01*
X2347438D01*
Y4663562D01*
X2348479D01*
Y4664083D01*
X2358375D01*
Y4663562D01*
D02*
G37*
G36*
X2217750D02*
X2218792D01*
Y4663042D01*
X2220875D01*
Y4662521D01*
X2221396D01*
Y4662000D01*
X2222438D01*
Y4661479D01*
X2222958D01*
Y4660958D01*
X2224000D01*
Y4660438D01*
X2224521D01*
Y4659917D01*
X2225042D01*
Y4658875D01*
X2225562D01*
Y4658354D01*
X2226083D01*
Y4657312D01*
X2226604D01*
Y4656792D01*
X2227125D01*
Y4653146D01*
X2226604D01*
Y4652625D01*
X2221396D01*
Y4653146D01*
X2220875D01*
Y4655750D01*
X2220354D01*
Y4656271D01*
X2219833D01*
Y4656792D01*
X2219312D01*
Y4657312D01*
X2218792D01*
Y4657833D01*
X2218271D01*
Y4658354D01*
X2217229D01*
Y4658875D01*
X2216188D01*
Y4659396D01*
X2208896D01*
Y4658875D01*
X2208375D01*
Y4658354D01*
X2207333D01*
Y4657833D01*
X2206812D01*
Y4657312D01*
X2206292D01*
Y4656271D01*
X2205771D01*
Y4655750D01*
X2205250D01*
Y4654708D01*
X2205771D01*
Y4653667D01*
X2206292D01*
Y4653146D01*
X2206812D01*
Y4652104D01*
X2207333D01*
Y4651583D01*
X2208375D01*
Y4651062D01*
X2209938D01*
Y4650542D01*
X2210979D01*
Y4650021D01*
X2213583D01*
Y4649500D01*
X2214625D01*
Y4648979D01*
X2217750D01*
Y4648458D01*
X2219312D01*
Y4647938D01*
X2221917D01*
Y4647417D01*
X2222438D01*
Y4646896D01*
X2223479D01*
Y4646375D01*
X2224521D01*
Y4645854D01*
X2225042D01*
Y4645333D01*
X2225562D01*
Y4644812D01*
X2226604D01*
Y4644292D01*
X2227125D01*
Y4643250D01*
X2227646D01*
Y4642208D01*
X2228167D01*
Y4640646D01*
X2228688D01*
Y4636479D01*
X2228167D01*
Y4635438D01*
X2227646D01*
Y4634917D01*
X2227125D01*
Y4632833D01*
X2226083D01*
Y4632312D01*
X2225562D01*
Y4631792D01*
X2225042D01*
Y4631271D01*
X2224521D01*
Y4630750D01*
X2224000D01*
Y4630229D01*
X2222958D01*
Y4629708D01*
X2221917D01*
Y4629188D01*
X2220875D01*
Y4628667D01*
X2219833D01*
Y4628146D01*
X2207854D01*
Y4628667D01*
X2207333D01*
Y4629188D01*
X2205250D01*
Y4629708D01*
X2204208D01*
Y4630229D01*
X2203688D01*
Y4630750D01*
X2203167D01*
Y4631271D01*
X2202125D01*
Y4631792D01*
X2201604D01*
Y4632833D01*
X2201083D01*
Y4633354D01*
X2200562D01*
Y4633875D01*
X2200042D01*
Y4634396D01*
X2199521D01*
Y4637000D01*
X2199000D01*
Y4637521D01*
X2198479D01*
Y4640125D01*
X2199521D01*
Y4640646D01*
X2202646D01*
Y4641167D01*
X2204729D01*
Y4640646D01*
X2205250D01*
Y4637000D01*
X2205771D01*
Y4636479D01*
X2206292D01*
Y4635438D01*
X2206812D01*
Y4634917D01*
X2207333D01*
Y4634396D01*
X2207854D01*
Y4633875D01*
X2208896D01*
Y4633354D01*
X2209938D01*
Y4632833D01*
X2218792D01*
Y4633354D01*
X2219312D01*
Y4633875D01*
X2220354D01*
Y4634396D01*
X2220875D01*
Y4634917D01*
X2221396D01*
Y4635958D01*
X2221917D01*
Y4636479D01*
X2222438D01*
Y4639604D01*
X2221917D01*
Y4640646D01*
X2221396D01*
Y4641167D01*
X2220875D01*
Y4641688D01*
X2220354D01*
Y4642208D01*
X2219312D01*
Y4642729D01*
X2217229D01*
Y4643250D01*
X2215667D01*
Y4643771D01*
X2213583D01*
Y4644292D01*
X2209938D01*
Y4644812D01*
X2208375D01*
Y4645333D01*
X2206292D01*
Y4645854D01*
X2205771D01*
Y4646375D01*
X2204729D01*
Y4646896D01*
X2203167D01*
Y4647417D01*
X2202646D01*
Y4647938D01*
X2202125D01*
Y4648458D01*
X2201604D01*
Y4648979D01*
X2201083D01*
Y4649500D01*
X2200562D01*
Y4651062D01*
X2200042D01*
Y4652104D01*
X2199521D01*
Y4656271D01*
X2200042D01*
Y4657312D01*
X2200562D01*
Y4658875D01*
X2201083D01*
Y4659396D01*
X2201604D01*
Y4659917D01*
X2202125D01*
Y4660438D01*
X2202646D01*
Y4660958D01*
X2203167D01*
Y4661479D01*
X2203688D01*
Y4662000D01*
X2204208D01*
Y4662521D01*
X2205250D01*
Y4663042D01*
X2206812D01*
Y4663562D01*
X2208375D01*
Y4664083D01*
X2217750D01*
Y4663562D01*
D02*
G37*
G36*
X2182854D02*
X2183896D01*
Y4663042D01*
X2185979D01*
Y4662521D01*
X2186500D01*
Y4662000D01*
X2187542D01*
Y4661479D01*
X2188583D01*
Y4660958D01*
X2189104D01*
Y4660438D01*
X2189625D01*
Y4659917D01*
X2190146D01*
Y4659396D01*
X2190667D01*
Y4658354D01*
X2191188D01*
Y4657312D01*
X2191708D01*
Y4656792D01*
X2192229D01*
Y4654708D01*
X2192750D01*
Y4653146D01*
X2192229D01*
Y4652625D01*
X2187021D01*
Y4652104D01*
X2186500D01*
Y4652625D01*
X2185979D01*
Y4655750D01*
X2185458D01*
Y4656271D01*
X2184938D01*
Y4656792D01*
X2184417D01*
Y4657312D01*
X2183896D01*
Y4657833D01*
X2183375D01*
Y4658354D01*
X2182854D01*
Y4658875D01*
X2181812D01*
Y4659396D01*
X2174000D01*
Y4658875D01*
X2172958D01*
Y4658354D01*
X2172438D01*
Y4657833D01*
X2171917D01*
Y4656792D01*
X2171396D01*
Y4653146D01*
X2171917D01*
Y4652625D01*
X2172438D01*
Y4652104D01*
X2172958D01*
Y4651583D01*
X2173479D01*
Y4651062D01*
X2175042D01*
Y4650542D01*
X2176604D01*
Y4650021D01*
X2179208D01*
Y4649500D01*
X2180771D01*
Y4648979D01*
X2183896D01*
Y4648458D01*
X2185458D01*
Y4647938D01*
X2187021D01*
Y4647417D01*
X2188062D01*
Y4646896D01*
X2189104D01*
Y4646375D01*
X2189625D01*
Y4645854D01*
X2190146D01*
Y4645333D01*
X2191188D01*
Y4644812D01*
X2191708D01*
Y4644292D01*
X2192229D01*
Y4643250D01*
X2192750D01*
Y4642729D01*
X2193271D01*
Y4634917D01*
X2192750D01*
Y4634396D01*
X2192229D01*
Y4633354D01*
X2191708D01*
Y4632833D01*
X2191188D01*
Y4632312D01*
X2190667D01*
Y4631792D01*
X2190146D01*
Y4631271D01*
X2189625D01*
Y4630750D01*
X2189104D01*
Y4630229D01*
X2188583D01*
Y4629708D01*
X2187542D01*
Y4629188D01*
X2185458D01*
Y4628667D01*
X2184417D01*
Y4628146D01*
X2172958D01*
Y4628667D01*
X2172438D01*
Y4629188D01*
X2170354D01*
Y4629708D01*
X2169833D01*
Y4630229D01*
X2168792D01*
Y4630750D01*
X2168271D01*
Y4631271D01*
X2167750D01*
Y4631792D01*
X2167229D01*
Y4632312D01*
X2166708D01*
Y4632833D01*
X2166188D01*
Y4633354D01*
X2165667D01*
Y4634396D01*
X2165146D01*
Y4635438D01*
X2164625D01*
Y4636479D01*
X2164104D01*
Y4639083D01*
X2163583D01*
Y4640125D01*
X2165667D01*
Y4640646D01*
X2167750D01*
Y4641167D01*
X2169833D01*
Y4640125D01*
X2170354D01*
Y4637000D01*
X2170875D01*
Y4636479D01*
X2171396D01*
Y4635958D01*
X2171917D01*
Y4634917D01*
X2172438D01*
Y4634396D01*
X2173479D01*
Y4633875D01*
X2174000D01*
Y4633354D01*
X2175042D01*
Y4632833D01*
X2183896D01*
Y4633354D01*
X2184417D01*
Y4633875D01*
X2185458D01*
Y4634396D01*
X2185979D01*
Y4634917D01*
X2186500D01*
Y4635438D01*
X2187021D01*
Y4640646D01*
X2186500D01*
Y4641167D01*
X2185979D01*
Y4641688D01*
X2184938D01*
Y4642208D01*
X2184417D01*
Y4642729D01*
X2181812D01*
Y4643250D01*
X2180250D01*
Y4643771D01*
X2178688D01*
Y4644292D01*
X2175562D01*
Y4644812D01*
X2174521D01*
Y4645333D01*
X2171917D01*
Y4645854D01*
X2170875D01*
Y4646375D01*
X2169833D01*
Y4646896D01*
X2168792D01*
Y4647417D01*
X2167750D01*
Y4647938D01*
X2167229D01*
Y4648458D01*
X2166708D01*
Y4648979D01*
X2166188D01*
Y4650021D01*
X2165667D01*
Y4652625D01*
X2165146D01*
Y4653667D01*
X2164625D01*
Y4655229D01*
X2165146D01*
Y4656271D01*
X2165667D01*
Y4656792D01*
Y4658354D01*
X2166188D01*
Y4659396D01*
X2166708D01*
Y4659917D01*
X2167229D01*
Y4660438D01*
X2167750D01*
Y4660958D01*
X2168271D01*
Y4661479D01*
X2168792D01*
Y4662000D01*
X2169833D01*
Y4662521D01*
X2170354D01*
Y4663042D01*
X2171917D01*
Y4663562D01*
X2173479D01*
Y4664083D01*
X2182854D01*
Y4663562D01*
D02*
G37*
G36*
X2033375Y4679708D02*
X2033896D01*
Y4679188D01*
X2033375D01*
Y4676583D01*
X2032854D01*
Y4675542D01*
X2032333D01*
Y4672938D01*
X2031812D01*
Y4671896D01*
X2031292D01*
Y4670854D01*
X2030771D01*
Y4668771D01*
X2030250D01*
Y4667729D01*
X2029729D01*
Y4665125D01*
X2029208D01*
Y4664083D01*
X2028688D01*
Y4661479D01*
X2028167D01*
Y4660438D01*
X2027646D01*
Y4658354D01*
X2027125D01*
Y4656792D01*
X2026604D01*
Y4655750D01*
X2026083D01*
Y4653146D01*
X2025562D01*
Y4652104D01*
X2025042D01*
Y4649500D01*
X2024521D01*
Y4648458D01*
X2024000D01*
Y4645854D01*
X2023479D01*
Y4644292D01*
X2022958D01*
Y4643250D01*
X2022438D01*
Y4641167D01*
X2021917D01*
Y4639604D01*
X2021396D01*
Y4637521D01*
X2020875D01*
Y4636479D01*
X2020354D01*
Y4633875D01*
X2019833D01*
Y4632833D01*
X2019312D01*
Y4630750D01*
X2018792D01*
Y4629708D01*
X2018271D01*
Y4629188D01*
X2012542D01*
Y4629708D01*
X2012021D01*
Y4630229D01*
X2011500D01*
Y4630750D01*
X2010979D01*
Y4633354D01*
X2010458D01*
Y4634396D01*
X2009938D01*
Y4636479D01*
X2009417D01*
Y4638042D01*
X2008896D01*
Y4639604D01*
X2008375D01*
Y4641688D01*
X2007854D01*
Y4642729D01*
X2007333D01*
Y4644812D01*
X2006812D01*
Y4646375D01*
X2006292D01*
Y4647938D01*
X2005771D01*
Y4649500D01*
X2005250D01*
Y4651062D01*
X2004729D01*
Y4652625D01*
X2004208D01*
Y4653667D01*
X2003688D01*
Y4655750D01*
X2003167D01*
Y4657312D01*
X2002646D01*
Y4658354D01*
X2002125D01*
Y4660958D01*
X2001604D01*
Y4661479D01*
X2001083D01*
Y4664083D01*
X2000562D01*
Y4665125D01*
X2000042D01*
Y4667208D01*
X1999521D01*
Y4668771D01*
X1999000D01*
Y4669292D01*
X1998479D01*
Y4669812D01*
X1997438D01*
Y4668250D01*
X1996917D01*
Y4666167D01*
X1996396D01*
Y4665646D01*
X1995875D01*
Y4663042D01*
X1995354D01*
Y4662000D01*
X1994833D01*
Y4659396D01*
X1994312D01*
Y4658354D01*
X1993792D01*
Y4656271D01*
X1993271D01*
Y4654708D01*
X1992750D01*
Y4653667D01*
X1992229D01*
Y4651062D01*
X1991708D01*
Y4650021D01*
X1991188D01*
Y4647938D01*
X1990667D01*
Y4646375D01*
X1990146D01*
Y4644292D01*
X1989625D01*
Y4642729D01*
X1989104D01*
Y4641688D01*
X1988583D01*
Y4639083D01*
X1988062D01*
Y4638042D01*
X1987542D01*
Y4635438D01*
X1987021D01*
Y4634396D01*
X1986500D01*
Y4632312D01*
X1985979D01*
Y4630750D01*
X1985458D01*
Y4630229D01*
X1984938D01*
Y4629708D01*
X1984417D01*
Y4629188D01*
X1978688D01*
Y4629708D01*
X1978167D01*
Y4631792D01*
X1977646D01*
Y4632833D01*
X1977125D01*
Y4634917D01*
X1976604D01*
Y4636479D01*
X1976083D01*
Y4638042D01*
X1975562D01*
Y4639604D01*
X1975042D01*
Y4641167D01*
X1974521D01*
Y4643250D01*
X1974000D01*
Y4644292D01*
X1973479D01*
Y4646896D01*
X1972958D01*
Y4647938D01*
X1972438D01*
Y4650021D01*
X1971917D01*
Y4651583D01*
X1971396D01*
Y4653146D01*
X1970875D01*
Y4655229D01*
X1970354D01*
Y4656271D01*
X1969833D01*
Y4658875D01*
X1969312D01*
Y4659917D01*
X1968792D01*
Y4661479D01*
X1968271D01*
Y4663562D01*
X1967750D01*
Y4665125D01*
X1967229D01*
Y4667208D01*
X1966708D01*
Y4668250D01*
X1966188D01*
Y4670333D01*
X1965667D01*
Y4671375D01*
X1965146D01*
Y4672417D01*
X1964625D01*
Y4675021D01*
X1964104D01*
Y4676062D01*
X1963583D01*
Y4678667D01*
X1963062D01*
Y4680229D01*
X1969833D01*
Y4679708D01*
X1970354D01*
Y4678667D01*
X1970875D01*
Y4675542D01*
X1971396D01*
Y4674500D01*
X1971917D01*
Y4672417D01*
X1972438D01*
Y4670854D01*
X1972958D01*
Y4669292D01*
X1973479D01*
Y4666688D01*
X1974000D01*
Y4665646D01*
X1974521D01*
Y4663042D01*
X1975042D01*
Y4662000D01*
X1975562D01*
Y4658875D01*
X1976083D01*
Y4657833D01*
X1976604D01*
Y4656792D01*
X1977125D01*
Y4654188D01*
X1977646D01*
Y4653146D01*
X1978167D01*
Y4650021D01*
X1978688D01*
Y4648979D01*
X1979208D01*
Y4646896D01*
X1979729D01*
Y4645333D01*
X1980250D01*
Y4642208D01*
X1980771D01*
Y4640646D01*
X1981292D01*
Y4640125D01*
X1981812D01*
Y4639604D01*
X1982854D01*
Y4641167D01*
X1983375D01*
Y4643250D01*
X1983896D01*
Y4644292D01*
X1984417D01*
Y4646375D01*
X1984938D01*
Y4647938D01*
X1985458D01*
Y4650021D01*
X1985979D01*
Y4651583D01*
X1986500D01*
Y4653667D01*
X1987021D01*
Y4655229D01*
X1987542D01*
Y4657833D01*
X1988062D01*
Y4658354D01*
X1988583D01*
Y4660438D01*
X1989104D01*
Y4662000D01*
X1989625D01*
Y4663562D01*
X1990146D01*
Y4666167D01*
X1990667D01*
Y4667208D01*
X1991188D01*
Y4669812D01*
X1991708D01*
Y4670854D01*
X1992229D01*
Y4671896D01*
X1992750D01*
Y4673979D01*
X1993271D01*
Y4675021D01*
X1993792D01*
Y4677625D01*
X1994312D01*
Y4678667D01*
X1994833D01*
Y4680229D01*
X2002125D01*
Y4678146D01*
X2002646D01*
Y4677104D01*
X2003167D01*
Y4675542D01*
X2003688D01*
Y4673458D01*
X2004208D01*
Y4672417D01*
X2004729D01*
Y4669812D01*
X2005250D01*
Y4668771D01*
X2005771D01*
Y4666167D01*
X2006292D01*
Y4665125D01*
X2006812D01*
Y4664083D01*
X2007333D01*
Y4661479D01*
X2007854D01*
Y4660958D01*
X2008375D01*
Y4659396D01*
Y4658875D01*
Y4658354D01*
X2008896D01*
Y4657312D01*
X2009417D01*
Y4655229D01*
X2009938D01*
Y4654188D01*
X2010458D01*
Y4652625D01*
X2010979D01*
Y4650542D01*
X2011500D01*
Y4649500D01*
X2012021D01*
Y4646896D01*
X2012542D01*
Y4645854D01*
X2013062D01*
Y4643250D01*
X2013583D01*
Y4642208D01*
X2014104D01*
Y4640646D01*
X2014625D01*
Y4639604D01*
X2015667D01*
Y4640125D01*
X2016188D01*
Y4641688D01*
X2016708D01*
Y4644292D01*
X2017229D01*
Y4645333D01*
X2017750D01*
Y4646896D01*
X2018271D01*
Y4649500D01*
X2018792D01*
Y4651062D01*
X2019312D01*
Y4653146D01*
X2019833D01*
Y4654708D01*
X2020354D01*
Y4657312D01*
X2020875D01*
Y4658875D01*
X2021396D01*
Y4660958D01*
X2021917D01*
Y4662521D01*
X2022438D01*
Y4664604D01*
X2022958D01*
Y4666688D01*
X2023479D01*
Y4667729D01*
X2024000D01*
Y4670333D01*
X2024521D01*
Y4671896D01*
X2025042D01*
Y4674500D01*
X2025562D01*
Y4675021D01*
X2026083D01*
Y4677625D01*
X2026604D01*
Y4679188D01*
X2027125D01*
Y4680229D01*
X2033375D01*
Y4679708D01*
D02*
G37*
G36*
X2513583Y4680229D02*
X2515146D01*
Y4660958D01*
X2516708D01*
Y4661479D01*
X2517229D01*
Y4662000D01*
X2518271D01*
Y4662521D01*
X2518792D01*
Y4663042D01*
X2520354D01*
Y4663562D01*
X2521917D01*
Y4664083D01*
X2530250D01*
Y4663562D01*
X2531812D01*
Y4663042D01*
X2532854D01*
Y4662521D01*
X2533375D01*
Y4662000D01*
X2534417D01*
Y4661479D01*
X2534938D01*
Y4660958D01*
X2535458D01*
Y4660438D01*
X2535979D01*
Y4659396D01*
X2536500D01*
Y4658875D01*
X2537021D01*
Y4657312D01*
X2537542D01*
Y4656271D01*
X2538062D01*
Y4629708D01*
X2537542D01*
Y4629188D01*
X2532333D01*
Y4630229D01*
X2531812D01*
Y4652625D01*
X2532333D01*
Y4653667D01*
X2531812D01*
Y4654708D01*
X2531292D01*
Y4655750D01*
X2530771D01*
Y4656792D01*
X2530250D01*
Y4657312D01*
X2529729D01*
Y4657833D01*
X2528688D01*
Y4658354D01*
X2527125D01*
Y4658875D01*
X2521917D01*
Y4658354D01*
X2520354D01*
Y4657833D01*
X2519312D01*
Y4657312D01*
X2518792D01*
Y4656792D01*
X2518271D01*
Y4656271D01*
X2517750D01*
Y4655750D01*
X2517229D01*
Y4654708D01*
X2516708D01*
Y4654188D01*
X2516188D01*
Y4651062D01*
X2515667D01*
Y4648979D01*
X2515146D01*
Y4629708D01*
X2514625D01*
Y4629188D01*
X2509938D01*
Y4629708D01*
X2509417D01*
Y4630229D01*
X2508896D01*
Y4679708D01*
X2509417D01*
Y4680229D01*
X2513062D01*
Y4680750D01*
X2513583D01*
Y4680229D01*
D02*
G37*
G36*
X2284938Y4679708D02*
X2285979D01*
Y4679188D01*
X2288062D01*
Y4678667D01*
X2288583D01*
Y4678146D01*
X2289625D01*
Y4677625D01*
X2290146D01*
Y4677104D01*
X2291188D01*
Y4676583D01*
X2291708D01*
Y4676062D01*
X2292229D01*
Y4675542D01*
X2292750D01*
Y4675021D01*
X2293271D01*
Y4673979D01*
X2293792D01*
Y4672938D01*
X2294312D01*
Y4672417D01*
X2294833D01*
Y4670333D01*
X2295354D01*
Y4669812D01*
X2295875D01*
Y4660958D01*
X2295354D01*
Y4660438D01*
X2294833D01*
Y4658354D01*
X2294312D01*
Y4657833D01*
X2293792D01*
Y4656792D01*
X2293271D01*
Y4656271D01*
X2292750D01*
Y4655750D01*
X2292229D01*
Y4655229D01*
X2291708D01*
Y4654708D01*
X2291188D01*
Y4654188D01*
X2290667D01*
Y4653667D01*
X2290146D01*
Y4653146D01*
X2289104D01*
Y4652625D01*
X2287542D01*
Y4652104D01*
X2286500D01*
Y4651583D01*
X2284938D01*
Y4651062D01*
X2284417D01*
Y4650021D01*
X2284938D01*
Y4648979D01*
X2285458D01*
Y4648458D01*
X2285979D01*
Y4647417D01*
X2286500D01*
Y4646896D01*
X2287021D01*
Y4646375D01*
X2287542D01*
Y4644812D01*
X2288062D01*
Y4644292D01*
X2288583D01*
Y4643250D01*
X2289104D01*
Y4642729D01*
X2289625D01*
Y4642208D01*
X2290146D01*
Y4641167D01*
X2290667D01*
Y4640125D01*
X2291188D01*
Y4639083D01*
X2292229D01*
Y4638042D01*
X2292750D01*
Y4637000D01*
X2293271D01*
Y4635958D01*
X2293792D01*
Y4635438D01*
X2294312D01*
Y4634917D01*
X2294833D01*
Y4633354D01*
X2295354D01*
Y4632833D01*
X2295875D01*
Y4632312D01*
X2296396D01*
Y4631792D01*
X2296917D01*
Y4630750D01*
X2297438D01*
Y4629708D01*
X2296917D01*
Y4629188D01*
X2289625D01*
Y4629708D01*
X2289104D01*
Y4630229D01*
X2288583D01*
Y4631271D01*
X2288062D01*
Y4631792D01*
X2287542D01*
Y4632833D01*
X2287021D01*
Y4633875D01*
X2286500D01*
Y4634917D01*
X2285979D01*
Y4635438D01*
X2285458D01*
Y4635958D01*
X2284938D01*
Y4637000D01*
X2284417D01*
Y4638042D01*
X2283896D01*
Y4638562D01*
X2283375D01*
Y4639083D01*
X2282854D01*
Y4640125D01*
X2282333D01*
Y4641167D01*
X2281812D01*
Y4642208D01*
X2281292D01*
Y4642729D01*
X2280771D01*
Y4643250D01*
X2280250D01*
Y4644812D01*
X2279729D01*
Y4645333D01*
X2279208D01*
Y4645854D01*
X2278688D01*
Y4646896D01*
X2278167D01*
Y4647417D01*
X2277646D01*
Y4648458D01*
X2277125D01*
Y4649500D01*
X2276604D01*
Y4650021D01*
X2276083D01*
Y4650542D01*
X2275562D01*
Y4651062D01*
X2264104D01*
Y4650542D01*
X2263583D01*
Y4639083D01*
Y4638562D01*
Y4629708D01*
X2263062D01*
Y4629188D01*
X2256292D01*
Y4630229D01*
X2255771D01*
Y4679188D01*
X2256292D01*
Y4680229D01*
X2284938D01*
Y4679708D01*
D02*
G37*
G36*
X2118271Y4629188D02*
X2113583D01*
Y4629708D01*
X2113062D01*
Y4650542D01*
Y4651062D01*
Y4679708D01*
X2113583D01*
Y4680229D01*
X2118271D01*
Y4629188D01*
D02*
G37*
G36*
X2043271D02*
X2037542D01*
Y4630229D01*
X2037021D01*
Y4662000D01*
X2037542D01*
Y4663042D01*
X2043271D01*
Y4629188D01*
D02*
G37*
G36*
X2737542Y4663562D02*
X2738583D01*
Y4663042D01*
X2740146D01*
Y4662521D01*
X2741188D01*
Y4662000D01*
X2742229D01*
Y4661479D01*
X2742750D01*
Y4660958D01*
X2743271D01*
Y4660438D01*
X2743792D01*
Y4659917D01*
X2744312D01*
Y4659396D01*
X2744833D01*
Y4658875D01*
X2745354D01*
Y4658354D01*
X2745875D01*
Y4657312D01*
X2746396D01*
Y4656792D01*
X2746917D01*
Y4655750D01*
X2747438D01*
Y4654188D01*
X2747958D01*
Y4653146D01*
X2748479D01*
Y4648979D01*
X2749000D01*
Y4645854D01*
X2748479D01*
Y4645333D01*
X2723479D01*
Y4644812D01*
X2722958D01*
Y4641688D01*
X2723479D01*
Y4640125D01*
X2724000D01*
Y4638562D01*
X2724521D01*
Y4637521D01*
X2725042D01*
Y4637000D01*
X2725562D01*
Y4636479D01*
X2726083D01*
Y4635958D01*
X2726604D01*
Y4635438D01*
X2727125D01*
Y4634917D01*
X2727646D01*
Y4634396D01*
X2728167D01*
Y4633875D01*
X2729208D01*
Y4633354D01*
X2730250D01*
Y4632833D01*
X2737542D01*
Y4633354D01*
X2738583D01*
Y4633875D01*
X2739104D01*
Y4634396D01*
X2739625D01*
Y4634917D01*
X2740146D01*
Y4635438D01*
X2740667D01*
Y4636479D01*
X2741188D01*
Y4637521D01*
X2741708D01*
Y4638042D01*
X2742229D01*
Y4639604D01*
X2742750D01*
Y4640125D01*
X2747958D01*
Y4639604D01*
X2748479D01*
Y4637000D01*
X2747958D01*
Y4636479D01*
X2747438D01*
Y4635958D01*
X2746917D01*
Y4634396D01*
X2746396D01*
Y4633875D01*
X2745875D01*
Y4633354D01*
X2745354D01*
Y4632833D01*
X2744833D01*
Y4632312D01*
X2744312D01*
Y4631792D01*
X2743792D01*
Y4631271D01*
X2743271D01*
Y4630750D01*
X2742750D01*
Y4630229D01*
X2741708D01*
Y4629708D01*
X2740667D01*
Y4629188D01*
X2739104D01*
Y4628667D01*
X2738062D01*
Y4628146D01*
X2728167D01*
Y4628667D01*
X2727125D01*
Y4629188D01*
X2725562D01*
Y4629708D01*
X2724521D01*
Y4630229D01*
X2724000D01*
Y4630750D01*
X2722958D01*
Y4631271D01*
X2722438D01*
Y4631792D01*
X2721917D01*
Y4632312D01*
X2721396D01*
Y4632833D01*
X2720875D01*
Y4633354D01*
X2720354D01*
Y4633875D01*
X2719833D01*
Y4634917D01*
X2719312D01*
Y4635438D01*
X2718792D01*
Y4636479D01*
X2718271D01*
Y4638042D01*
X2717750D01*
Y4639083D01*
X2717229D01*
Y4642729D01*
X2716708D01*
Y4650542D01*
X2717229D01*
Y4653146D01*
X2717750D01*
Y4654188D01*
X2718271D01*
Y4655750D01*
X2718792D01*
Y4656792D01*
X2719312D01*
Y4657833D01*
X2719833D01*
Y4658354D01*
X2720354D01*
Y4658875D01*
X2720875D01*
Y4659396D01*
X2721396D01*
Y4659917D01*
X2721917D01*
Y4660438D01*
X2722438D01*
Y4660958D01*
X2722958D01*
Y4661479D01*
X2724000D01*
Y4662000D01*
X2725042D01*
Y4662521D01*
X2726083D01*
Y4663042D01*
X2727125D01*
Y4663562D01*
X2728688D01*
Y4664083D01*
X2737542D01*
Y4663562D01*
D02*
G37*
G36*
X2704729Y4673458D02*
X2705250D01*
Y4663562D01*
X2705771D01*
Y4663042D01*
X2711500D01*
Y4662000D01*
X2712021D01*
Y4661479D01*
X2711500D01*
Y4658875D01*
X2710979D01*
Y4658354D01*
X2706292D01*
Y4657833D01*
X2705250D01*
Y4634396D01*
X2705771D01*
Y4633875D01*
X2706292D01*
Y4633354D01*
X2706812D01*
Y4632833D01*
X2707333D01*
Y4633354D01*
X2708375D01*
Y4632833D01*
X2708896D01*
Y4633354D01*
X2711500D01*
Y4629188D01*
X2710458D01*
Y4628667D01*
X2708375D01*
Y4628146D01*
X2703167D01*
Y4628667D01*
X2702125D01*
Y4629188D01*
X2700562D01*
Y4629708D01*
X2700042D01*
Y4630750D01*
X2699521D01*
Y4631792D01*
X2699000D01*
Y4633875D01*
X2698479D01*
Y4657833D01*
X2697958D01*
Y4658354D01*
X2693792D01*
Y4659396D01*
X2693271D01*
Y4662521D01*
X2693792D01*
Y4663042D01*
X2698479D01*
Y4673458D01*
X2699000D01*
Y4673979D01*
X2704729D01*
Y4673458D01*
D02*
G37*
G36*
X2640667Y4663562D02*
X2641708D01*
Y4663042D01*
X2643792D01*
Y4662521D01*
X2644312D01*
Y4662000D01*
X2645354D01*
Y4661479D01*
X2645875D01*
Y4660958D01*
X2646396D01*
Y4660438D01*
X2646917D01*
Y4659917D01*
X2647438D01*
Y4659396D01*
X2647958D01*
Y4658875D01*
X2648479D01*
Y4658354D01*
X2649000D01*
Y4657312D01*
X2649521D01*
Y4656271D01*
X2650042D01*
Y4655229D01*
X2650562D01*
Y4654188D01*
X2651083D01*
Y4652104D01*
X2651604D01*
Y4646896D01*
X2652125D01*
Y4646375D01*
X2651604D01*
Y4645854D01*
X2651083D01*
Y4645333D01*
X2626604D01*
Y4644812D01*
X2626083D01*
Y4640646D01*
X2626604D01*
Y4639604D01*
X2627125D01*
Y4638042D01*
X2627646D01*
Y4637521D01*
X2628167D01*
Y4636479D01*
X2628688D01*
Y4635958D01*
X2629208D01*
Y4635438D01*
X2629729D01*
Y4634917D01*
X2630250D01*
Y4634396D01*
X2631292D01*
Y4633875D01*
X2632333D01*
Y4633354D01*
X2633375D01*
Y4632833D01*
X2640667D01*
Y4633354D01*
X2641188D01*
Y4633875D01*
X2641708D01*
Y4634396D01*
X2642750D01*
Y4634917D01*
X2643271D01*
Y4635438D01*
X2643792D01*
Y4635958D01*
X2644312D01*
Y4637000D01*
X2644833D01*
Y4638042D01*
X2645354D01*
Y4639083D01*
X2645875D01*
Y4640125D01*
X2646396D01*
Y4640646D01*
X2647958D01*
Y4640125D01*
X2651083D01*
Y4639604D01*
X2651604D01*
Y4638042D01*
X2651083D01*
Y4637000D01*
X2650562D01*
Y4635958D01*
X2650042D01*
Y4634917D01*
X2649521D01*
Y4633875D01*
X2649000D01*
Y4633354D01*
X2648479D01*
Y4632833D01*
X2647958D01*
Y4631792D01*
X2646917D01*
Y4631271D01*
X2646396D01*
Y4630750D01*
X2645354D01*
Y4630229D01*
X2644833D01*
Y4629708D01*
X2643792D01*
Y4629188D01*
X2642229D01*
Y4628667D01*
X2641188D01*
Y4628146D01*
X2631292D01*
Y4628667D01*
X2630250D01*
Y4629188D01*
X2628688D01*
Y4629708D01*
X2627646D01*
Y4630229D01*
X2626604D01*
Y4630750D01*
X2626083D01*
Y4631271D01*
X2625562D01*
Y4631792D01*
X2625042D01*
Y4632312D01*
X2624521D01*
Y4632833D01*
X2624000D01*
Y4633354D01*
X2623479D01*
Y4633875D01*
X2622958D01*
Y4634396D01*
X2622438D01*
Y4635438D01*
X2621917D01*
Y4635958D01*
X2621396D01*
Y4637521D01*
X2620875D01*
Y4638562D01*
X2620354D01*
Y4640125D01*
X2619833D01*
Y4643250D01*
X2619312D01*
Y4649500D01*
X2619833D01*
Y4652625D01*
X2620354D01*
Y4654188D01*
X2620875D01*
Y4655229D01*
X2621396D01*
Y4655750D01*
Y4656271D01*
X2621917D01*
Y4656792D01*
X2622438D01*
Y4657833D01*
X2622958D01*
Y4658354D01*
X2623479D01*
Y4658875D01*
X2624000D01*
Y4659396D01*
X2624521D01*
Y4659917D01*
X2625042D01*
Y4660438D01*
X2625562D01*
Y4660958D01*
X2626083D01*
Y4661479D01*
X2627125D01*
Y4662000D01*
X2628167D01*
Y4662521D01*
X2628688D01*
Y4663042D01*
X2630771D01*
Y4663562D01*
X2631812D01*
Y4664083D01*
X2640667D01*
Y4663562D01*
D02*
G37*
G36*
X2430771D02*
X2432333D01*
Y4663042D01*
X2434417D01*
Y4662521D01*
X2434938D01*
Y4662000D01*
X2435979D01*
Y4661479D01*
X2437021D01*
Y4660958D01*
X2437542D01*
Y4660438D01*
X2438062D01*
Y4659396D01*
X2438583D01*
Y4658354D01*
X2439104D01*
Y4657833D01*
X2439625D01*
Y4654188D01*
X2440146D01*
Y4638042D01*
Y4637521D01*
Y4637000D01*
X2439625D01*
Y4636479D01*
X2440146D01*
Y4635438D01*
X2440667D01*
Y4634917D01*
X2441188D01*
Y4634396D01*
X2441708D01*
Y4633875D01*
X2444833D01*
Y4629708D01*
X2444312D01*
Y4629188D01*
X2443792D01*
Y4628667D01*
X2442229D01*
Y4628146D01*
X2439625D01*
Y4628667D01*
X2438062D01*
Y4629188D01*
X2437021D01*
Y4629708D01*
X2436500D01*
Y4630229D01*
X2435979D01*
Y4630750D01*
X2435458D01*
Y4631792D01*
X2434938D01*
Y4632833D01*
X2433896D01*
Y4632312D01*
X2433375D01*
Y4631792D01*
X2432854D01*
Y4631271D01*
X2432333D01*
Y4630750D01*
X2431292D01*
Y4630229D01*
X2430771D01*
Y4629708D01*
X2429729D01*
Y4629188D01*
X2428167D01*
Y4628667D01*
X2427125D01*
Y4628146D01*
X2419833D01*
Y4628667D01*
X2418792D01*
Y4629188D01*
X2416708D01*
Y4629708D01*
X2416188D01*
Y4630229D01*
X2415146D01*
Y4630750D01*
X2414625D01*
Y4631271D01*
X2414104D01*
Y4631792D01*
X2413583D01*
Y4632312D01*
X2413062D01*
Y4632833D01*
X2412542D01*
Y4633354D01*
X2412021D01*
Y4636479D01*
X2411500D01*
Y4637000D01*
X2410979D01*
Y4639083D01*
X2411500D01*
Y4639604D01*
X2412021D01*
Y4641688D01*
X2412542D01*
Y4642729D01*
X2413062D01*
Y4643250D01*
X2413583D01*
Y4644292D01*
X2414104D01*
Y4644812D01*
X2414625D01*
Y4645333D01*
X2415667D01*
Y4645854D01*
X2416188D01*
Y4646375D01*
X2416708D01*
Y4646896D01*
X2417750D01*
Y4647417D01*
X2418792D01*
Y4647938D01*
X2421396D01*
Y4648458D01*
X2422958D01*
Y4648979D01*
X2428167D01*
Y4649500D01*
X2432333D01*
Y4650021D01*
X2433375D01*
Y4650542D01*
X2433896D01*
Y4655750D01*
X2433375D01*
Y4656792D01*
X2432854D01*
Y4657312D01*
X2432333D01*
Y4658354D01*
X2431812D01*
Y4658875D01*
X2430771D01*
Y4659396D01*
X2423479D01*
Y4658875D01*
X2422438D01*
Y4658354D01*
X2421396D01*
Y4657833D01*
X2420875D01*
Y4656792D01*
X2420354D01*
Y4656271D01*
X2419833D01*
Y4654188D01*
X2419312D01*
Y4653146D01*
X2418792D01*
Y4652625D01*
X2416188D01*
Y4653146D01*
X2413583D01*
Y4656792D01*
X2414104D01*
Y4657312D01*
X2414625D01*
Y4658875D01*
X2415146D01*
Y4659396D01*
X2415667D01*
Y4659917D01*
X2416188D01*
Y4660958D01*
X2416708D01*
Y4661479D01*
X2417750D01*
Y4662000D01*
X2418271D01*
Y4662521D01*
X2419312D01*
Y4663042D01*
X2420875D01*
Y4663562D01*
X2421917D01*
Y4664083D01*
X2430771D01*
Y4663562D01*
D02*
G37*
G36*
X2395875D02*
X2396396D01*
Y4663042D01*
X2397958D01*
Y4662521D01*
X2399000D01*
Y4662000D01*
X2399521D01*
Y4661479D01*
X2400562D01*
Y4660958D01*
X2401083D01*
Y4660438D01*
X2401604D01*
Y4659917D01*
X2402125D01*
Y4659396D01*
X2402646D01*
Y4658875D01*
X2403167D01*
Y4657833D01*
X2403688D01*
Y4657312D01*
X2404208D01*
Y4656792D01*
X2404729D01*
Y4654708D01*
X2405250D01*
Y4654188D01*
X2405771D01*
Y4650542D01*
X2406292D01*
Y4646375D01*
X2405771D01*
Y4645333D01*
X2381292D01*
Y4644812D01*
X2380771D01*
Y4641167D01*
X2381292D01*
Y4640125D01*
X2381812D01*
Y4639083D01*
X2382333D01*
Y4638042D01*
X2382854D01*
Y4637521D01*
X2383375D01*
Y4636479D01*
X2383896D01*
Y4635438D01*
X2384938D01*
Y4634917D01*
X2385458D01*
Y4634396D01*
X2385979D01*
Y4633875D01*
X2387021D01*
Y4633354D01*
X2387542D01*
Y4632833D01*
X2395354D01*
Y4633354D01*
X2395875D01*
Y4633875D01*
X2396396D01*
Y4634396D01*
X2397438D01*
Y4634917D01*
X2397958D01*
Y4635438D01*
X2398479D01*
Y4636479D01*
X2399000D01*
Y4637521D01*
X2399521D01*
Y4638042D01*
X2400042D01*
Y4640125D01*
X2401083D01*
Y4640646D01*
X2402646D01*
Y4640125D01*
X2405771D01*
Y4637000D01*
X2405250D01*
Y4636479D01*
X2404729D01*
Y4634396D01*
X2404208D01*
Y4633875D01*
X2403688D01*
Y4633354D01*
X2403167D01*
Y4632833D01*
X2402646D01*
Y4632312D01*
X2402125D01*
Y4631792D01*
X2401604D01*
Y4631271D01*
X2401083D01*
Y4630750D01*
X2400042D01*
Y4630229D01*
X2399521D01*
Y4629708D01*
X2398479D01*
Y4629188D01*
X2396917D01*
Y4628667D01*
X2396396D01*
Y4628146D01*
X2385979D01*
Y4628667D01*
X2384938D01*
Y4629188D01*
X2383375D01*
Y4629708D01*
X2382854D01*
Y4630229D01*
X2381812D01*
Y4630750D01*
X2380771D01*
Y4631271D01*
X2380250D01*
Y4631792D01*
X2379729D01*
Y4632312D01*
X2379208D01*
Y4632833D01*
X2378688D01*
Y4633354D01*
X2378167D01*
Y4633875D01*
X2377646D01*
Y4634396D01*
X2377125D01*
Y4635438D01*
X2376604D01*
Y4636479D01*
X2376083D01*
Y4638562D01*
X2375562D01*
Y4639083D01*
X2375042D01*
Y4640125D01*
X2374521D01*
Y4652104D01*
X2375042D01*
Y4653667D01*
X2375562D01*
Y4654708D01*
X2376083D01*
Y4655750D01*
X2376604D01*
Y4656792D01*
X2377125D01*
Y4657833D01*
X2377646D01*
Y4658354D01*
X2378167D01*
Y4658875D01*
X2378688D01*
Y4659396D01*
X2379208D01*
Y4659917D01*
X2379729D01*
Y4660438D01*
X2380250D01*
Y4660958D01*
X2381292D01*
Y4661479D01*
X2381812D01*
Y4662000D01*
X2382854D01*
Y4662521D01*
X2383375D01*
Y4663042D01*
X2384938D01*
Y4663562D01*
X2386500D01*
Y4664083D01*
X2395875D01*
Y4663562D01*
D02*
G37*
G36*
X2322438D02*
X2323479D01*
Y4663042D01*
X2325562D01*
Y4662521D01*
X2326083D01*
Y4662000D01*
X2327125D01*
Y4661479D01*
X2327646D01*
Y4660958D01*
X2328167D01*
Y4660438D01*
X2328688D01*
Y4659917D01*
X2329208D01*
Y4659396D01*
X2329729D01*
Y4658875D01*
X2330250D01*
Y4658354D01*
X2330771D01*
Y4657833D01*
X2331292D01*
Y4656792D01*
X2331812D01*
Y4655750D01*
X2332333D01*
Y4654188D01*
X2332854D01*
Y4653667D01*
X2333375D01*
Y4645854D01*
X2332854D01*
Y4645333D01*
X2308375D01*
Y4640646D01*
X2308896D01*
Y4640125D01*
X2309417D01*
Y4638042D01*
X2309938D01*
Y4637521D01*
X2310458D01*
Y4637000D01*
X2310979D01*
Y4635958D01*
X2311500D01*
Y4635438D01*
X2312021D01*
Y4634917D01*
X2312542D01*
Y4634396D01*
X2313583D01*
Y4633875D01*
X2314104D01*
Y4633354D01*
X2315146D01*
Y4632833D01*
X2322438D01*
Y4633354D01*
X2323479D01*
Y4633875D01*
X2324000D01*
Y4634396D01*
X2324521D01*
Y4634917D01*
X2325042D01*
Y4635438D01*
X2325562D01*
Y4635958D01*
X2326083D01*
Y4637000D01*
X2326604D01*
Y4638042D01*
X2327125D01*
Y4639604D01*
X2327646D01*
Y4640125D01*
X2328167D01*
Y4640646D01*
X2329208D01*
Y4640125D01*
X2329729D01*
Y4640646D01*
X2330250D01*
Y4640125D01*
X2333375D01*
Y4637000D01*
X2332854D01*
Y4636479D01*
X2332333D01*
Y4634917D01*
X2331812D01*
Y4634396D01*
X2331292D01*
Y4633875D01*
X2330771D01*
Y4632833D01*
X2329729D01*
Y4631792D01*
X2328688D01*
Y4631271D01*
X2328167D01*
Y4630750D01*
X2327646D01*
Y4630229D01*
X2326604D01*
Y4629708D01*
X2326083D01*
Y4629188D01*
X2324521D01*
Y4628667D01*
X2323479D01*
Y4628146D01*
X2313062D01*
Y4628667D01*
X2312542D01*
Y4629188D01*
X2310979D01*
Y4629708D01*
X2309938D01*
Y4630229D01*
X2308896D01*
Y4630750D01*
X2308375D01*
Y4631271D01*
X2307854D01*
Y4631792D01*
X2307333D01*
Y4632312D01*
X2306812D01*
Y4632833D01*
X2306292D01*
Y4633354D01*
X2305771D01*
Y4633875D01*
X2305250D01*
Y4634396D01*
X2304729D01*
Y4635438D01*
X2304208D01*
Y4635958D01*
X2303688D01*
Y4637521D01*
X2303167D01*
Y4639083D01*
X2302646D01*
Y4639604D01*
X2302125D01*
Y4652625D01*
X2302646D01*
Y4653667D01*
X2303167D01*
Y4654708D01*
X2303688D01*
Y4656271D01*
X2304208D01*
Y4656792D01*
X2304729D01*
Y4657833D01*
X2305250D01*
Y4658354D01*
X2305771D01*
Y4658875D01*
X2306292D01*
Y4659396D01*
X2306812D01*
Y4659917D01*
X2307333D01*
Y4660438D01*
X2307854D01*
Y4660958D01*
X2308375D01*
Y4661479D01*
X2309417D01*
Y4662000D01*
X2309938D01*
Y4662521D01*
X2310979D01*
Y4663042D01*
X2312021D01*
Y4663562D01*
X2313583D01*
Y4664083D01*
X2322438D01*
Y4663562D01*
D02*
G37*
G36*
X2147438D02*
X2147958D01*
Y4663042D01*
X2150042D01*
Y4662521D01*
X2151083D01*
Y4662000D01*
X2152125D01*
Y4661479D01*
X2152646D01*
Y4660958D01*
X2153167D01*
Y4660438D01*
X2153688D01*
Y4659917D01*
X2154208D01*
Y4659396D01*
X2154729D01*
Y4658875D01*
X2155250D01*
Y4657833D01*
X2155771D01*
Y4657312D01*
X2156292D01*
Y4656271D01*
X2156812D01*
Y4655229D01*
X2157333D01*
Y4653667D01*
X2157854D01*
Y4652625D01*
X2158375D01*
Y4645854D01*
X2157854D01*
Y4645333D01*
X2133375D01*
Y4644812D01*
X2132854D01*
Y4640646D01*
X2133375D01*
Y4640125D01*
X2133896D01*
Y4638042D01*
X2134417D01*
Y4637521D01*
X2134938D01*
Y4635958D01*
X2135458D01*
Y4635438D01*
X2136500D01*
Y4634917D01*
X2137021D01*
Y4634396D01*
X2138062D01*
Y4633875D01*
X2138583D01*
Y4633354D01*
X2139625D01*
Y4632833D01*
X2147438D01*
Y4633354D01*
X2147958D01*
Y4633875D01*
X2148479D01*
Y4634396D01*
X2149521D01*
Y4635438D01*
X2150042D01*
Y4635958D01*
X2150562D01*
Y4636479D01*
X2151083D01*
Y4637521D01*
X2151604D01*
Y4638042D01*
X2152125D01*
Y4640125D01*
X2152646D01*
Y4640646D01*
X2154208D01*
Y4640125D01*
X2157854D01*
Y4639604D01*
X2158375D01*
Y4637521D01*
X2157854D01*
Y4637000D01*
X2157333D01*
Y4635958D01*
X2156812D01*
Y4634917D01*
X2156292D01*
Y4633875D01*
X2155771D01*
Y4633354D01*
X2155250D01*
Y4632833D01*
X2154729D01*
Y4631792D01*
X2153688D01*
Y4631271D01*
X2153167D01*
Y4630750D01*
X2152125D01*
Y4630229D01*
X2151604D01*
Y4629708D01*
X2150562D01*
Y4629188D01*
X2148479D01*
Y4628667D01*
X2147958D01*
Y4628146D01*
X2138062D01*
Y4628667D01*
X2137021D01*
Y4629188D01*
X2135458D01*
Y4629708D01*
X2134417D01*
Y4630229D01*
X2133375D01*
Y4630750D01*
X2132854D01*
Y4631271D01*
X2132333D01*
Y4631792D01*
X2131812D01*
Y4632312D01*
X2131292D01*
Y4632833D01*
X2130771D01*
Y4633354D01*
X2130250D01*
Y4633875D01*
X2129729D01*
Y4634396D01*
X2129208D01*
Y4635438D01*
X2128688D01*
Y4636479D01*
X2128167D01*
Y4637521D01*
X2127646D01*
Y4638562D01*
X2127125D01*
Y4640646D01*
X2126604D01*
Y4645333D01*
X2126083D01*
Y4646375D01*
X2125562D01*
Y4646896D01*
X2126083D01*
Y4648458D01*
X2126604D01*
Y4652104D01*
X2127125D01*
Y4654188D01*
X2127646D01*
Y4655229D01*
X2128167D01*
Y4656271D01*
X2128688D01*
Y4657312D01*
X2129208D01*
Y4657833D01*
X2129729D01*
Y4658354D01*
X2130250D01*
Y4658875D01*
X2130771D01*
Y4659396D01*
X2131292D01*
Y4659917D01*
X2131812D01*
Y4660438D01*
X2132333D01*
Y4660958D01*
X2132854D01*
Y4661479D01*
X2133375D01*
Y4662000D01*
X2134417D01*
Y4662521D01*
X2135458D01*
Y4663042D01*
X2137021D01*
Y4663562D01*
X2138062D01*
Y4664083D01*
X2147438D01*
Y4663562D01*
D02*
G37*
G36*
X2094312D02*
X2095354D01*
Y4663042D01*
X2096917D01*
Y4662521D01*
X2097958D01*
Y4662000D01*
X2099000D01*
Y4661479D01*
X2099521D01*
Y4660958D01*
X2100042D01*
Y4660438D01*
X2100562D01*
Y4659917D01*
X2101083D01*
Y4659396D01*
X2101604D01*
Y4658875D01*
X2102125D01*
Y4657833D01*
X2102646D01*
Y4657312D01*
X2103167D01*
Y4656271D01*
X2103688D01*
Y4654708D01*
X2104208D01*
Y4654188D01*
X2104729D01*
Y4650021D01*
X2105250D01*
Y4648979D01*
X2105771D01*
Y4645333D01*
X2079729D01*
Y4641167D01*
X2080250D01*
Y4640646D01*
X2080771D01*
Y4638562D01*
X2081292D01*
Y4638042D01*
X2081812D01*
Y4637521D01*
X2082333D01*
Y4636479D01*
X2082854D01*
Y4635438D01*
X2083375D01*
Y4634917D01*
X2083896D01*
Y4634396D01*
X2084938D01*
Y4633875D01*
X2085979D01*
Y4633354D01*
X2086500D01*
Y4632833D01*
X2093792D01*
Y4633354D01*
X2094833D01*
Y4633875D01*
X2095354D01*
Y4634396D01*
X2096396D01*
Y4634917D01*
X2096917D01*
Y4635438D01*
X2097438D01*
Y4635958D01*
X2097958D01*
Y4637000D01*
X2098479D01*
Y4638042D01*
X2099000D01*
Y4640125D01*
X2100562D01*
Y4640646D01*
X2101604D01*
Y4640125D01*
X2105250D01*
Y4639083D01*
X2104729D01*
Y4637000D01*
X2104208D01*
Y4636479D01*
X2103688D01*
Y4634396D01*
X2103167D01*
Y4633875D01*
X2102646D01*
Y4633354D01*
X2102125D01*
Y4632833D01*
X2101604D01*
Y4632312D01*
X2101083D01*
Y4631792D01*
X2100562D01*
Y4631271D01*
X2100042D01*
Y4630750D01*
X2099000D01*
Y4630229D01*
X2097958D01*
Y4629708D01*
X2097438D01*
Y4629188D01*
X2095875D01*
Y4628667D01*
X2094833D01*
Y4628146D01*
X2084938D01*
Y4628667D01*
X2083896D01*
Y4629188D01*
X2082333D01*
Y4629708D01*
X2081292D01*
Y4630229D01*
X2080250D01*
Y4630750D01*
X2079729D01*
Y4631271D01*
X2079208D01*
Y4631792D01*
X2078688D01*
Y4632312D01*
X2078167D01*
Y4632833D01*
X2077646D01*
Y4633354D01*
X2077125D01*
Y4633875D01*
X2076604D01*
Y4634396D01*
X2076083D01*
Y4635958D01*
X2075562D01*
Y4636479D01*
X2075042D01*
Y4637521D01*
X2074521D01*
Y4639083D01*
X2074000D01*
Y4640125D01*
X2073479D01*
Y4645854D01*
X2072958D01*
Y4646896D01*
X2073479D01*
Y4652625D01*
X2074000D01*
Y4653667D01*
X2074521D01*
Y4654708D01*
X2075042D01*
Y4656271D01*
X2075562D01*
Y4656792D01*
X2076083D01*
Y4657833D01*
X2076604D01*
Y4658354D01*
X2077125D01*
Y4658875D01*
X2077646D01*
Y4659917D01*
X2078167D01*
Y4660438D01*
X2079208D01*
Y4660958D01*
X2079729D01*
Y4661479D01*
X2080771D01*
Y4662000D01*
X2081812D01*
Y4662521D01*
X2082333D01*
Y4663042D01*
X2084417D01*
Y4663562D01*
X2084938D01*
Y4664083D01*
X2094312D01*
Y4663562D01*
D02*
G37*
G36*
X4747000Y3857345D02*
X4737000D01*
Y3872345D01*
X4747000D01*
Y3857345D01*
D02*
G37*
%LPC*%
G36*
X1894312Y4753667D02*
X1891708D01*
Y4753146D01*
X1890667D01*
Y4752625D01*
X1889104D01*
Y4752104D01*
X1888583D01*
Y4751583D01*
X1888062D01*
Y4751062D01*
X1887542D01*
Y4750021D01*
X1887021D01*
Y4748458D01*
X1886500D01*
Y4693771D01*
Y4693250D01*
Y4687000D01*
X1887021D01*
Y4686479D01*
X1899000D01*
Y4687000D01*
X1899521D01*
Y4748979D01*
X1899000D01*
Y4749500D01*
X1898479D01*
Y4751062D01*
X1897958D01*
Y4751583D01*
X1897438D01*
Y4752104D01*
X1896396D01*
Y4752625D01*
X1895875D01*
Y4753146D01*
X1894312D01*
Y4753667D01*
D02*
G37*
G36*
X1868792D02*
X1866708D01*
Y4753146D01*
X1865146D01*
Y4752625D01*
X1864104D01*
Y4752104D01*
X1863583D01*
Y4751583D01*
X1863062D01*
Y4751062D01*
X1862542D01*
Y4750542D01*
X1862021D01*
Y4748979D01*
X1861500D01*
Y4716167D01*
Y4715646D01*
Y4687000D01*
X1862021D01*
Y4686479D01*
X1873479D01*
Y4687000D01*
X1874000D01*
Y4749500D01*
X1873479D01*
Y4750542D01*
X1872958D01*
Y4751062D01*
X1872438D01*
Y4751583D01*
X1871917D01*
Y4752104D01*
X1871396D01*
Y4752625D01*
X1870354D01*
Y4753146D01*
X1868792D01*
Y4753667D01*
D02*
G37*
G36*
X1843792D02*
X1841708D01*
Y4753146D01*
X1839625D01*
Y4752625D01*
X1838583D01*
Y4752104D01*
X1838062D01*
Y4751583D01*
X1837542D01*
Y4750542D01*
X1837021D01*
Y4750021D01*
X1836500D01*
Y4712000D01*
Y4711479D01*
Y4687000D01*
X1837021D01*
Y4686479D01*
X1847958D01*
Y4687000D01*
X1848479D01*
Y4750021D01*
X1847958D01*
Y4750542D01*
X1847438D01*
Y4751062D01*
X1846917D01*
Y4752104D01*
X1846396D01*
Y4752625D01*
X1845354D01*
Y4753146D01*
X1843792D01*
Y4753667D01*
D02*
G37*
G36*
X1993271Y4744292D02*
X1978688D01*
Y4734917D01*
X1979729D01*
Y4734396D01*
X1991708D01*
Y4734917D01*
X1992750D01*
Y4735438D01*
X1993792D01*
Y4735958D01*
X1994312D01*
Y4736479D01*
X1994833D01*
Y4737521D01*
X1995354D01*
Y4739604D01*
X1995875D01*
Y4741167D01*
X1995354D01*
Y4742208D01*
X1994833D01*
Y4742729D01*
X1994312D01*
Y4743250D01*
X1993792D01*
Y4743771D01*
X1993271D01*
Y4744292D01*
D02*
G37*
G36*
X1992750Y4725021D02*
X1979729D01*
Y4724500D01*
X1978688D01*
Y4713042D01*
X1980250D01*
Y4712521D01*
X1989104D01*
Y4713042D01*
X1993792D01*
Y4713562D01*
X1994312D01*
Y4714083D01*
X1994833D01*
Y4714604D01*
X1995354D01*
Y4715125D01*
X1995875D01*
Y4715646D01*
X1996396D01*
Y4716167D01*
X1996917D01*
Y4717208D01*
X1997438D01*
Y4719292D01*
X1996917D01*
Y4721375D01*
X1996396D01*
Y4722417D01*
X1995875D01*
Y4722938D01*
X1995354D01*
Y4723458D01*
X1994833D01*
Y4723979D01*
X1993792D01*
Y4724500D01*
X1992750D01*
Y4725021D01*
D02*
G37*
G36*
X2212021Y4734396D02*
X2208375D01*
Y4733875D01*
X2206812D01*
Y4733354D01*
X2206292D01*
Y4732833D01*
X2205250D01*
Y4732312D01*
X2204729D01*
Y4731792D01*
X2204208D01*
Y4731271D01*
X2203688D01*
Y4730229D01*
X2203167D01*
Y4727625D01*
X2204208D01*
Y4727104D01*
X2216708D01*
Y4727625D01*
X2217229D01*
Y4729708D01*
X2216708D01*
Y4730229D01*
X2216188D01*
Y4731271D01*
X2215667D01*
Y4732312D01*
X2215146D01*
Y4732833D01*
X2214104D01*
Y4733354D01*
X2213583D01*
Y4733875D01*
X2212021D01*
Y4734396D01*
D02*
G37*
G36*
X2147958D02*
X2145354D01*
Y4733875D01*
X2143271D01*
Y4733354D01*
X2142229D01*
Y4732833D01*
X2141708D01*
Y4732312D01*
X2141188D01*
Y4731792D01*
X2140667D01*
Y4731271D01*
X2140146D01*
Y4730229D01*
X2139625D01*
Y4729188D01*
X2139104D01*
Y4727625D01*
X2140146D01*
Y4727104D01*
X2152646D01*
Y4727625D01*
X2153167D01*
Y4728146D01*
X2153688D01*
Y4730229D01*
X2153167D01*
Y4731271D01*
X2152646D01*
Y4731792D01*
X2152125D01*
Y4732312D01*
X2151604D01*
Y4732833D01*
X2151083D01*
Y4733354D01*
X2150042D01*
Y4733875D01*
X2147958D01*
Y4734396D01*
D02*
G37*
G36*
X2037542D02*
X2034417D01*
Y4733875D01*
X2032854D01*
Y4733354D01*
X2031812D01*
Y4732833D01*
X2031292D01*
Y4732312D01*
X2030771D01*
Y4731792D01*
X2030250D01*
Y4731271D01*
X2029729D01*
Y4730229D01*
X2029208D01*
Y4729708D01*
X2028688D01*
Y4727625D01*
X2029729D01*
Y4727104D01*
X2042750D01*
Y4727625D01*
X2043271D01*
Y4729708D01*
X2042750D01*
Y4730750D01*
X2042229D01*
Y4731792D01*
X2041708D01*
Y4732312D01*
X2041188D01*
Y4732833D01*
X2040146D01*
Y4733354D01*
X2039104D01*
Y4733875D01*
X2037542D01*
Y4734396D01*
D02*
G37*
G36*
X2281292Y4674500D02*
X2264104D01*
Y4673979D01*
X2263583D01*
Y4673458D01*
Y4656792D01*
X2281292D01*
Y4657312D01*
X2283896D01*
Y4657833D01*
X2284938D01*
Y4658354D01*
X2285458D01*
Y4658875D01*
X2286500D01*
Y4659396D01*
X2287021D01*
Y4660438D01*
X2287542D01*
Y4661479D01*
X2288062D01*
Y4662000D01*
X2288583D01*
Y4668771D01*
X2288062D01*
Y4669812D01*
X2287542D01*
Y4670854D01*
X2287021D01*
Y4671375D01*
X2286500D01*
Y4671896D01*
X2285979D01*
Y4672417D01*
X2285458D01*
Y4672938D01*
X2284417D01*
Y4673458D01*
X2283896D01*
Y4673979D01*
X2281292D01*
Y4674500D01*
D02*
G37*
G36*
X2735979Y4659396D02*
X2729208D01*
Y4658875D01*
X2728167D01*
Y4658354D01*
X2727125D01*
Y4657833D01*
X2726604D01*
Y4657312D01*
X2726083D01*
Y4656792D01*
X2725562D01*
Y4655750D01*
X2725042D01*
Y4655229D01*
X2724521D01*
Y4654188D01*
X2724000D01*
Y4652625D01*
X2723479D01*
Y4651583D01*
X2722958D01*
Y4650542D01*
X2723479D01*
Y4650021D01*
X2742229D01*
Y4652625D01*
X2741708D01*
Y4653667D01*
X2741188D01*
Y4655229D01*
X2740667D01*
Y4655750D01*
X2740146D01*
Y4656271D01*
X2739625D01*
Y4656792D01*
X2739104D01*
Y4657312D01*
X2738583D01*
Y4657833D01*
X2738062D01*
Y4658354D01*
X2737542D01*
Y4658875D01*
X2735979D01*
Y4659396D01*
D02*
G37*
G36*
X2639104D02*
X2632333D01*
Y4658875D01*
X2631292D01*
Y4658354D01*
X2630250D01*
Y4657833D01*
X2629729D01*
Y4657312D01*
X2629208D01*
Y4656792D01*
X2628688D01*
Y4656271D01*
X2628167D01*
Y4655229D01*
X2627646D01*
Y4654708D01*
X2627125D01*
Y4652625D01*
X2626604D01*
Y4652104D01*
X2626083D01*
Y4650021D01*
X2645354D01*
Y4652104D01*
X2644833D01*
Y4653667D01*
X2644312D01*
Y4655229D01*
X2643792D01*
Y4655750D01*
X2643271D01*
Y4656271D01*
X2642750D01*
Y4656792D01*
X2642229D01*
Y4657312D01*
X2641708D01*
Y4657833D01*
X2641188D01*
Y4658354D01*
X2640667D01*
Y4658875D01*
X2639104D01*
Y4659396D01*
D02*
G37*
G36*
X2433896Y4645333D02*
X2429208D01*
Y4644812D01*
X2427125D01*
Y4644292D01*
X2424521D01*
Y4643771D01*
X2422958D01*
Y4643250D01*
X2421396D01*
Y4642729D01*
X2420354D01*
Y4642208D01*
X2419833D01*
Y4641688D01*
X2419312D01*
Y4641167D01*
X2418792D01*
Y4640646D01*
X2418271D01*
Y4636479D01*
X2418792D01*
Y4635438D01*
X2419312D01*
Y4634917D01*
X2419833D01*
Y4634396D01*
X2420354D01*
Y4633875D01*
X2421396D01*
Y4633354D01*
X2427646D01*
Y4633875D01*
X2429208D01*
Y4634396D01*
X2430250D01*
Y4634917D01*
X2430771D01*
Y4635438D01*
X2431292D01*
Y4635958D01*
X2431812D01*
Y4636479D01*
X2432333D01*
Y4637000D01*
X2432854D01*
Y4637521D01*
X2433375D01*
Y4638562D01*
X2433896D01*
Y4645333D01*
D02*
G37*
G36*
X2393792Y4659396D02*
X2387021D01*
Y4658875D01*
X2385979D01*
Y4658354D01*
X2385458D01*
Y4657833D01*
X2384417D01*
Y4657312D01*
X2383896D01*
Y4656792D01*
X2383375D01*
Y4655750D01*
X2382854D01*
Y4655229D01*
X2382333D01*
Y4653146D01*
X2381812D01*
Y4652625D01*
X2381292D01*
Y4651583D01*
X2380771D01*
Y4650542D01*
X2381292D01*
Y4650021D01*
X2399521D01*
Y4650542D01*
X2400042D01*
Y4652625D01*
X2399521D01*
Y4653146D01*
X2399000D01*
Y4654708D01*
X2398479D01*
Y4655750D01*
X2397958D01*
Y4656271D01*
X2397438D01*
Y4656792D01*
X2396917D01*
Y4657833D01*
X2395875D01*
Y4658354D01*
X2394833D01*
Y4658875D01*
X2393792D01*
Y4659396D01*
D02*
G37*
G36*
X2321396D02*
X2314104D01*
Y4658875D01*
X2313583D01*
Y4658354D01*
X2312542D01*
Y4657833D01*
X2312021D01*
Y4657312D01*
X2311500D01*
Y4656792D01*
X2310979D01*
Y4656271D01*
X2310458D01*
Y4655229D01*
X2309938D01*
Y4654188D01*
X2309417D01*
Y4653146D01*
X2308896D01*
Y4652104D01*
X2308375D01*
Y4650021D01*
X2327125D01*
Y4653146D01*
X2326604D01*
Y4653667D01*
X2326083D01*
Y4655229D01*
X2325562D01*
Y4656271D01*
X2325042D01*
Y4656792D01*
X2324521D01*
Y4657312D01*
X2324000D01*
Y4657833D01*
X2323479D01*
Y4658354D01*
X2322438D01*
Y4658875D01*
X2321396D01*
Y4659396D01*
D02*
G37*
G36*
X2145875D02*
X2138583D01*
Y4658875D01*
X2138062D01*
Y4658354D01*
X2137021D01*
Y4657833D01*
X2135979D01*
Y4656792D01*
X2135458D01*
Y4656271D01*
X2134938D01*
Y4655750D01*
X2134417D01*
Y4654708D01*
X2133896D01*
Y4653146D01*
X2133375D01*
Y4652104D01*
X2132854D01*
Y4650542D01*
X2133375D01*
Y4650021D01*
X2152125D01*
Y4652104D01*
X2151604D01*
Y4652625D01*
X2151083D01*
Y4654188D01*
X2150562D01*
Y4655229D01*
X2150042D01*
Y4656271D01*
X2149521D01*
Y4656792D01*
X2149000D01*
Y4657312D01*
X2148479D01*
Y4657833D01*
X2147958D01*
Y4658354D01*
X2146917D01*
Y4658875D01*
X2145875D01*
Y4659396D01*
D02*
G37*
G36*
X2093271D02*
X2085979D01*
Y4658875D01*
X2084938D01*
Y4658354D01*
X2083896D01*
Y4657833D01*
X2083375D01*
Y4657312D01*
X2082854D01*
Y4656792D01*
X2082333D01*
Y4655750D01*
X2081812D01*
Y4655229D01*
X2081292D01*
Y4654188D01*
X2080771D01*
Y4652104D01*
X2080250D01*
Y4651583D01*
X2079729D01*
Y4650021D01*
X2080250D01*
Y4649500D01*
X2081292D01*
Y4650021D01*
X2098479D01*
Y4650542D01*
X2099000D01*
Y4652104D01*
X2098479D01*
Y4653667D01*
X2097958D01*
Y4654708D01*
X2097438D01*
Y4655750D01*
X2096917D01*
Y4656271D01*
X2096396D01*
Y4656792D01*
X2095875D01*
Y4657312D01*
X2095354D01*
Y4657833D01*
X2094833D01*
Y4658354D01*
X2094312D01*
Y4658875D01*
X2093271D01*
Y4659396D01*
D02*
G37*
%LPD*%
D10*
X3922854Y3054567D02*
G03*
X3922854Y3054567I-4921J0D01*
G01*
X4988543Y4367500D02*
G03*
X4988543Y4367500I-4921J0D01*
G01*
X2410000Y1400000D02*
G03*
X2410000Y1400000I-4921J0D01*
G01*
X2249921Y1720079D02*
G03*
X2249921Y1720079I-4921J0D01*
G01*
X2109921Y1722579D02*
G03*
X2109921Y1722579I-4921J0D01*
G01*
X2410000Y1215000D02*
G03*
X2410000Y1215000I-4921J0D01*
G01*
X2070945Y4251221D02*
G03*
X2070945Y4251221I-4921J0D01*
G01*
X5511535Y3510000D02*
G03*
X5511535Y3510000I-4921J0D01*
G01*
X5954921Y3891890D02*
G03*
X5954921Y3891890I-4921J0D01*
G01*
X5571378Y3052598D02*
G03*
X5571378Y3052598I-4921J0D01*
G01*
X3810421Y1239205D02*
G03*
X3810421Y1239205I-4921J0D01*
G01*
X6041024Y1587500D02*
G03*
X6041024Y1587500I-4921J0D01*
G01*
X6304606Y2511317D02*
G03*
X6304606Y2511317I-4921J0D01*
G01*
X6041024Y2187500D02*
G03*
X6041024Y2187500I-4921J0D01*
G01*
X3237921Y1239205D02*
G03*
X3237921Y1239205I-4921J0D01*
G01*
X5511535Y3710000D02*
G03*
X5511535Y3710000I-4921J0D01*
G01*
X5071378Y3092598D02*
G03*
X5071378Y3092598I-4921J0D01*
G01*
D11*
X4777953Y3435000D02*
G03*
X4777953Y3435000I-52953J0D01*
G01*
X4697953Y3850000D02*
G03*
X4697953Y3850000I-52953J0D01*
G01*
X4782953Y2845000D02*
G03*
X4782953Y2845000I-52953J0D01*
G01*
X1282953Y1700000D02*
G03*
X1282953Y1700000I-52953J0D01*
G01*
X1852953Y4020000D02*
G03*
X1852953Y4020000I-52953J0D01*
G01*
X5730453Y4372500D02*
G03*
X5730453Y4372500I-52953J0D01*
G01*
X5607953Y1210000D02*
G03*
X5607953Y1210000I-52953J0D01*
G01*
D12*
X1655000Y3585000D02*
G03*
X1655000Y3585000I-15000J0D01*
G01*
X5215000Y3529140D02*
G03*
X5215000Y3529140I-15000J0D01*
G01*
D13*
X5341496Y3707441D02*
G03*
X5341496Y3707441I-1968J0D01*
G01*
D14*
X2918386Y3249449D02*
G03*
X2918386Y3249449I-9842J0D01*
G01*
X4493189D02*
G03*
X4493189Y3249449I-9842J0D01*
G01*
D15*
X6415098Y3565000D02*
G03*
X6415098Y3565000I-212598J0D01*
G01*
X6415098Y4267500D02*
G03*
X6415098Y4267500I-212598J0D01*
G01*
X5700315Y3536043D02*
X5739685D01*
X5700315Y3478957D02*
X5739685D01*
X5700315Y3738543D02*
X5739685D01*
X5700315Y3681457D02*
X5739685D01*
X5135315Y2896457D02*
X5174685D01*
X5135315Y2953543D02*
X5174685D01*
X4024075Y2452815D02*
Y2492185D01*
X3970925Y2452815D02*
Y2492185D01*
X3799075Y2452815D02*
Y2492185D01*
X3745925Y2452815D02*
Y2492185D01*
X3876595Y3023858D02*
Y3026024D01*
Y2805551D02*
Y2807716D01*
X4005335Y2805551D02*
X4018327D01*
X3876595D02*
X3889586D01*
X4018327Y3023858D02*
Y3026024D01*
Y2805551D02*
Y2807716D01*
X4005335Y3026024D02*
X4018327D01*
X3876595D02*
X3889586D01*
X4654095Y4314547D02*
Y4420453D01*
Y4314547D02*
X4965905D01*
Y4420453D01*
X4654095D02*
X4965905D01*
X6220325Y2149417D02*
X6254675D01*
X6220325Y2076583D02*
X6254675D01*
X2427520Y1347441D02*
Y1452559D01*
Y1347441D02*
X2642480D01*
Y1452559D01*
X2427520D02*
X2642480D01*
X2192441Y1742520D02*
X2297559D01*
Y1957480D01*
X2192441D02*
X2297559D01*
X2192441Y1742520D02*
Y1957480D01*
X2052441Y1745020D02*
X2157559D01*
Y1959980D01*
X2052441D02*
X2157559D01*
X2052441Y1745020D02*
Y1959980D01*
X2427520Y1162441D02*
Y1267559D01*
Y1162441D02*
X2642480D01*
Y1267559D01*
X2427520D02*
X2642480D01*
X2339646Y3687244D02*
Y4342756D01*
X2091614D02*
X2339646D01*
X2091614Y3687244D02*
Y4342756D01*
Y3687244D02*
X2339646D01*
X3060410Y2503212D02*
X3094759D01*
X3060410Y2576046D02*
X3094759D01*
X3120325Y2813917D02*
X3154675D01*
X3120325Y2741083D02*
X3154675D01*
X6083913Y3849000D02*
X6379189D01*
X6083913Y4007465D02*
Y4026165D01*
Y3849000D02*
Y3867701D01*
Y4026165D02*
X6379189D01*
Y4007465D02*
Y4026165D01*
Y3849000D02*
Y3867701D01*
X6033717Y3927740D02*
Y3947425D01*
X6023874Y3937583D02*
X6043559D01*
X5541063Y3544449D02*
X5607992D01*
X5541063Y3475551D02*
X5607992D01*
X5894882Y3921417D02*
Y4098583D01*
X6005118Y3921417D02*
Y4098583D01*
X5894882Y3921417D02*
X5905709D01*
X5894882Y4098583D02*
X5905709D01*
X5994291Y3921417D02*
X6005118D01*
X5994291Y4098583D02*
X6005118D01*
X4885551Y3244484D02*
Y3325516D01*
X4954449Y3244484D02*
Y3325516D01*
X5455236Y3029961D02*
X5484764D01*
X5435551Y3079173D02*
Y3100827D01*
X5455236Y3150039D02*
X5484764D01*
X5364504Y3696496D02*
X5380748D01*
X5364504Y3633504D02*
X5380748D01*
X5380748Y3687756D02*
Y3696496D01*
Y3633504D02*
Y3642244D01*
X5304488Y2983504D02*
Y3046496D01*
X5365512Y2983504D02*
Y3046496D01*
X6070325Y2653583D02*
X6104675D01*
X6070325Y2726417D02*
X6104675D01*
X5297520Y1534941D02*
X6012480D01*
X5297520D02*
Y1640059D01*
X6012480D01*
Y1534941D02*
Y1640059D01*
X5584567Y1364980D02*
Y1450020D01*
X5405433Y1364980D02*
Y1450020D01*
X6037873Y2465057D02*
X6301653D01*
X6037873Y2311514D02*
X6301653D01*
Y2465057D01*
X6037873Y2311514D02*
Y2465057D01*
X2387825Y4213583D02*
X2422175D01*
X2387825Y4286417D02*
X2422175D01*
X4717825Y4031417D02*
X4752175D01*
X4717825Y3958583D02*
X4752175D01*
X6012480Y2134941D02*
Y2240059D01*
X5297520D02*
X6012480D01*
X5297520Y2134941D02*
Y2240059D01*
Y2134941D02*
X6012480D01*
X5717480Y2507067D02*
X5802520D01*
X5717480Y2327933D02*
X5802520D01*
X5492480D02*
X5577520D01*
X5492480Y2507067D02*
X5577520D01*
X5042480Y2327933D02*
X5127520D01*
X5042480Y2507067D02*
X5127520D01*
X5267480Y2327933D02*
X5352520D01*
X5267480Y2507067D02*
X5352520D01*
X6070325Y2653917D02*
X6104675D01*
X6070325Y2581083D02*
X6104675D01*
X5682933Y1364980D02*
Y1450020D01*
X5862067Y1364980D02*
Y1450020D01*
X6220325Y2221917D02*
X6254675D01*
X6220325Y2149083D02*
X6254675D01*
X5041596Y3895653D02*
Y3930003D01*
X5114431Y3895653D02*
Y3930003D01*
X5541063Y3675551D02*
X5607992D01*
X5541063Y3744449D02*
X5607992D01*
X4945026Y3895653D02*
Y3930003D01*
X5017860Y3895653D02*
Y3930003D01*
X3120325Y2813583D02*
X3154675D01*
X3120325Y2886417D02*
X3154675D01*
X3214220Y2322098D02*
Y2356448D01*
X3141385Y2322098D02*
Y2356448D01*
X5420288Y3002963D02*
X5454637D01*
X5420288Y2930129D02*
X5454637D01*
X4956417Y2997825D02*
Y3032175D01*
X4883583Y2997825D02*
Y3032175D01*
X4955236Y3190039D02*
X4984764D01*
X4935551Y3119173D02*
Y3140827D01*
X4955236Y3069961D02*
X4984764D01*
D16*
X4657500Y4453000D02*
Y4732000D01*
Y4453000D02*
X4736256D01*
X4849500D02*
Y4732000D01*
X4792520D02*
X4849500D01*
X4657500D02*
X4714480D01*
X4770744Y4453000D02*
X4849500D01*
X1615000Y1900000D02*
X1845000D01*
Y2102400D01*
X1615000Y1900000D02*
Y2102400D01*
X1845000Y3357600D02*
Y3560000D01*
X1615000D02*
X1845000D01*
X1615000Y3357600D02*
Y3560000D01*
X5058100Y3654500D02*
X5175000D01*
X4865000Y3545500D02*
Y3654500D01*
Y3545500D02*
X4881900D01*
X5175000D02*
Y3654500D01*
X5158100Y3545500D02*
X5175000D01*
X4865000Y3654500D02*
X4981900D01*
X4958100Y3545500D02*
X5081900D01*
X4877635Y3789000D02*
X4896000D01*
X4877635Y3921000D02*
X4896000D01*
X4764000Y3902635D02*
Y3921000D01*
Y3789000D02*
X4782365D01*
X4896000D02*
Y3807365D01*
Y3902635D02*
Y3921000D01*
X4764000D02*
X4782365D01*
X4764000Y3789000D02*
Y3807365D01*
D17*
X5887283Y3192165D02*
X5984134D01*
X5887283Y3058307D02*
Y3192165D01*
Y2837835D02*
X6356398D01*
X6090827Y3192165D02*
X6356398D01*
X5887283Y2837835D02*
Y2971693D01*
D18*
X2873110Y3239606D02*
Y3298661D01*
X2664449D02*
X2873110D01*
X2636890Y1908898D02*
X2664449Y1881339D01*
X2873110Y1881339D02*
Y1940394D01*
X2664449Y1881339D02*
X2873110D01*
X2636890Y3271102D02*
X2664449Y3298661D01*
X2636890Y3239606D02*
Y3271102D01*
Y1908898D02*
Y1940394D01*
X4211693Y1908898D02*
Y1940394D01*
Y3239606D02*
Y3271102D01*
Y3271102D02*
X4239252Y3298661D01*
Y1881339D02*
X4447913D01*
Y1940394D01*
X4211693Y1908898D02*
X4239252Y1881339D01*
Y3298661D02*
X4447913D01*
Y3239606D02*
Y3298661D01*
X5809177Y3487506D02*
Y3527494D01*
X5829171D01*
X5835836Y3520829D01*
Y3507500D01*
X5829171Y3500836D01*
X5809177D01*
X5822507D02*
X5835836Y3487506D01*
X5875823D02*
X5849165D01*
X5875823Y3514164D01*
Y3520829D01*
X5869158Y3527494D01*
X5855829D01*
X5849165Y3520829D01*
X5809177Y3690006D02*
Y3729994D01*
X5829171D01*
X5835836Y3723329D01*
Y3710000D01*
X5829171Y3703336D01*
X5809177D01*
X5822507D02*
X5835836Y3690006D01*
X5849165D02*
X5862494D01*
X5855829D01*
Y3729994D01*
X5849165Y3723329D01*
X1512494Y2702500D02*
X1492500D01*
Y2762481D01*
X1512494D01*
X1542484Y2702500D02*
X1562477D01*
Y2762481D01*
X1542484D01*
X5072500Y3409987D02*
Y3370000D01*
X5092493D01*
X5099158Y3376664D01*
Y3403323D01*
X5092493Y3409987D01*
X5072500D01*
X5112487D02*
X5125816D01*
X5119152D01*
Y3370000D01*
X5112487D01*
X5125816D01*
X5172468Y3403323D02*
X5165803Y3409987D01*
X5152474D01*
X5145810Y3403323D01*
Y3396658D01*
X5152474Y3389994D01*
X5165803D01*
X5172468Y3383329D01*
Y3376664D01*
X5165803Y3370000D01*
X5152474D01*
X5145810Y3376664D01*
X5152500Y3427500D02*
X5122510Y3457490D01*
X5092519Y3427500D01*
X4945000D02*
X4915010Y3457490D01*
X4885019Y3427500D01*
X4909158Y3409987D02*
X4882500D01*
Y3370000D01*
X4909158D01*
X4882500Y3389994D02*
X4895829D01*
X4922487Y3370000D02*
Y3409987D01*
X4949145Y3370000D01*
Y3409987D01*
X5992500Y1857500D02*
Y1897487D01*
X6012493Y1917481D01*
X6032487Y1897487D01*
Y1857500D01*
Y1887490D01*
X5992500D01*
X6052481Y1917481D02*
Y1857500D01*
X6082471D01*
X6092468Y1867497D01*
Y1907484D01*
X6082471Y1917481D01*
X6052481D01*
X6112461Y1857500D02*
Y1917481D01*
X6132455Y1897487D01*
X6152448Y1917481D01*
Y1857500D01*
X6172442Y1907484D02*
X6182439Y1917481D01*
X6202432D01*
X6212429Y1907484D01*
Y1867497D01*
X6202432Y1857500D01*
X6182439D01*
X6172442Y1867497D01*
Y1907484D01*
X6232422D02*
X6242419Y1917481D01*
X6262413D01*
X6272409Y1907484D01*
Y1867497D01*
X6262413Y1857500D01*
X6242419D01*
X6232422Y1867497D01*
Y1907484D01*
X6332390Y1917481D02*
X6292403D01*
Y1887490D01*
X6312396Y1897487D01*
X6322393D01*
X6332390Y1887490D01*
Y1867497D01*
X6322393Y1857500D01*
X6302400D01*
X6292403Y1867497D01*
X6392371Y1917481D02*
X6352384D01*
Y1887490D01*
X6372377Y1897487D01*
X6382374D01*
X6392371Y1887490D01*
Y1867497D01*
X6382374Y1857500D01*
X6362380D01*
X6352384Y1867497D01*
X6412364D02*
X6422361Y1857500D01*
X6442355D01*
X6452351Y1867497D01*
Y1907484D01*
X6442355Y1917481D01*
X6422361D01*
X6412364Y1907484D01*
Y1897487D01*
X6422361Y1887490D01*
X6452351D01*
X4533579Y4910481D02*
Y4850500D01*
X4563569D01*
X4573566Y4860497D01*
Y4870493D01*
X4563569Y4880490D01*
X4533579D01*
X4563569D01*
X4573566Y4890487D01*
Y4900484D01*
X4563569Y4910481D01*
X4533579D01*
X4603557Y4850500D02*
X4623550D01*
X4633547Y4860497D01*
Y4880490D01*
X4623550Y4890487D01*
X4603557D01*
X4593560Y4880490D01*
Y4860497D01*
X4603557Y4850500D01*
X4663537Y4890487D02*
X4683531D01*
X4693528Y4880490D01*
Y4850500D01*
X4663537D01*
X4653540Y4860497D01*
X4663537Y4870493D01*
X4693528D01*
X4713521Y4890487D02*
Y4850500D01*
Y4870493D01*
X4723518Y4880490D01*
X4733515Y4890487D01*
X4743511D01*
X4813489Y4910481D02*
Y4850500D01*
X4783498D01*
X4773502Y4860497D01*
Y4880490D01*
X4783498Y4890487D01*
X4813489D01*
X4893463Y4850500D02*
Y4910481D01*
X4933450Y4850500D01*
Y4910481D01*
X4963440Y4850500D02*
X4983434D01*
X4993431Y4860497D01*
Y4880490D01*
X4983434Y4890487D01*
X4963440D01*
X4953443Y4880490D01*
Y4860497D01*
X4963440Y4850500D01*
X5013424D02*
Y4860497D01*
X5023421D01*
Y4850500D01*
X5013424D01*
X1976188Y4892481D02*
X2016175Y4832500D01*
Y4892481D02*
X1976188Y4832500D01*
X2076155Y4892481D02*
X2036168D01*
Y4832500D01*
X2076155D01*
X2036168Y4862490D02*
X2056162D01*
X2096149Y4832500D02*
Y4892481D01*
X2116142Y4872487D01*
X2136136Y4892481D01*
Y4832500D01*
X2156129Y4892481D02*
X2196116D01*
Y4882484D01*
X2156129Y4842497D01*
Y4832500D01*
X2216110Y4882484D02*
X2226107Y4892481D01*
X2246100D01*
X2256097Y4882484D01*
Y4872487D01*
X2246100Y4862490D01*
X2236103D01*
X2246100D01*
X2256097Y4852493D01*
Y4842497D01*
X2246100Y4832500D01*
X2226107D01*
X2216110Y4842497D01*
X2276090Y4832500D02*
X2296084D01*
X2286087D01*
Y4892481D01*
X2276090Y4882484D01*
X2326074D02*
X2336071Y4892481D01*
X2356065D01*
X2366061Y4882484D01*
Y4842497D01*
X2356065Y4832500D01*
X2336071D01*
X2326074Y4842497D01*
Y4882484D01*
X2486023Y4892481D02*
X2446035D01*
Y4862490D01*
X2466029D01*
X2446035D01*
Y4832500D01*
X2506016D02*
Y4892481D01*
X2536006D01*
X2546003Y4882484D01*
Y4862490D01*
X2536006Y4852493D01*
X2506016D01*
X2605984Y4882484D02*
X2595987Y4892481D01*
X2575994D01*
X2565997Y4882484D01*
Y4842497D01*
X2575994Y4832500D01*
X2595987D01*
X2605984Y4842497D01*
Y4862490D01*
X2585990D01*
X2625977Y4832500D02*
Y4872487D01*
X2645971Y4892481D01*
X2665964Y4872487D01*
Y4832500D01*
Y4862490D01*
X2625977D01*
X2745939Y4892481D02*
Y4832500D01*
X2775929D01*
X2785926Y4842497D01*
Y4852493D01*
X2775929Y4862490D01*
X2745939D01*
X2775929D01*
X2785926Y4872487D01*
Y4882484D01*
X2775929Y4892481D01*
X2745939D01*
X2805919Y4872487D02*
Y4832500D01*
Y4852493D01*
X2815916Y4862490D01*
X2825913Y4872487D01*
X2835909D01*
X2895890Y4832500D02*
X2875896D01*
X2865900Y4842497D01*
Y4862490D01*
X2875896Y4872487D01*
X2895890D01*
X2905887Y4862490D01*
Y4852493D01*
X2865900D01*
X2935877Y4872487D02*
X2955871D01*
X2965867Y4862490D01*
Y4832500D01*
X2935877D01*
X2925880Y4842497D01*
X2935877Y4852493D01*
X2965867D01*
X2985861Y4832500D02*
Y4892481D01*
Y4852493D02*
X3015851Y4872487D01*
X2985861Y4852493D02*
X3015851Y4832500D01*
X3055838D02*
X3075832D01*
X3085829Y4842497D01*
Y4862490D01*
X3075832Y4872487D01*
X3055838D01*
X3045841Y4862490D01*
Y4842497D01*
X3055838Y4832500D01*
X3105822Y4872487D02*
Y4842497D01*
X3115819Y4832500D01*
X3145809D01*
Y4872487D01*
X3175800Y4882484D02*
Y4872487D01*
X3165803D01*
X3185796D01*
X3175800D01*
Y4842497D01*
X3185796Y4832500D01*
X3275767Y4892481D02*
Y4832500D01*
X3305757D01*
X3315754Y4842497D01*
Y4852493D01*
X3305757Y4862490D01*
X3275767D01*
X3305757D01*
X3315754Y4872487D01*
Y4882484D01*
X3305757Y4892481D01*
X3275767D01*
X3345744Y4832500D02*
X3365738D01*
X3375735Y4842497D01*
Y4862490D01*
X3365738Y4872487D01*
X3345744D01*
X3335748Y4862490D01*
Y4842497D01*
X3345744Y4832500D01*
X3405725Y4872487D02*
X3425719D01*
X3435715Y4862490D01*
Y4832500D01*
X3405725D01*
X3395728Y4842497D01*
X3405725Y4852493D01*
X3435715D01*
X3455709Y4872487D02*
Y4832500D01*
Y4852493D01*
X3465706Y4862490D01*
X3475702Y4872487D01*
X3485699D01*
X3555677Y4892481D02*
Y4832500D01*
X3525686D01*
X3515689Y4842497D01*
Y4862490D01*
X3525686Y4872487D01*
X3555677D01*
X3973348Y2342506D02*
Y2382494D01*
X3993342D01*
X4000006Y2375829D01*
Y2362500D01*
X3993342Y2355836D01*
X3973348D01*
X3986677D02*
X4000006Y2342506D01*
X4039994D02*
X4013336D01*
X4039994Y2369164D01*
Y2375829D01*
X4033329Y2382494D01*
X4020000D01*
X4013336Y2375829D01*
X4053323Y2342506D02*
X4066652D01*
X4059987D01*
Y2382494D01*
X4053323Y2375829D01*
X3686684Y2342506D02*
Y2382494D01*
X3706677D01*
X3713342Y2375829D01*
Y2362500D01*
X3706677Y2355836D01*
X3686684D01*
X3700013D02*
X3713342Y2342506D01*
X3753329D02*
X3726671D01*
X3753329Y2369164D01*
Y2375829D01*
X3746664Y2382494D01*
X3733336D01*
X3726671Y2375829D01*
X3766658D02*
X3773323Y2382494D01*
X3786652D01*
X3793316Y2375829D01*
Y2349171D01*
X3786652Y2342506D01*
X3773323D01*
X3766658Y2349171D01*
Y2375829D01*
X3873000Y3153981D02*
Y3103997D01*
X3882997Y3094000D01*
X3902990D01*
X3912987Y3103997D01*
Y3153981D01*
X3972968Y3094000D02*
X3932981D01*
X3972968Y3133987D01*
Y3143984D01*
X3962971Y3153981D01*
X3942977D01*
X3932981Y3143984D01*
X4855016Y4190007D02*
Y4229994D01*
X4875010D01*
X4881674Y4223329D01*
Y4210000D01*
X4875010Y4203336D01*
X4855016D01*
X4868345D02*
X4881674Y4190007D01*
X4895003D02*
X4908332D01*
X4901668D01*
Y4229994D01*
X4895003Y4223329D01*
X4928326D02*
X4934990Y4229994D01*
X4948319D01*
X4954984Y4223329D01*
Y4196671D01*
X4948319Y4190007D01*
X4934990D01*
X4928326Y4196671D01*
Y4223329D01*
X6308339Y2123829D02*
X6301674Y2130494D01*
X6288345D01*
X6281681Y2123829D01*
Y2097171D01*
X6288345Y2090506D01*
X6301674D01*
X6308339Y2097171D01*
X6321668Y2090506D02*
X6334997D01*
X6328332D01*
Y2130494D01*
X6321668Y2123829D01*
X6354990Y2090506D02*
X6368319D01*
X6361655D01*
Y2130494D01*
X6354990Y2123829D01*
X2450861Y1140826D02*
X2437532D01*
X2444197D01*
Y1107503D01*
X2437532Y1100839D01*
X2430868D01*
X2424203Y1107503D01*
X2464190Y1094174D02*
X2490848D01*
X2530836Y1134161D02*
X2524171Y1140826D01*
X2510842D01*
X2504177Y1134161D01*
Y1127497D01*
X2510842Y1120832D01*
X2524171D01*
X2530836Y1114168D01*
Y1107503D01*
X2524171Y1100839D01*
X2510842D01*
X2504177Y1107503D01*
X2544165Y1140826D02*
Y1100839D01*
X2564158D01*
X2570823Y1107503D01*
Y1134161D01*
X2564158Y1140826D01*
X2544165D01*
X2584152Y1100839D02*
Y1127497D01*
X2597481Y1140826D01*
X2610810Y1127497D01*
Y1100839D01*
Y1120832D01*
X2584152D01*
X2650797Y1100839D02*
X2624139D01*
X2650797Y1127497D01*
Y1134161D01*
X2644132Y1140826D01*
X2630803D01*
X2624139Y1134161D01*
X2329174Y1770026D02*
Y1756697D01*
Y1763361D01*
X2362497D01*
X2369161Y1756697D01*
Y1750032D01*
X2362497Y1743368D01*
X2375826Y1783355D02*
Y1810013D01*
X2335839Y1850000D02*
X2329174Y1843335D01*
Y1830006D01*
X2335839Y1823342D01*
X2342503D01*
X2349168Y1830006D01*
Y1843335D01*
X2355832Y1850000D01*
X2362497D01*
X2369161Y1843335D01*
Y1830006D01*
X2362497Y1823342D01*
X2329174Y1863329D02*
X2369161D01*
Y1883322D01*
X2362497Y1889987D01*
X2335839D01*
X2329174Y1883322D01*
Y1863329D01*
X2369161Y1903316D02*
X2342503D01*
X2329174Y1916645D01*
X2342503Y1929974D01*
X2369161D01*
X2349168D01*
Y1903316D01*
X2369161Y1943303D02*
Y1956632D01*
Y1949968D01*
X2329174D01*
X2335839Y1943303D01*
X2450861Y1523326D02*
X2437532D01*
X2444197D01*
Y1490003D01*
X2437532Y1483339D01*
X2430868D01*
X2424203Y1490003D01*
X2464190Y1476674D02*
X2490848D01*
X2530836Y1516661D02*
X2524171Y1523326D01*
X2510842D01*
X2504177Y1516661D01*
Y1509997D01*
X2510842Y1503332D01*
X2524171D01*
X2530836Y1496668D01*
Y1490003D01*
X2524171Y1483339D01*
X2510842D01*
X2504177Y1490003D01*
X2570823Y1516661D02*
X2564158Y1523326D01*
X2550829D01*
X2544165Y1516661D01*
Y1490003D01*
X2550829Y1483339D01*
X2564158D01*
X2570823Y1490003D01*
X2584152Y1523326D02*
Y1483339D01*
X2610810D01*
X2650797D02*
X2624139D01*
X2650797Y1509997D01*
Y1516661D01*
X2644132Y1523326D01*
X2630803D01*
X2624139Y1516661D01*
X1976674Y1770026D02*
Y1756697D01*
Y1763361D01*
X2009997D01*
X2016661Y1756697D01*
Y1750032D01*
X2009997Y1743368D01*
X2023326Y1783355D02*
Y1810013D01*
X1983339Y1850000D02*
X1976674Y1843335D01*
Y1830006D01*
X1983339Y1823342D01*
X1990003D01*
X1996668Y1830006D01*
Y1843335D01*
X2003332Y1850000D01*
X2009997D01*
X2016661Y1843335D01*
Y1830006D01*
X2009997Y1823342D01*
X1983339Y1889987D02*
X1976674Y1883323D01*
Y1869994D01*
X1983339Y1863329D01*
X2009997D01*
X2016661Y1869994D01*
Y1883323D01*
X2009997Y1889987D01*
X1976674Y1903316D02*
X2016661D01*
Y1929974D01*
Y1943303D02*
Y1956632D01*
Y1949968D01*
X1976674D01*
X1983339Y1943303D01*
X3089658Y2643323D02*
X3082994Y2649987D01*
X3069664D01*
X3063000Y2643323D01*
Y2616664D01*
X3069664Y2610000D01*
X3082994D01*
X3089658Y2616664D01*
X3129645Y2649987D02*
X3116316Y2643323D01*
X3102987Y2629994D01*
Y2616664D01*
X3109652Y2610000D01*
X3122981D01*
X3129645Y2616664D01*
Y2623329D01*
X3122981Y2629994D01*
X3102987D01*
X6363342Y2402494D02*
Y2369171D01*
X6370007Y2362506D01*
X6383336D01*
X6390000Y2369171D01*
Y2402494D01*
X6403329Y2362506D02*
X6416658D01*
X6409994D01*
Y2402494D01*
X6403329Y2395829D01*
X5442516Y1334994D02*
X5432520D01*
X5437518D01*
Y1310003D01*
X5432520Y1305004D01*
X5427521D01*
X5422523Y1310003D01*
X5452513Y1300006D02*
X5472507D01*
X5502497Y1329996D02*
X5497498Y1334994D01*
X5487502D01*
X5482503Y1329996D01*
Y1310003D01*
X5487502Y1305004D01*
X5497498D01*
X5502497Y1310003D01*
Y1319999D01*
X5492500D01*
X5512494Y1305004D02*
Y1334994D01*
X5527489D01*
X5532487Y1329996D01*
Y1319999D01*
X5527489Y1315001D01*
X5512494D01*
X5542484Y1329996D02*
X5547482Y1334994D01*
X5557479D01*
X5562477Y1329996D01*
Y1324998D01*
X5557479Y1319999D01*
X5552481D01*
X5557479D01*
X5562477Y1315001D01*
Y1310003D01*
X5557479Y1305004D01*
X5547482D01*
X5542484Y1310003D01*
X5035016Y2594994D02*
X5025020D01*
X5030018D01*
Y2570003D01*
X5025020Y2565004D01*
X5020021D01*
X5015023Y2570003D01*
X5045013Y2560006D02*
X5065007D01*
X5094997Y2589996D02*
X5089998Y2594994D01*
X5080002D01*
X5075003Y2589996D01*
Y2570003D01*
X5080002Y2565004D01*
X5089998D01*
X5094997Y2570003D01*
Y2579999D01*
X5085000D01*
X5104994Y2565004D02*
Y2594994D01*
X5119989D01*
X5124987Y2589996D01*
Y2579999D01*
X5119989Y2575001D01*
X5104994D01*
X5154977Y2565004D02*
X5134984D01*
X5154977Y2584998D01*
Y2589996D01*
X5149979Y2594994D01*
X5139982D01*
X5134984Y2589996D01*
X5490015Y2594994D02*
X5480018D01*
X5485016D01*
Y2570003D01*
X5480018Y2565004D01*
X5475019D01*
X5470021Y2570003D01*
X5500011Y2560006D02*
X5520005D01*
X5549995Y2589996D02*
X5544997Y2594994D01*
X5535000D01*
X5530002Y2589996D01*
Y2570003D01*
X5535000Y2565004D01*
X5544997D01*
X5549995Y2570003D01*
Y2579999D01*
X5539998D01*
X5559992Y2565004D02*
Y2594994D01*
X5574987D01*
X5579985Y2589996D01*
Y2579999D01*
X5574987Y2575001D01*
X5559992D01*
X5589982Y2565004D02*
X5599979D01*
X5594981D01*
Y2594994D01*
X5589982Y2589996D01*
X5705016Y2594994D02*
X5695020D01*
X5700018D01*
Y2570003D01*
X5695020Y2565004D01*
X5690021D01*
X5685023Y2570003D01*
X5715013Y2560006D02*
X5735007D01*
X5764997Y2589996D02*
X5759998Y2594994D01*
X5750002D01*
X5745003Y2589996D01*
Y2570003D01*
X5750002Y2565004D01*
X5759998D01*
X5764997Y2570003D01*
Y2579999D01*
X5755000D01*
X5774994Y2565004D02*
Y2594994D01*
X5789989D01*
X5794987Y2589996D01*
Y2579999D01*
X5789989Y2575001D01*
X5774994D01*
X5804984Y2589996D02*
X5809982Y2594994D01*
X5819979D01*
X5824977Y2589996D01*
Y2570003D01*
X5819979Y2565004D01*
X5809982D01*
X5804984Y2570003D01*
Y2589996D01*
X5195000Y1517490D02*
X5175007D01*
X5185003D01*
Y1467506D01*
X5175007Y1457510D01*
X5165010D01*
X5155013Y1467506D01*
X5254981Y1457510D02*
X5214994D01*
X5254981Y1497497D01*
Y1507494D01*
X5244984Y1517490D01*
X5224990D01*
X5214994Y1507494D01*
X5195000Y2109990D02*
X5175007D01*
X5185003D01*
Y2060006D01*
X5175007Y2050010D01*
X5165010D01*
X5155013Y2060006D01*
X5214994Y2050010D02*
X5234987D01*
X5224990D01*
Y2109990D01*
X5214994Y2099994D01*
X6150836Y2715829D02*
X6144171Y2722494D01*
X6130842D01*
X6124177Y2715829D01*
Y2689171D01*
X6130842Y2682506D01*
X6144171D01*
X6150836Y2689171D01*
X6190823Y2682506D02*
X6164165D01*
X6190823Y2709164D01*
Y2715829D01*
X6184158Y2722494D01*
X6170829D01*
X6164165Y2715829D01*
X6204152D02*
X6210816Y2722494D01*
X6224145D01*
X6230810Y2715829D01*
Y2689171D01*
X6224145Y2682506D01*
X6210816D01*
X6204152Y2689171D01*
Y2715829D01*
X6150836Y2620829D02*
X6144171Y2627494D01*
X6130842D01*
X6124177Y2620829D01*
Y2594171D01*
X6130842Y2587506D01*
X6144171D01*
X6150836Y2594171D01*
X6164165Y2627494D02*
X6190823D01*
Y2620829D01*
X6164165Y2594171D01*
Y2587506D01*
X5707521Y1334994D02*
X5697524D01*
X5702523D01*
Y1310003D01*
X5697524Y1305004D01*
X5692526D01*
X5687528Y1310003D01*
X5717518Y1300006D02*
X5737511D01*
X5747508Y1334994D02*
Y1315001D01*
X5757505Y1305004D01*
X5767502Y1315001D01*
Y1334994D01*
X5777498D02*
Y1305004D01*
X5792494D01*
X5797492Y1310003D01*
Y1315001D01*
X5792494Y1319999D01*
X5777498D01*
X5792494D01*
X5797492Y1324998D01*
Y1329996D01*
X5792494Y1334994D01*
X5777498D01*
X5807489D02*
Y1310003D01*
X5812487Y1305004D01*
X5822484D01*
X5827482Y1310003D01*
Y1334994D01*
X5857472Y1329996D02*
X5852474Y1334994D01*
X5842477D01*
X5837479Y1329996D01*
Y1324998D01*
X5842477Y1319999D01*
X5852474D01*
X5857472Y1315001D01*
Y1310003D01*
X5852474Y1305004D01*
X5842477D01*
X5837479Y1310003D01*
X5265016Y2594994D02*
X5255020D01*
X5260018D01*
Y2570003D01*
X5255020Y2565004D01*
X5250021D01*
X5245023Y2570003D01*
X5275013Y2560006D02*
X5295007D01*
X5305003Y2565004D02*
Y2594994D01*
X5319998D01*
X5324997Y2589996D01*
Y2579999D01*
X5319998Y2575001D01*
X5305003D01*
X5315000D02*
X5324997Y2565004D01*
X5354987Y2589996D02*
X5349989Y2594994D01*
X5339992D01*
X5334994Y2589996D01*
Y2584998D01*
X5339992Y2579999D01*
X5349989D01*
X5354987Y2575001D01*
Y2570003D01*
X5349989Y2565004D01*
X5339992D01*
X5334994Y2570003D01*
X5364984Y2594994D02*
X5384977D01*
X5374981D01*
Y2565004D01*
X6301674Y2198829D02*
X6295010Y2205494D01*
X6281681D01*
X6275016Y2198829D01*
Y2172171D01*
X6281681Y2165506D01*
X6295010D01*
X6301674Y2172171D01*
X6315003Y2165506D02*
X6328332D01*
X6321668D01*
Y2205494D01*
X6315003Y2198829D01*
X6348326D02*
X6354990Y2205494D01*
X6368319D01*
X6374984Y2198829D01*
Y2172171D01*
X6368319Y2165506D01*
X6354990D01*
X6348326Y2172171D01*
Y2198829D01*
X5840092Y3337489D02*
Y3297502D01*
X5860086Y3277508D01*
X5880079Y3297502D01*
Y3337489D01*
X5900073D02*
Y3277508D01*
X5930063D01*
X5940060Y3287505D01*
Y3327492D01*
X5930063Y3337489D01*
X5900073D01*
X6000041Y3327492D02*
X5990044Y3337489D01*
X5970050D01*
X5960053Y3327492D01*
Y3287505D01*
X5970050Y3277508D01*
X5990044D01*
X6000041Y3287505D01*
X6020034Y3337489D02*
X6040028D01*
X6030031D01*
Y3277508D01*
X6020034D01*
X6040028D01*
X6070018D02*
Y3337489D01*
X6110005Y3277508D01*
Y3337489D01*
X6129998Y3267511D02*
X6169985D01*
X6229966Y3327492D02*
X6219969Y3337489D01*
X6199976D01*
X6189979Y3327492D01*
Y3287505D01*
X6199976Y3277508D01*
X6219969D01*
X6229966Y3287505D01*
X6279950Y3337489D02*
X6259956D01*
X6249960Y3327492D01*
Y3287505D01*
X6259956Y3277508D01*
X6279950D01*
X6289947Y3287505D01*
Y3327492D01*
X6279950Y3337489D01*
X6309940Y3277508D02*
Y3337489D01*
X6349927Y3277508D01*
Y3337489D01*
X6369921Y3277508D02*
Y3337489D01*
X6409908Y3277508D01*
Y3337489D01*
X5535061Y4287492D02*
X5525065Y4297489D01*
X5505071D01*
X5495074Y4287492D01*
Y4247505D01*
X5505071Y4237508D01*
X5525065D01*
X5535061Y4247505D01*
Y4267498D01*
X5515068D01*
X5555055Y4237508D02*
Y4297489D01*
X5595042Y4237508D01*
Y4297489D01*
X5615035D02*
Y4237508D01*
X5645026D01*
X5655023Y4247505D01*
Y4287492D01*
X5645026Y4297489D01*
X5615035D01*
X5675016Y4227511D02*
X5715003D01*
X5774984Y4287492D02*
X5764987Y4297489D01*
X5744993D01*
X5734997Y4287492D01*
Y4247505D01*
X5744993Y4237508D01*
X5764987D01*
X5774984Y4247505D01*
X5824968Y4297489D02*
X5804974D01*
X5794977Y4287492D01*
Y4247505D01*
X5804974Y4237508D01*
X5824968D01*
X5834964Y4247505D01*
Y4287492D01*
X5824968Y4297489D01*
X5854958Y4237508D02*
Y4297489D01*
X5894945Y4237508D01*
Y4297489D01*
X5914939Y4237508D02*
Y4297489D01*
X5954926Y4237508D01*
Y4297489D01*
X4549177Y3697506D02*
Y3737494D01*
X4569171D01*
X4575836Y3730829D01*
Y3717500D01*
X4569171Y3710836D01*
X4549177D01*
X4562507D02*
X4575836Y3697506D01*
X4589165Y3730829D02*
X4595829Y3737494D01*
X4609158D01*
X4615823Y3730829D01*
Y3724164D01*
X4609158Y3717500D01*
X4615823Y3710836D01*
Y3704171D01*
X4609158Y3697506D01*
X4595829D01*
X4589165Y3704171D01*
Y3710836D01*
X4595829Y3717500D01*
X4589165Y3724164D01*
Y3730829D01*
X4595829Y3717500D02*
X4609158D01*
X1595042Y3744989D02*
X1575049D01*
X1585045D01*
Y3695005D01*
X1575049Y3685008D01*
X1565052D01*
X1555055Y3695005D01*
X1615036Y3675011D02*
X1655023D01*
X1715003Y3744989D02*
X1675016D01*
Y3685008D01*
X1715003D01*
X1675016Y3714998D02*
X1695010D01*
X1774984Y3734992D02*
X1764987Y3744989D01*
X1744994D01*
X1734997Y3734992D01*
Y3724995D01*
X1744994Y3714998D01*
X1764987D01*
X1774984Y3705002D01*
Y3695005D01*
X1764987Y3685008D01*
X1744994D01*
X1734997Y3695005D01*
X1794977Y3744989D02*
Y3685008D01*
Y3714998D01*
X1834965D01*
Y3744989D01*
Y3685008D01*
X1894945Y3744989D02*
X1854958D01*
Y3714998D01*
X1874951D01*
X1854958D01*
Y3685008D01*
X3189171Y2754174D02*
X3182506Y2747510D01*
Y2734181D01*
X3189171Y2727516D01*
X3215829D01*
X3222494Y2734181D01*
Y2747510D01*
X3215829Y2754174D01*
X3222494Y2767503D02*
Y2780832D01*
Y2774168D01*
X3182506D01*
X3189171Y2767503D01*
Y2800826D02*
X3182506Y2807490D01*
Y2820819D01*
X3189171Y2827484D01*
X3195836D01*
X3202500Y2820819D01*
X3209164Y2827484D01*
X3215829D01*
X3222494Y2820819D01*
Y2807490D01*
X3215829Y2800826D01*
X3209164D01*
X3202500Y2807490D01*
X3195836Y2800826D01*
X3189171D01*
X3202500Y2807490D02*
Y2820819D01*
X3532511Y1130071D02*
Y1110078D01*
Y1120074D01*
X3582495D01*
X3592492Y1110078D01*
Y1100081D01*
X3582495Y1090084D01*
X3602489Y1150065D02*
Y1190052D01*
X3592492Y1210045D02*
X3532511D01*
X3552505Y1230039D01*
X3532511Y1250032D01*
X3592492D01*
X3532511Y1310013D02*
Y1270026D01*
X3592492D01*
Y1310013D01*
X3562502Y1270026D02*
Y1290019D01*
X3592492Y1330006D02*
X3532511D01*
X3552505Y1350000D01*
X3532511Y1369994D01*
X3592492D01*
X3602489Y1389987D02*
Y1429974D01*
X3542508Y1489955D02*
X3532511Y1479958D01*
Y1459965D01*
X3542508Y1449968D01*
X3582495D01*
X3592492Y1459965D01*
Y1479958D01*
X3582495Y1489955D01*
X3532511Y1509948D02*
X3592492D01*
Y1549935D01*
X3532511Y1569929D02*
X3592492D01*
X3572498D01*
X3532511Y1609916D01*
X3562502Y1579926D01*
X3592492Y1609916D01*
X2960011Y1102581D02*
Y1082587D01*
Y1092584D01*
X3009995D01*
X3019992Y1082587D01*
Y1072591D01*
X3009995Y1062594D01*
X3029989Y1122574D02*
Y1162561D01*
X3019992Y1182555D02*
X2960011D01*
X2980005Y1202548D01*
X2960011Y1222542D01*
X3019992D01*
X2960011Y1282523D02*
Y1242535D01*
X3019992D01*
Y1282523D01*
X2990001Y1242535D02*
Y1262529D01*
X3019992Y1302516D02*
X2960011D01*
X2980005Y1322510D01*
X2960011Y1342503D01*
X3019992D01*
X3029989Y1362497D02*
Y1402484D01*
X2960011Y1422477D02*
X3019992D01*
Y1452468D01*
X3009995Y1462464D01*
X2970008D01*
X2960011Y1452468D01*
Y1422477D01*
X3019992Y1482458D02*
X2980005D01*
X2960011Y1502451D01*
X2980005Y1522445D01*
X3019992D01*
X2990001D01*
Y1482458D01*
X2960011Y1542438D02*
Y1582426D01*
Y1562432D01*
X3019992D01*
Y1602419D02*
X2980005D01*
X2960011Y1622413D01*
X2980005Y1642406D01*
X3019992D01*
X2990001D01*
Y1602419D01*
X1143361Y1623326D02*
X1130032D01*
X1136697D01*
Y1590003D01*
X1130032Y1583339D01*
X1123368D01*
X1116703Y1590003D01*
X1156690Y1576674D02*
X1183348D01*
X1223335Y1616661D02*
X1216671Y1623326D01*
X1203342D01*
X1196678Y1616661D01*
Y1590003D01*
X1203342Y1583339D01*
X1216671D01*
X1223335Y1590003D01*
Y1603332D01*
X1210006D01*
X1236665Y1583339D02*
Y1623326D01*
X1263323Y1583339D01*
Y1623326D01*
X1276652D02*
Y1583339D01*
X1296645D01*
X1303310Y1590003D01*
Y1616661D01*
X1296645Y1623326D01*
X1276652D01*
X1316639Y1616661D02*
X1323303Y1623326D01*
X1336632D01*
X1343297Y1616661D01*
Y1609997D01*
X1336632Y1603332D01*
X1329968D01*
X1336632D01*
X1343297Y1596668D01*
Y1590003D01*
X1336632Y1583339D01*
X1323303D01*
X1316639Y1590003D01*
X2470836Y4263329D02*
X2464171Y4269994D01*
X2450842D01*
X2444177Y4263329D01*
Y4236671D01*
X2450842Y4230007D01*
X2464171D01*
X2470836Y4236671D01*
X2484165Y4263329D02*
X2490829Y4269994D01*
X2504158D01*
X2510823Y4263329D01*
Y4256664D01*
X2504158Y4250000D01*
X2510823Y4243336D01*
Y4236671D01*
X2504158Y4230007D01*
X2490829D01*
X2484165Y4236671D01*
Y4243336D01*
X2490829Y4250000D01*
X2484165Y4256664D01*
Y4263329D01*
X2490829Y4250000D02*
X2504158D01*
X5073336Y3998329D02*
X5066671Y4004994D01*
X5053342D01*
X5046677Y3998329D01*
Y3971671D01*
X5053342Y3965006D01*
X5066671D01*
X5073336Y3971671D01*
X5106658Y3965006D02*
Y4004994D01*
X5086665Y3985000D01*
X5113323D01*
X5119177Y2835006D02*
Y2874994D01*
X5139171D01*
X5145836Y2868329D01*
Y2855000D01*
X5139171Y2848336D01*
X5119177D01*
X5132507D02*
X5145836Y2835006D01*
X5159165Y2868329D02*
X5165829Y2874994D01*
X5179158D01*
X5185823Y2868329D01*
Y2861664D01*
X5179158Y2855000D01*
X5172494D01*
X5179158D01*
X5185823Y2848336D01*
Y2841671D01*
X5179158Y2835006D01*
X5165829D01*
X5159165Y2841671D01*
X5325836Y2948329D02*
X5319171Y2954994D01*
X5305842D01*
X5299177Y2948329D01*
Y2921671D01*
X5305842Y2915006D01*
X5319171D01*
X5325836Y2921671D01*
X5339165Y2948329D02*
X5345829Y2954994D01*
X5359158D01*
X5365823Y2948329D01*
Y2941664D01*
X5359158Y2935000D01*
X5352494D01*
X5359158D01*
X5365823Y2928336D01*
Y2921671D01*
X5359158Y2915006D01*
X5345829D01*
X5339165Y2921671D01*
X1826697Y1475839D02*
Y1515826D01*
X1846690D01*
X1853355Y1509161D01*
Y1495832D01*
X1846690Y1489168D01*
X1826697D01*
X1840026D02*
X1853355Y1475839D01*
X1866684Y1469174D02*
X1893342D01*
X1933329Y1509161D02*
X1926665Y1515826D01*
X1913335D01*
X1906671Y1509161D01*
Y1502497D01*
X1913335Y1495832D01*
X1926665D01*
X1933329Y1489168D01*
Y1482503D01*
X1926665Y1475839D01*
X1913335D01*
X1906671Y1482503D01*
X1973316Y1509161D02*
X1966652Y1515826D01*
X1953323D01*
X1946658Y1509161D01*
Y1482503D01*
X1953323Y1475839D01*
X1966652D01*
X1973316Y1482503D01*
X1986645Y1515826D02*
Y1475839D01*
X2013303D01*
X1826697Y1100837D02*
Y1140824D01*
X1846690D01*
X1853355Y1134160D01*
Y1120831D01*
X1846690Y1114166D01*
X1826697D01*
X1840026D02*
X1853355Y1100837D01*
X1866684Y1094173D02*
X1893342D01*
X1933329Y1134160D02*
X1926665Y1140824D01*
X1913335D01*
X1906671Y1134160D01*
Y1127495D01*
X1913335Y1120831D01*
X1926665D01*
X1933329Y1114166D01*
Y1107502D01*
X1926665Y1100837D01*
X1913335D01*
X1906671Y1107502D01*
X1946658Y1140824D02*
Y1100837D01*
X1966652D01*
X1973316Y1107502D01*
Y1134160D01*
X1966652Y1140824D01*
X1946658D01*
X1986645Y1100837D02*
Y1127495D01*
X1999974Y1140824D01*
X2013303Y1127495D01*
Y1100837D01*
Y1120831D01*
X1986645D01*
X4745078Y2752489D02*
X4725084D01*
X4735081D01*
Y2702505D01*
X4725084Y2692508D01*
X4715087D01*
X4705091Y2702505D01*
X4765071Y2682511D02*
X4805058D01*
X4825052Y2752489D02*
Y2712502D01*
X4845045Y2692508D01*
X4865039Y2712502D01*
Y2752489D01*
X4925020Y2742492D02*
X4915023Y2752489D01*
X4895029D01*
X4885032Y2742492D01*
Y2702505D01*
X4895029Y2692508D01*
X4915023D01*
X4925020Y2702505D01*
X4985000Y2742492D02*
X4975003Y2752489D01*
X4955010D01*
X4945013Y2742492D01*
Y2702505D01*
X4955010Y2692508D01*
X4975003D01*
X4985000Y2702505D01*
X5034984Y2752489D02*
X5014990D01*
X5004994Y2742492D01*
Y2702505D01*
X5014990Y2692508D01*
X5034984D01*
X5044981Y2702505D01*
Y2742492D01*
X5034984Y2752489D01*
X5064974Y2682511D02*
X5104961D01*
X5124955Y2692508D02*
Y2752489D01*
X5144948Y2732495D01*
X5164942Y2752489D01*
Y2692508D01*
X5224922Y2742492D02*
X5214926Y2752489D01*
X5194932D01*
X5184935Y2742492D01*
Y2702505D01*
X5194932Y2692508D01*
X5214926D01*
X5224922Y2702505D01*
X5244916Y2692508D02*
X5264909D01*
X5254913D01*
Y2752489D01*
X5244916Y2742492D01*
X4580031Y3574989D02*
X4560037D01*
X4570034D01*
Y3525005D01*
X4560037Y3515008D01*
X4550041D01*
X4540044Y3525005D01*
X4600024Y3505011D02*
X4640011D01*
X4660005Y3515008D02*
X4679998D01*
X4670002D01*
Y3574989D01*
X4660005Y3564992D01*
X4709989Y3574989D02*
Y3535002D01*
X4729982Y3515008D01*
X4749976Y3535002D01*
Y3574989D01*
X4769969Y3564992D02*
X4779966Y3574989D01*
X4799960D01*
X4809956Y3564992D01*
Y3525005D01*
X4799960Y3515008D01*
X4779966D01*
X4769969Y3525005D01*
Y3564992D01*
X3275000Y2353329D02*
X3268336Y2359994D01*
X3255006D01*
X3248342Y2353329D01*
Y2326671D01*
X3255006Y2320006D01*
X3268336D01*
X3275000Y2326671D01*
X3288329Y2320006D02*
X3301658D01*
X3294994D01*
Y2359994D01*
X3288329Y2353329D01*
X2355026Y2020010D02*
Y2079990D01*
X2375019Y2059997D01*
X2395013Y2079990D01*
Y2020010D01*
X2454994Y2069994D02*
X2444997Y2079990D01*
X2425003D01*
X2415006Y2069994D01*
Y2030006D01*
X2425003Y2020010D01*
X2444997D01*
X2454994Y2030006D01*
X2514974Y2020010D02*
X2474987D01*
X2514974Y2059997D01*
Y2069994D01*
X2504977Y2079990D01*
X2484984D01*
X2474987Y2069994D01*
X4620023Y2020010D02*
Y2079990D01*
X4640016Y2059997D01*
X4660010Y2079990D01*
Y2020010D01*
X4719990Y2069994D02*
X4709994Y2079990D01*
X4690000D01*
X4680003Y2069994D01*
Y2030006D01*
X4690000Y2020010D01*
X4709994D01*
X4719990Y2030006D01*
X4739984Y2020010D02*
X4759977D01*
X4749981D01*
Y2079990D01*
X4739984Y2069994D01*
X5506674Y2980829D02*
X5500010Y2987494D01*
X5486681D01*
X5480016Y2980829D01*
Y2954171D01*
X5486681Y2947506D01*
X5500010D01*
X5506674Y2954171D01*
X5520003Y2947506D02*
X5533332D01*
X5526668D01*
Y2987494D01*
X5520003Y2980829D01*
X5553326Y2987494D02*
X5579984D01*
Y2980829D01*
X5553326Y2954171D01*
Y2947506D01*
X4896674Y2960829D02*
X4890010Y2967494D01*
X4876681D01*
X4870016Y2960829D01*
Y2934171D01*
X4876681Y2927506D01*
X4890010D01*
X4896674Y2934171D01*
X4910003Y2927506D02*
X4923332D01*
X4916668D01*
Y2967494D01*
X4910003Y2960829D01*
X4969984Y2967494D02*
X4956655Y2960829D01*
X4943326Y2947500D01*
Y2934171D01*
X4949990Y2927506D01*
X4963319D01*
X4969984Y2934171D01*
Y2940836D01*
X4963319Y2947500D01*
X4943326D01*
X4796677Y3987494D02*
Y3954171D01*
X4803342Y3947506D01*
X4816671D01*
X4823336Y3954171D01*
Y3987494D01*
X4863323D02*
X4836665D01*
Y3967500D01*
X4849994Y3974164D01*
X4856658D01*
X4863323Y3967500D01*
Y3954171D01*
X4856658Y3947506D01*
X4843329D01*
X4836665Y3954171D01*
X4870048Y4470839D02*
Y4510826D01*
X4890042D01*
X4896706Y4504161D01*
Y4490832D01*
X4890042Y4484168D01*
X4870048D01*
X4910035Y4470839D02*
X4923364D01*
X4916700D01*
Y4510826D01*
X4910035Y4504161D01*
X4943358Y4510826D02*
Y4484168D01*
X4956687Y4470839D01*
X4970016Y4484168D01*
Y4510826D01*
X5010003Y4470839D02*
X4983345D01*
X5010003Y4497497D01*
Y4504161D01*
X5003339Y4510826D01*
X4990010D01*
X4983345Y4504161D01*
X5023332Y4464174D02*
X5049990D01*
X5063319Y4470839D02*
Y4510826D01*
X5083313D01*
X5089977Y4504161D01*
Y4490832D01*
X5083313Y4484168D01*
X5063319D01*
X5123300Y4510826D02*
X5109971D01*
X5103306Y4504161D01*
Y4477503D01*
X5109971Y4470839D01*
X5123300D01*
X5129965Y4477503D01*
Y4504161D01*
X5123300Y4510826D01*
X5143294D02*
X5169952D01*
X5156623D01*
Y4470839D01*
X3066671Y2845836D02*
X3060006Y2839171D01*
Y2825842D01*
X3066671Y2819177D01*
X3093329D01*
X3099994Y2825842D01*
Y2839171D01*
X3093329Y2845836D01*
X3099994Y2885823D02*
Y2859165D01*
X3073336Y2885823D01*
X3066671D01*
X3060006Y2879158D01*
Y2865829D01*
X3066671Y2859165D01*
X5418361Y3218326D02*
Y3185003D01*
X5425026Y3178339D01*
X5438355D01*
X5445019Y3185003D01*
Y3218326D01*
X5458348Y3171674D02*
X5485006D01*
X5498336Y3218326D02*
Y3178339D01*
X5524993D01*
X5564981Y3211661D02*
X5558316Y3218326D01*
X5544987D01*
X5538323Y3211661D01*
Y3204997D01*
X5544987Y3198332D01*
X5558316D01*
X5564981Y3191668D01*
Y3185003D01*
X5558316Y3178339D01*
X5544987D01*
X5538323Y3185003D01*
X5578310Y3178339D02*
X5591639D01*
X5584974D01*
Y3218326D01*
X5578310Y3211661D01*
X4679197Y3145826D02*
Y3112503D01*
X4685861Y3105839D01*
X4699190D01*
X4705855Y3112503D01*
Y3145826D01*
X4719184Y3099174D02*
X4745842D01*
X4759171Y3145826D02*
Y3105839D01*
X4785829D01*
X4825816Y3139161D02*
X4819152Y3145826D01*
X4805823D01*
X4799158Y3139161D01*
Y3132497D01*
X4805823Y3125832D01*
X4819152D01*
X4825816Y3119168D01*
Y3112503D01*
X4819152Y3105839D01*
X4805823D01*
X4799158Y3112503D01*
X4865803Y3105839D02*
X4839145D01*
X4865803Y3132497D01*
Y3139161D01*
X4859139Y3145826D01*
X4845810D01*
X4839145Y3139161D01*
X5084177Y3290006D02*
Y3329994D01*
X5104171D01*
X5110836Y3323329D01*
Y3310000D01*
X5104171Y3303336D01*
X5084177D01*
X5097507D02*
X5110836Y3290006D01*
X5124165Y3296671D02*
X5130829Y3290006D01*
X5144158D01*
X5150823Y3296671D01*
Y3323329D01*
X5144158Y3329994D01*
X5130829D01*
X5124165Y3323329D01*
Y3316664D01*
X5130829Y3310000D01*
X5150823D01*
X4786677Y3262506D02*
Y3302494D01*
X4806671D01*
X4813336Y3295829D01*
Y3282500D01*
X4806671Y3275836D01*
X4786677D01*
X4800007D02*
X4813336Y3262506D01*
X4826665Y3302494D02*
X4853323D01*
Y3295829D01*
X4826665Y3269171D01*
Y3262506D01*
X1713361Y4138326D02*
X1700032D01*
X1706697D01*
Y4105003D01*
X1700032Y4098339D01*
X1693368D01*
X1686703Y4105003D01*
X1726690Y4091674D02*
X1753348D01*
X1793335Y4131661D02*
X1786671Y4138326D01*
X1773342D01*
X1766678Y4131661D01*
Y4105003D01*
X1773342Y4098339D01*
X1786671D01*
X1793335Y4105003D01*
Y4118332D01*
X1780006D01*
X1806665Y4098339D02*
Y4138326D01*
X1833323Y4098339D01*
Y4138326D01*
X1846652D02*
Y4098339D01*
X1866645D01*
X1873310Y4105003D01*
Y4131661D01*
X1866645Y4138326D01*
X1846652D01*
X1913297Y4098339D02*
X1886639D01*
X1913297Y4124997D01*
Y4131661D01*
X1906632Y4138326D01*
X1893303D01*
X1886639Y4131661D01*
X5470026Y1133326D02*
X5456697D01*
X5463361D01*
Y1100003D01*
X5456697Y1093339D01*
X5450032D01*
X5443368Y1100003D01*
X5483355Y1086674D02*
X5510013D01*
X5550000Y1126661D02*
X5543336Y1133326D01*
X5530007D01*
X5523342Y1126661D01*
Y1100003D01*
X5530007Y1093339D01*
X5543336D01*
X5550000Y1100003D01*
Y1113332D01*
X5536671D01*
X5563329Y1093339D02*
Y1133326D01*
X5589987Y1093339D01*
Y1133326D01*
X5603316D02*
Y1093339D01*
X5623310D01*
X5629974Y1100003D01*
Y1126661D01*
X5623310Y1133326D01*
X5603316D01*
X5643303Y1093339D02*
X5656632D01*
X5649968D01*
Y1133326D01*
X5643303Y1126661D01*
X2077542Y4462489D02*
X2057548D01*
X2067545D01*
Y4412505D01*
X2057548Y4402508D01*
X2047552D01*
X2037555Y4412505D01*
X2097536Y4392511D02*
X2137523D01*
X2197503Y4462489D02*
X2177510D01*
X2187506D01*
Y4412505D01*
X2177510Y4402508D01*
X2167513D01*
X2157516Y4412505D01*
X2217497Y4462489D02*
X2257484D01*
X2237490D01*
Y4402508D01*
X2277477D02*
Y4442495D01*
X2297471Y4462489D01*
X2317465Y4442495D01*
Y4402508D01*
Y4432498D01*
X2277477D01*
X2377445Y4452492D02*
X2367448Y4462489D01*
X2347455D01*
X2337458Y4452492D01*
Y4412505D01*
X2347455Y4402508D01*
X2367448D01*
X2377445Y4412505D01*
Y4432498D01*
X2357452D01*
X4325031Y3912489D02*
X4305037D01*
X4315034D01*
Y3862505D01*
X4305037Y3852508D01*
X4295041D01*
X4285044Y3862505D01*
X4345024Y3842511D02*
X4385011D01*
X4405005Y3852508D02*
X4424998D01*
X4415002D01*
Y3912489D01*
X4405005Y3902492D01*
X4454989Y3912489D02*
Y3872502D01*
X4474982Y3852508D01*
X4494976Y3872502D01*
Y3912489D01*
X4554956Y3852508D02*
X4514969D01*
X4554956Y3892495D01*
Y3902492D01*
X4544960Y3912489D01*
X4524966D01*
X4514969Y3902492D01*
X5590861Y4500826D02*
X5577532D01*
X5584197D01*
Y4467503D01*
X5577532Y4460839D01*
X5570868D01*
X5564203Y4467503D01*
X5604190Y4454174D02*
X5630848D01*
X5670836Y4494161D02*
X5664171Y4500826D01*
X5650842D01*
X5644177Y4494161D01*
Y4467503D01*
X5650842Y4460839D01*
X5664171D01*
X5670836Y4467503D01*
Y4480832D01*
X5657507D01*
X5684165Y4460839D02*
Y4500826D01*
X5710823Y4460839D01*
Y4500826D01*
X5724152D02*
Y4460839D01*
X5744145D01*
X5750810Y4467503D01*
Y4494161D01*
X5744145Y4500826D01*
X5724152D01*
X5784132Y4460839D02*
Y4500826D01*
X5764139Y4480832D01*
X5790797D01*
X5781677Y4032494D02*
Y3992506D01*
X5801671D01*
X5808336Y3999171D01*
Y4025829D01*
X5801671Y4032494D01*
X5781677D01*
X5821665Y4025829D02*
X5828329Y4032494D01*
X5841658D01*
X5848323Y4025829D01*
Y4019164D01*
X5841658Y4012500D01*
X5834994D01*
X5841658D01*
X5848323Y4005836D01*
Y3999171D01*
X5841658Y3992506D01*
X5828329D01*
X5821665Y3999171D01*
X5484197Y3445826D02*
Y3405839D01*
X5504190D01*
X5510855Y3412503D01*
Y3439161D01*
X5504190Y3445826D01*
X5484197D01*
X5524184Y3399174D02*
X5550842D01*
X5590829Y3445826D02*
X5564171D01*
Y3425832D01*
X5577500Y3432497D01*
X5584164D01*
X5590829Y3425832D01*
Y3412503D01*
X5584164Y3405839D01*
X5570836D01*
X5564171Y3412503D01*
X5604158Y3445826D02*
Y3419168D01*
X5617487Y3405839D01*
X5630816Y3419168D01*
Y3445826D01*
X5670803D02*
X5644145D01*
Y3425832D01*
X5657474Y3432497D01*
X5664139D01*
X5670803Y3425832D01*
Y3412503D01*
X5664139Y3405839D01*
X5650810D01*
X5644145Y3412503D01*
X5485029Y3823326D02*
Y3783339D01*
X5505023D01*
X5511687Y3790003D01*
Y3816661D01*
X5505023Y3823326D01*
X5485029D01*
X5525016Y3776674D02*
X5551674D01*
X5565003Y3783339D02*
X5578332D01*
X5571668D01*
Y3823326D01*
X5565003Y3816661D01*
X5598326Y3823326D02*
Y3796668D01*
X5611655Y3783339D01*
X5624984Y3796668D01*
Y3823326D01*
X5664971Y3783339D02*
X5638313D01*
X5664971Y3809997D01*
Y3816661D01*
X5658306Y3823326D01*
X5644977D01*
X5638313Y3816661D01*
X4604174Y4008329D02*
X4597510Y4014994D01*
X4584181D01*
X4577516Y4008329D01*
Y3981671D01*
X4584181Y3975006D01*
X4597510D01*
X4604174Y3981671D01*
X4617503Y3975006D02*
X4630832D01*
X4624168D01*
Y4014994D01*
X4617503Y4008329D01*
X4650826D02*
X4657490Y4014994D01*
X4670819D01*
X4677484Y4008329D01*
Y4001664D01*
X4670819Y3995000D01*
X4664155D01*
X4670819D01*
X4677484Y3988336D01*
Y3981671D01*
X4670819Y3975006D01*
X4657490D01*
X4650826Y3981671D01*
X6000836Y3845829D02*
X5994171Y3852494D01*
X5980842D01*
X5974177Y3845829D01*
Y3819171D01*
X5980842Y3812506D01*
X5994171D01*
X6000836Y3819171D01*
X6014165D02*
X6020829Y3812506D01*
X6034158D01*
X6040823Y3819171D01*
Y3845829D01*
X6034158Y3852494D01*
X6020829D01*
X6014165Y3845829D01*
Y3839164D01*
X6020829Y3832500D01*
X6040823D01*
X4975836Y3998329D02*
X4969171Y4004994D01*
X4955842D01*
X4949177Y3998329D01*
Y3971671D01*
X4955842Y3965006D01*
X4969171D01*
X4975836Y3971671D01*
X5015823Y4004994D02*
X4989165D01*
Y3985000D01*
X5002494Y3991664D01*
X5009158D01*
X5015823Y3985000D01*
Y3971671D01*
X5009158Y3965006D01*
X4995829D01*
X4989165Y3971671D01*
D19*
X4770153Y4784500D02*
X4736831Y4751177D01*
Y4784500D02*
X4770153Y4751177D01*
X4753492Y4784500D02*
Y4751177D01*
X4736831Y4767839D02*
X4770153D01*
X4935000Y3748347D02*
X4901677Y3781669D01*
X4935000D02*
X4901677Y3748347D01*
X4935000Y3765008D02*
X4901677D01*
X4918339Y3781669D02*
Y3748347D01*
D20*
X5428500Y4731750D02*
D03*
M02*
