M48
;Layer_Color=9474304
;FILE_FORMAT=2:5
INCH,LZ
;TYPE=PLATED
T01F00S00C0.01200
T02F00S00C0.01200
T03F00S00C0.02800
T04F00S00C0.03386
T05F00S00C0.03543
T06F00S00C0.03800
T07F00S00C0.04000
T08F00S00C0.04016
T09F00S00C0.04331
T10F00S00C0.04700
T11F00S00C0.05906
T12F00S00C0.12598
T13F00S00C0.21457
%
T01
X01325Y01545
X01435Y01525
X0152Y01445
X01545Y0135
X0157Y0123
X0164Y0113
X01725Y01075
X0183Y0105
Y011475
X01945
Y0105
X02045
Y011475
X02145
Y0105
X02245
X02345
X02345Y0114777
X02445Y0115
Y0105
X02545
X02645
X02745
X02845
X02945
X03045
Y0115
X02945
X02845
X02745
X02645
X02545
Y0128
Y0134
X02425
Y0128
X02305
Y0134
X02315Y014325
Y0153
X02435
X02555
X02675
X02795
X02945Y0155
X03045
Y0145
Y0135
Y0125
X02945Y01275
Y0135
X02785Y0134
Y0128
X02665
Y0134
X0213
Y0128
X0201
Y0134
X0189
Y0128
X0177
Y0134
X0171Y0143
X0164Y015
X018Y0153
X0192
X0204
Y014325
X02175
Y0153
X03145Y0155
X03204
X0326
X03317
Y0145
X0326Y014475
Y013975
Y013475
X03204
Y013975
Y014475
X03145Y0145
Y0135
Y0125
X03205
Y012
X03261
Y0125
Y01113
X03205
X03145Y0105
X03317
X03417
X03517
X03617
X03717
X037775Y01113
X038335
Y012
X03835Y0125
X03889
Y0135
X03834Y013475
Y013975
Y014475
X03778
Y013975
Y013475
X03717Y0135
X03617
Y0145
X03717
Y0155
X03617
X03517
X03417
Y0145
Y0135
X03317
X03517
Y0145
Y0115
X03417
X03617
X037775Y012
Y0125
X03989
Y0115
Y0105
X03889
X04089
X04189
X04289
X04389
X04465
X04545
X04645
X04645Y0115109
X04545
X04465Y0115
X04389
X04289
X04189
X04089
Y0125
Y0135
X03989
Y0145
X03889
Y0155
X03989
X04089
Y0145
X0419Y01375
X04275Y01335
Y01275
X04395Y01275
Y01335
X04515Y01335
Y01275
X04635Y01275
Y01335
X0466Y0143
X04515Y01465
X04395
X04275
X04289Y0155
X04189
X04755Y01455
X04735Y0136
X04745Y0115109
X04745Y0105037
X04845
X0483Y0111
X0495
X04945Y0105037
X05045
X0507Y0111
X0519
X05145Y0105037
X05245
X0531Y0111
Y0123
Y0135
Y0147
X0519
Y0135
Y0123
X0507
Y0135
Y0147
X0495
Y0135
Y0123
X0483
X0543
Y0111
X0555
X0567
Y0123
X0579
X0591
Y0135
X05955Y0147
X0579Y0111
X0627Y0159
Y0171
X0639
Y0183
Y0195
Y0207
Y0219
Y0231
Y0243
Y0255
Y0267
Y0279
X0627
Y0267
Y0255
Y0243
Y0231
Y0219
Y0207
Y0195
Y0183
Y0291
Y0303
X0639
Y0291
X0615
Y0279
Y0267
X0616909Y0251653
X0608Y02515
X06045Y0243
Y0231
X05965
X0596Y0247
X059Y0253
X0584Y0259
X0578Y0265
X0572Y0271
X0566Y0277
X056Y0283
X0554
Y0289
X0548
X0542
Y0283
X0548
X0547Y0296372
X0552872
X0559Y03025
Y0309
X0574Y03055
Y02975
Y02895
X0586
X05935
Y02815
X0586
Y02975
Y03055
X053675Y02985
X05335Y029525
X053025Y02985
X05265Y02685
X052Y0262
X0507
X0494
Y0249
Y0236
Y0223
Y021
Y0197
Y018475
X0493Y0175
X04865Y01685
X04735
Y01565
X048
Y0162
Y0175
X0481Y018475
X04745Y01905
X04875
X05005
X0507Y018475
X0506Y0175
X04995Y01685
X05125
Y0162
X0506
X0493
X0519Y0175
X05255
X052Y018475
X05135Y01905
X0507Y0197
X05005Y02035
X04875
X0481Y0197
X04745Y02035
X0481Y021
X04745Y02165
X04875
X0481Y0223
X04745Y02295
X04875
X0481Y0236
X04745Y02425
X04875
X0481Y0249
X04745Y02555
X04875
X0481Y0262
X04745Y02685
X04875
X05005
Y02555
Y02425
Y02295
Y02165
X0507Y021
X05135Y02035
X052Y0197
X05265Y02035
Y01905
X0533Y018475
Y0197
X05395Y02035
Y01905
X0546Y0197
X05525Y02035
Y01905
X0559Y0197
X05655Y02035
Y01905
X0572Y0197
X05785Y02035
Y01905
X0585Y0197
X05955Y0195
X0603
Y0183
X05955
X0585Y0184
X0572
X0559
X0546
X05525Y01775
X05655
X05785
X0585Y0171
X05955
X0603
X0615
Y0159
X0603
X0615Y0183
Y0195
X06165Y0207
X06045
X05965
X06045Y0219
X06165
Y0231
Y0243
X05655Y02555
X0559Y0262
X0546
X0533
X05265Y02555
X05135
Y02685
X05395
Y02555
X05525
Y02685
X049625Y030025
X0492Y0299
Y03045
X0488Y030925
X047524Y030926
X0559Y0171
X0572
X04615
Y01645
Y0158
Y01775
Y0184
X0468
X04615Y01905
X0455Y0197
Y021
Y0223
Y0236
X0450961Y0235358
X0445126Y0235378
X0439291Y0235358
X04615Y02295
Y02165
Y02035
X0468Y0197
Y021
Y0223
Y0236
X04615Y02425
X0455Y0249
Y0262
X0450961Y0266854
X0445126Y0266874
X0439291Y0266854
X04615Y02685
Y02555
X0468Y0249
Y0262
X0426669Y0301539
X0420835Y030152
X0415Y03015
X0394746Y0302917
Y028024
X034Y02805
Y02685
Y02565
Y02445
X0328
Y02565
Y02685
Y02805
Y02925
X034
Y03045
X0328
X0334Y02985
Y02865
Y02745
Y02625
Y02505
Y02385
X0322
X0316Y02445
Y02565
Y02685
X0322Y02745
Y02625
Y02505
X03217Y022425
X032625Y02225
Y021675
X03217Y0215
X0317Y021675
Y02225
X03315Y022425
X033625Y02225
Y021675
X03315Y0215
X0341
X034475Y021675
Y02225
X0341Y022425
X035Y022225
X035325Y021925
X035675Y021575
X036025Y021225
X036375Y020875
X036725Y020525
X037075Y020175
X037425Y019825
X037775Y019475
X038125Y019125
X03834Y01875
Y01825
Y01775
Y01725
Y01675
Y01625
Y01575
X03778
Y01625
Y01675
Y01725
Y01775
Y01825
X037725Y018725
X037375Y019075
X037025Y019425
X036675Y019775
X036325Y020125
X035975Y020475
X035625Y020825
X035275Y021175
X034925Y021525
X03517Y0205
X03417
Y0195
Y0185
Y0175
Y0165
X03317
X0326
Y016
X03204
Y0165
Y017
Y0175
Y018
Y0185
X0326
Y018
Y0175
Y017
X03317Y0175
Y0185
Y0195
Y0205
X03217
X03195Y0197
X0323Y01935
X0326Y019
X0319Y01895
X03155Y0193
X0316Y02005
X03145Y0185
Y0175
Y0165
X03517
X03617
X03717
Y0175
X03617
Y0185
X03717
X03889
Y0175
Y0165
X03989
X04089
Y0175
X03989
Y0185
X04089
Y0195
X03989
X03889
Y0205
X03805
Y0215
X03889
X03717
Y0225
X03805
X03617
Y0195
X03517
Y0185
Y0175
X04189
Y0185
Y0195
X0420835Y0197583
Y0200732
X03989Y0205
X04189Y0165
X037Y03105
X0358
X0346
X0334
X0322
Y02985
Y02865
X03075Y0286098
Y0298697
X0301Y0304996
Y0292398
Y0279799
Y02735
X02945
X029675Y026625
Y02625
Y02565
Y02505
Y02445
X0304
X030525Y02525
Y02555
X030225
Y02525
X031Y02505
Y02625
Y02385
X0298
X0287703Y0235436
X02795Y0232157
X02765
X02735
Y0225858
X02765
X02795
X0277567Y0223358
X0274567
X0271567
Y0219608
Y0216358
X0275634Y0215858
X0278634
X0277567Y0218358
X0274567
X0275634Y0220858
X0278634
X0278Y020725
Y02041
Y0200951
Y0197801
X027475
Y0194652
Y0191502
Y0188352
X02715
Y0191502
Y0194652
Y0197801
Y0200951
Y02041
Y020725
X027475
Y02041
Y0200951
X02635Y0199
X02555Y0201
X02435
X02485Y01955
X02435Y0189
X02555
X02315
Y0201
X02175
Y02085
X0216Y02175
Y02275
X0228
Y02175
X024
Y02275
X0252
Y02175
X025752Y0235398
X0263354Y0235378
X0269189Y0235358
X02735Y0244756
Y0248055
Y0251055
X02765
X02795
Y0257354
X02765
X02735
Y0263653
X02765
X02795
Y0266803
X02765
X02735
Y0273102
X02765
X02795
Y0279402
X02765
X02735
Y0285701
X02765
X02795
Y0292
X02765
X02735
Y029825
X02765
X02795
X0279Y03015
X0287646Y030152
X02945Y0298697
Y0286098
X0287646Y0266874
X0263354
X025752Y0266854
X0263354Y030152
X027Y03015
X0248Y0303
X0242Y0309
X01915Y0308
Y0303
Y0298
Y0293
Y0288
Y0283
Y0278
Y0273
Y0268
Y0263
Y0258
Y0253
Y0248
Y0243
Y0238
Y0233
Y0228
X018
Y0223
Y0218
Y0213
Y0201
Y0189
Y0177
Y0165
X0192
X0204
Y0177
X0192
Y0189
X0204
Y0201
X0192
Y0213
X0204Y02175
Y02275
X018Y0233
Y0238
Y0243
Y0248
Y0253
Y0258
Y0263
Y0268
Y0273
Y0278
Y0283
Y0288
Y0293
Y0298
Y0303
Y0308
X0164Y0248
Y0213
Y0201
Y0189
Y0177
Y0165
X0157Y0157
X02175Y0165
Y0177
Y0189
X02315Y0177
X02435
Y0165
X02315
X02865
X02945
X03045
Y0175
X02945
Y0185
X03045
Y0195
X030625Y019775
Y020325
X03045Y0205
X030075Y020325
Y019775
X029525
X02945Y0195
X029525Y020325
Y021675
X0298Y0215
X030075Y021675
X03045Y0215
X0308Y021675
X031175Y0215
Y022425
X0308Y02225
X03045Y022425
X030075Y02225
X0298Y022425
X029525Y02225
X03117Y0205
X0312Y01965
X02795Y0244756
X031Y0312299
X01485Y0311
X01365
X01245
X01125
X0105Y03105
Y03005
X01125Y0299
X01245
X01365
X01485
Y0287
X01365
X01245
X01125
X0105Y02905
Y02805
Y02705
Y02605
Y02505
X01125Y0251
Y0263
Y0275
X01245
X01365
X01485
Y0263
X01365
X01245
Y0251
X01365
X01485
Y0239
X01365
X01245
X01125
X0105Y02405
Y02305
Y02205
Y02105
Y02005
Y01905
X01125Y0191
Y0203
Y0215
Y0227
X01245
X01365
X01485
X01405Y0218
X0133Y02105
Y0202
Y01935
Y0185
X0136Y0178
X0143Y0171
X015Y0164
X01465Y018325
X0152Y0189
Y0201
X01465Y020775
X01105Y017975
X0105Y01805
X0108Y0171
X01145Y01625
X0122Y01575
X01245Y0323
Y0335
Y0347
Y0359
Y0371
X01365
X01485
Y0383
X01365
X01245
X01125
Y0395
Y0407
X01245
Y0395
X01365
X01485
Y0407
Y0419
Y0431
Y0443
X01365
Y0431
Y0419
X01245
Y0431
Y0443
X01125Y0431
Y0419
X01365Y0407
Y0359
X01485
Y0347
X01365
Y0335
X01485
Y0323
X01365
X01125
X0105Y03205
Y03305
Y03405
Y03505
X01125Y0347
Y0359
Y0371
Y0335
X01605
Y0347
Y0359
Y0371
Y0383
X01725
X01845
X01955
Y0371
X01845
X01725
Y0359
X01845
X01955
X02075
Y0371
Y0383
Y0395
X01955
Y0407
X02075
Y0419
Y0431
Y0443
Y0455
X01955
X01845
Y0467
X01955
X02075
X02195
X02315
X02435
X02555
X02675
X02795
X02915
X0301
X031
Y0455
X0301
X02915
Y0443
X0301
X031
Y0431
X0301
X02915
Y0419
X0301
X031
Y0407
X0301
X02915
X0282
Y0419
X02725
X02705Y0404
X0279Y03955
Y03825
X02815Y03715
X02915Y0371
X0301
X031
Y0359
Y0347
X0298Y0359
X0301Y0389
X031
X02915
X0262Y04125
X02535Y0421
X0245Y04295
X02435Y0443
Y0455
X02315
X02195
Y0443
Y04345
X02315
Y0443
X01955
X01845
Y0431
X01955
Y0419
X01845
X01725
Y0431
Y0443
Y0455
Y0467
X01605
Y0455
Y0443
Y0431
Y0419
Y0407
Y0395
X01725Y0347
X01845
X01955
X02075
Y0335
X01955
X01845
X01725
X018Y0323
Y0318
Y0313
X01915
Y0318
Y0323
X0224Y0327
X023Y0321
X0236Y0315
X02195Y0341
Y0353
Y0365
X0281811Y0320398
X0287646Y0320417
X029348Y0320398
X031Y03195
X0322Y03345
X0334
X0346
X0358
X037
X0382
X0394
X0406
X04165
X0421
Y033
Y03255
X04165
Y033
X04255
Y03345
Y03255
X043Y03465
X0442
X0454
Y03585
X0466
Y03705
X0454
Y03825
X0442
Y03705
Y03585
X043
X0418
Y03465
X0406
Y03585
X0394
Y03465
X0382
Y03585
X037
Y03465
X0358
Y03585
Y03705
X037
X0382
X0394
X0406
X0418
X043
Y03825
X0418
X0406
X0394
X0382
X037
X0358
X0346
Y03705
Y03585
Y03465
X0334
Y03585
Y03705
Y03825
X0322
Y03705
Y03585
Y03465
Y0407
Y0419
X0334
Y0431
X0346
Y0443
Y0455
Y0467
X0358
X037
X0382
X0394
X0406
X0418
X043
X0442
X0454
X0418Y0455
X0406
X0394
X0382
X037
X0358
Y0443
Y0431
Y0419
Y0407
X0346
X0334
X0346Y0419
X037
Y0407
X0382
Y0419
Y0431
X037
Y0443
X0382
X0394
Y0431
Y0419
Y0407
X0406
Y0419
Y0431
Y0443
X0418
Y0431
Y0419
Y0407
X043
Y0419
X0442
Y0407
X0454
Y0419
X0456179Y0317268
X0467232
X0445Y0319
Y03155
X0322Y0431
Y0443
Y0455
Y0467
X0334
Y0455
Y0443
X049Y0455
Y0467
X0502
X0514
X0526
X0538
X055
X0562
X0574
X0586
Y0455
X0574
X0562
X055
X0538
X0526
X0514
X0502
Y0443
X0514
X0526
X0538
X055
X0562
X0574
X0586
Y0431
X0574
X0562
X055
X0538
X0526
X0514
X0502
Y0419
X0514
X0526
X0538
X055
X0562
X0574
X0586
Y0407
Y03975
X0574
Y0407
X0562
X055
X0538
X0526
X0514
X0502
X049
X0471911Y040525
X0469316
Y03995
X0471911
X0481Y038775
X0485
Y03835
X0481
X0502Y03855
Y0395
X0514
Y03855
X0526Y0395
X0538Y03855
X055
X0562
X0574
Y03735
X0586
X0598
Y03615
Y03495
X0586
Y03375
Y03255
Y03135
X0574
Y03255
Y03375
Y03495
Y03615
X0586
Y03855
X0598
Y03975
Y0407
Y0419
Y0431
Y0443
Y0455
X061Y03975
Y03855
X0615Y0327
Y0315
X0555342Y0312658
X05545Y0326
X055325Y0331
X05545Y03375
X055325Y0344
X054675Y03505
X053375
X0534Y036075
X054025Y0357
X052725
X051425
X052075Y03505
X050775
X051425Y0344
X052725
X054025
X054675Y03375
X053375
X052075
X050775
X0503469Y0341033
Y0331
X050775Y03245
X0502118Y031886
X051425Y0318
X052075Y03245
X05285Y0321
X052725Y0331
X051425
X054025
X0547Y03215
X0627Y0327
X0639
Y0315
X0627
X06455Y034
Y0351
Y0362
Y03755
Y0389
X0635753Y0393758
X0625Y03935
X06385Y0407
X0586Y0479
X0574
X0562
Y0491
X0574
X055
X0538
X0526
Y0479
X0538
X055
X0514
X0502
X049
Y0491
X0502
X0514
X0478
Y0479
X0466
X0454
Y0491
X0466
X0442
X043
X0418
Y0479
X043
X0442
X0406
X0394
X0382
Y0491
X0394
X0406
X037
X0358
X0346
Y0479
X0358
X037
X0334
X0322
Y0491
X0334
X031
X0301
X02915
Y0479
X0301
X031
X02795
X02675
Y0491
X02555
Y0479
X02435
X02315
X02195
X02075
Y0491
X01955
X01845
Y0479
X01955
X01725
Y0491
X01605Y0479
X02195Y0491
X02315
X02435
X02795
T02
X04515Y014
X04705Y01215
X03845Y025575
X03775Y02615
X0394746Y0284591
Y0288941
X0397797
Y0294216
X0394746
X0391695
Y0288941
X0394746Y0298567
X02765Y029522
Y0289
Y02825
Y02765
Y027
Y02605
Y025425
Y0248
X0277079Y0229079
X0255Y0251
X0229Y02405
X02165Y02355
X0198Y02405
Y02605
Y02705
Y02805
Y02905
Y03005
Y03105
X0164Y0308
Y0303
Y0298
Y0293
Y0288
Y0283
Y0278
Y0273
Y0268
Y0263
Y0258
Y0253
Y0243
Y0238
Y0233
Y0228
Y0313
Y0318
X0198Y03205
T03
X02245Y0114
X04825Y03005
X05095Y03025
X04325Y030211
Y0312137
Y0292082
Y0282055
Y0272027
Y0262777
Y025275
Y0242723
X038575Y02705
Y027525
X0385Y030825
X0379
X0401Y031025
X0411939
X0252Y0311
Y03845
X0379Y0313
X0385
X0431Y03205
X0484Y037
X0495Y03855
T04
X0348126Y025313
X0356
Y0261004
Y0268878
X0348126
Y0261004
Y0276752
Y0284626
Y02925
Y0300374
X0356
Y02925
Y0284626
Y0276752
T05
X0217626Y0377878
Y0385752
Y0393626
Y04015
Y0409374
Y0417248
Y0425122
X02255
Y0417248
Y0409374
Y04015
Y0393626
Y0385752
Y0377878
T06
X046975Y045925
X048095Y044925
Y046925
T07
X05555Y0121
X0123Y017
X018Y0402
X056775Y043725
T08
X02485Y01215
X02585
Y014
X02485
X05355Y015875
X05455
X05555
X05655
X05755
X05855
X05955
Y021875
X05855
X05755
X05655
X05555
X05455
X05355
X0473Y02845
X0440992Y0191146
X0283512
X02245Y019
Y018
X02105Y018025
Y019025
X0283512Y0326854
X0440992
X04645Y0385
X04725Y03435
T09
X0471Y043675
X0481
X0491
T10
X03185Y010685
Y011555
X03281
Y010685
X037575
Y011555
X038535
Y010685
T11
X0591878Y03015
X06155
X0603689Y0320004
T12
X0135Y0135
X0615
X0440854Y0170417
X0267626
X0135Y0465
X0267626Y0442071
X0440854
X0615Y0465
T13
X062025Y03565
X062025Y042675
M30
